<?xml version="1.0" standalone="no"?>
<!DOCTYPE svg PUBLIC "-//W3C//DTD SVG 1.1//EN" "http://www.w3.org/Graphics/SVG/1.1/DTD/svg11.dtd" >
<svg xmlns="http://www.w3.org/2000/svg" xmlns:xlink="http://www.w3.org/1999/xlink" version="1.1">
<metadata>
Created by FontForge 20170731 at Tue Nov 19 01:35:17 2013
 By Aleksey,,,
Copyright (c) 2013 by juliasys.com. All rights reserved.
</metadata>
<defs>
<font id="Mir-Bold" horiz-adv-x="1004" >
  <font-face 
    font-family="Mir-Bold"
    font-weight="400"
    font-stretch="normal"
    units-per-em="2000"
    panose-1="2 0 8 4 6 1 1 2 1 4"
    ascent="1520"
    descent="-480"
    x-height="950"
    cap-height="1285"
    bbox="-269 -509 2365 1794"
    underline-thickness="100"
    underline-position="-400"
    unicode-range="U+000D-FB04"
  />
<missing-glyph horiz-adv-x="1036" 
d="M113 0v1420h810v-1420h-810zM275 1260v-1099h488v1099h-488z" />
    <glyph glyph-name="ff" unicode="ff" horiz-adv-x="1289" 
d="M415 950h376v169q0 314 278 314q98 0 194 -31q16 -4 16 -24v-138q0 -17 -14 -17q-85 17 -127 17q-37 0 -57 -10q-29 -12 -43 -43t-14 -97v-140h210q31 0 31 -24v-126q0 -25 -31 -25h-210v-745q0 -30 -24 -30h-185q-24 0 -24 30v745h-376v-745q0 -30 -24 -30h-185
q-24 0 -24 30v745h-124q-31 0 -31 25v126q0 24 31 24h124v169q0 314 278 314q98 0 194 -31q16 -4 16 -24v-138q0 -17 -14 -17q-85 17 -127 17q-37 0 -57 -10q-29 -12 -43 -43t-14 -97v-140z" />
    <glyph glyph-name="fi" unicode="fi" horiz-adv-x="1175" 
d="M415 949h584q13 0 22 -9.5t9 -23.5v-757l118 -24q17 -5 17 -21v-89q0 -23 -26 -25l-311 -24q-13 0 -22 9.5t-9 22.5v766h-382v-744q0 -30 -24 -30h-185q-24 0 -24 30v744h-124q-31 0 -31 25v126q0 24 31 24h124v170q0 314 278 314q98 0 194 -31q16 -4 16 -24v-138
q0 -17 -14 -17q-83 17 -127 17q-37 0 -57 -10q-29 -12 -43 -43t-14 -97v-141zM815 1120q-33 33 -33 90q0 58 33 89q33 33 94 33t94 -33q34 -31 34 -89q0 -57 -34 -90q-34 -32 -94 -32t-94 32z" />
    <glyph glyph-name="fl" unicode="fl" horiz-adv-x="1249" 
d="M182 775h-124q-31 0 -31 25v126q0 24 31 24h124v169q0 158 68.5 234t209.5 76h523q13 0 22.5 -9.5t9.5 -22.5v-1091q0 -104 74 -132q35 -12 89 -12h35q16 0 17 -16l9 -138q0 -21 -14 -24q-71 -10 -172 -10q-162 0 -221 96q-51 87 -51 232v947h-175q-61 0 -94 -4t-62 -27
q-35 -28 -35 -128v-140h210q31 0 31 -24v-126q0 -25 -31 -25h-210v-745q0 -30 -24 -30h-184q-25 0 -25 30v745z" />
    <glyph glyph-name="ffi" unicode="ffi" horiz-adv-x="1784" 
d="M1024 950h584q13 0 22 -9.5t9 -23.5v-758l118 -24q17 -5 17 -21v-89q0 -23 -26 -25l-311 -24q-13 0 -22 9.5t-9 22.5v767h-382v-745q0 -30 -24 -30h-185q-24 0 -24 30v745h-376v-745q0 -30 -24 -30h-185q-24 0 -24 30v745h-124q-31 0 -31 25v126q0 24 31 24h124v169
q0 314 278 314q98 0 194 -31q16 -4 16 -24v-138q0 -17 -14 -17q-85 17 -127 17q-37 0 -57 -10q-29 -12 -43 -43t-14 -97v-140h376v169q0 314 278 314q98 0 194 -31q16 -4 16 -24v-138q0 -17 -14 -17q-85 17 -127 17q-37 0 -57 -10q-29 -12 -43 -43t-14 -97v-140zM1424 1120
q-33 33 -33 90q0 58 33 89q33 33 94 33t94 -33q34 -31 34 -89q0 -57 -34 -90q-34 -32 -94 -32t-94 32z" />
    <glyph glyph-name="ffl" unicode="ffl" horiz-adv-x="1858" 
d="M1624 1397v-1091q0 -104 74 -132q35 -12 89 -12h35q16 0 17 -16l9 -138q0 -21 -14 -24q-71 -10 -172 -10q-162 0 -221 96q-51 87 -51 232v947h-175q-61 0 -94 -4t-62 -27q-35 -28 -35 -128v-140h210q31 0 31 -24v-126q0 -25 -31 -25h-210v-745q0 -30 -24 -30h-185
q-24 0 -24 30v745h-376v-745q0 -30 -24 -30h-185q-24 0 -24 30v745h-124q-31 0 -31 25v126q0 24 31 24h124v169q0 314 278 314q98 0 194 -31q16 -4 16 -24v-138q0 -17 -14 -17q-85 17 -127 17q-37 0 -57 -10q-29 -12 -43 -43t-14 -97v-140h376v169q0 158 68.5 234t209.5 76
h523q14 0 23 -9.5t9 -22.5z" />
    <glyph glyph-name="f_j" unicode="fj" horiz-adv-x="1124" 
d="M746 774h-331v-744q0 -30 -24 -30h-185q-24 0 -24 30v744h-124q-31 0 -31 25v126q0 24 31 24h124v170q0 314 278 314q98 0 194 -31q16 -4 16 -24v-138q0 -17 -14 -17q-4 1 -18 3.5t-23 3.5q-40 6 -49 7q-19 3 -37 3q-37 0 -57 -10q-29 -12 -43 -43t-14 -97v-141h533
q13 0 22 -9.5t9 -23.5v-979q0 -148 -39 -232q-25 -54 -66 -85q-91 -73 -282 -73q-16 0 -23 1t-14 6t-7 16v144q0 21 17 23q65 6 101 19q27 9 42 24q38 34 38 102v892zM858 1332q60 0 94 -32.5t34 -89.5t-34 -89.5t-94 -32.5t-93.5 32.5t-33.5 89.5t33.5 89.5t93.5 32.5z" />
    <glyph glyph-name="f_f_j" unicode="ffj" horiz-adv-x="1682" 
d="M415 949h325v170q0 314 278 314q98 0 194 -31q16 -4 16 -24v-138q0 -17 -14 -17q-88 17 -127 17q-37 0 -57 -10q-26 -10 -41 -39.5t-16 -100.5v-141h533q13 0 22.5 -9.5t9.5 -23.5v-979q0 -107 -18 -174q-18 -78 -75 -132q-87 -84 -295 -84q-16 0 -23 1t-13 6t-8 16v144
q0 22 18 23q77 4 121 27q59 29 59 118v892h-331v-744q0 -30 -24 -30h-185q-24 0 -24 30v744h-325v-744q0 -30 -24 -30h-185q-24 0 -24 30v744h-124q-31 0 -31 25v126q0 24 31 24h124v170q0 314 278 314q98 0 194 -31q16 -4 16 -24v-138q0 -17 -14 -17q-88 17 -127 17
q-37 0 -57 -10q-29 -12 -43 -43t-14 -97v-141zM1416 1332q60 0 94 -32.5t34 -89.5t-34 -89.5t-94 -32.5t-93.5 32.5t-33.5 89.5t33.5 89.5t93.5 32.5z" />
    <glyph glyph-name=".notdef" horiz-adv-x="1036" 
d="M113 0v1420h810v-1420h-810zM275 1260v-1099h488v1099h-488z" />
    <glyph glyph-name="uni0000" horiz-adv-x="0" 
 />
    <glyph glyph-name="uni0000" horiz-adv-x="0" 
 />
    <glyph glyph-name="nonmarkingreturn" horiz-adv-x="666" 
 />
    <glyph glyph-name="CR.001" unicode="&#xd;" horiz-adv-x="444" 
 />
    <glyph glyph-name="space" unicode=" " horiz-adv-x="444" 
 />
    <glyph glyph-name="exclam" unicode="!" horiz-adv-x="532" 
d="M158 414l-34 850q0 10 3 14q4 7 20 7h236q21 0 21 -22l-36 -847q-2 -24 -19 -24h-169q-21 0 -22 22zM266 -24q-67 0 -108.5 40.5t-41.5 106.5q0 65 42 109q44 44 108 44q62 0 106 -45q44 -44 44 -108q0 -66 -42 -106.5t-108 -40.5z" />
    <glyph glyph-name="quotedbl" unicode="&#x22;" horiz-adv-x="767" 
d="M674 1395l-57 -446q-3 -23 -30 -23h-99q-28 0 -30 23l-34 446q0 26 27 26h199q10 0 17 -7.5t7 -18.5zM123 1421h196q27 0 27 -26l-57 -446q-3 -23 -30 -23h-99q-28 0 -30 23l-34 446q0 11 3 15q5 11 24 11z" />
    <glyph glyph-name="numbersign" unicode="#" horiz-adv-x="1100" 
d="M940 360h-159l-44 -334q-5 -26 -33 -26h-123q-25 0 -25 26l44 334h-196l-44 -334q-5 -26 -32 -26h-124q-9 0 -16.5 7t-7.5 19l44 334h-136q-20 0 -20 15v127q0 15 20 15h157l34 256h-136q-20 0 -20 15v127q0 15 20 15h157l44 329q5 26 25 26h123q33 0 33 -26l-43 -329
h195l44 329q0 12 7.5 19t16.5 7h124q32 0 32 -26q-35 -267 -43 -329h137q20 0 20 -16v-127q0 -14 -20 -14h-157q-9 -62 -21 -151t-14 -105h137q20 0 20 -15v-129q0 -13 -20 -13zM461 773q-9 -62 -21 -151t-14 -105h195l35 256h-195z" />
    <glyph glyph-name="dollar" unicode="$" horiz-adv-x="1049" 
d="M241 293l30 -105q109 -20 178 -20v410q-13 5 -33.5 12t-35 12t-25.5 9q-32 13 -84 38q-43 21 -76 49q-110 95 -110 244q0 338 364 366v129q0 18 4.5 24.5t18.5 6.5h76q18 0 21.5 -4.5t3.5 -25.5v-128q191 -8 296 -45q26 -9 26 -26l-11 -236q-2 -20 -21 -20h-105
q-18 0 -21 17l-33 114q-56 9 -118 9h-13v-339q58 -20 80 -28q36 -13 76 -32q50 -21 76 -40q29 -20 63 -51q92 -83 99 -255q0 -179 -103 -280t-291 -117v-140q0 -18 -7.5 -24t-28.5 -6h-55q-20 0 -26.5 5t-6.5 20v143q-98 3 -179 16q-87 14 -125 24l-39 11q-24 8 -24 28
q0 1 11 232q1 21 22 21h104q11 0 15 -3.5t7 -14.5zM719 369q0 61 -35.5 99.5t-110.5 67.5v-354q146 42 146 187zM337 952q0 -42 27 -70.5t85 -52.5v277q-112 -33 -112 -154z" />
    <glyph glyph-name="percent" unicode="%" horiz-adv-x="1688" 
d="M1295 490q-69 0 -106.5 -47t-37.5 -128t37 -127q38 -47 107 -47q70 0 106 47q36 46 36 127q0 80 -37 127.5t-105 47.5zM393 1139q-70 0 -107 -46.5t-37 -129.5q0 -80 37 -126.5t107 -46.5q69 0 105.5 46.5t36.5 126.5t-37.5 128t-104.5 48zM393 622q-145 0 -233 91
t-88 254q0 151 87 246q86 95 234 95q145 0 232 -95t87 -246q0 -155 -86 -250t-233 -95zM1295 -26q-145 0 -233 91q-87 92 -87 254q0 151 86 246t234 95q144 0 233 -95q88 -94 88 -246q0 -155 -86 -250t-235 -95zM424 -2l621 1272q7 15 28 15h165q21 0 21 -16q0 -1 -2 -7
l-622 -1272q-7 -15 -27 -15h-167q-18 0 -18 16q0 6 1 7z" />
    <glyph glyph-name="ampersand" unicode="&#x26;" horiz-adv-x="1269" 
d="M942 33l-152 162l-50 -56q-70 -77 -162 -117t-190 -40q-135 0 -231 103t-96 243q0 188 186 349l51 44q-22 25 -37 45q-62 80 -89 135t-27 114q0 135 90 214q91 80 223 80q125 0 214 -83q90 -82 90 -208q0 -80 -36 -142q-35 -59 -123 -146l-30 -29l214 -225l119 129
q44 47 77 63q36 17 109 17h70q31 0 31 -29v-131q0 -29 -31 -29q-49 0 -94 -14q-26 -8 -47 -32l-103 -113q32 -34 60 -64t40 -43l11 -12q37 -39 128 -40q29 0 29 -30v-132q0 -15 -5.5 -21t-22.5 -6h-32q-37 0 -71 2q-28 2 -58 11q-33 11 -55 31zM434 188q46 0 100 32
q22 14 46 36q17 16 39 38q13 15 39 42l-226 241l-46 -44q-30 -29 -52 -54q-19 -22 -37 -58q-17 -36 -17 -71q0 -68 43 -115q44 -47 111 -47zM346 1011q0 -54 52 -121q20 -24 49 -55l33 26q81 65 81 148q0 54 -28 87t-75 33q-53 0 -82.5 -31t-29.5 -87z" />
    <glyph glyph-name="quotesingle" unicode="'" horiz-adv-x="442" 
d="M346 1395l-57 -446q-3 -23 -30 -23h-99q-28 0 -30 23l-34 446q0 26 27 26h199q10 0 17 -7.5t7 -18.5z" />
    <glyph glyph-name="parenleft" unicode="(" horiz-adv-x="648" 
d="M586 1518q-298 -403 -298 -876q0 -463 299 -864q3 -4 3 -10q0 -10 -14 -19l-100 -62q-6 -3 -12 -3q-12 0 -23 14q-352 449 -352 956q0 249 94 491q93 241 269 461q8 9 16 9q9 0 14 -4l94 -63q14 -9 14 -18q0 -8 -4 -12z" />
    <glyph glyph-name="parenright" unicode=")" horiz-adv-x="648" 
d="M63 1518q-4 4 -4 12q0 9 14 18l94 63q4 4 12 4q11 0 18 -9q174 -217 268 -461q95 -244 95 -491q0 -507 -352 -956q-11 -14 -23 -14q-6 0 -12 3l-100 62q-14 9 -14 19q0 6 3 10q299 401 299 864q0 473 -298 876z" />
    <glyph glyph-name="asterisk" unicode="*" horiz-adv-x="711" 
d="M509 1102l-23 -4q2 -2 8.5 -9.5t7.5 -8.5l93 -128q17 -19 -1 -32l-98 -69q-8 -7 -18 -7t-18 12l-87 147l-8 17l-8 -17l-94 -142q-10 -19 -20 -19q-7 0 -18 9l-88 69q-7 6 -7 14q0 11 10 24l89 121l17 19l-15 2l-143 47q-16 6 -16 21q0 1 0.5 2.5t1 4.5t0.5 6l30 98
q8 20 21 20q9 0 16 -4l139 -59l22 -14l-4 16l-11 162q0 23 30 23h96q12 0 17 -0.5t10.5 -5.5t5.5 -15l-13 -164l-2 -16l23 14l136 59q9 4 19 4q11 0 20 -20l28 -98q2 -10 2 -12q0 -19 -18 -22q-4 -1 -11.5 -4t-22 -8t-27.5 -9q-43 -15 -71 -24z" />
    <glyph glyph-name="plus" unicode="+" horiz-adv-x="889" 
d="M547 458v-243q0 -16 -5 -21.5t-20 -5.5h-159q-21 0 -21 23v247h-245q-16 0 -21 4t-5 18v150q0 21 24 21h247v246q0 15 4 20t16 5h164q14 0 17.5 -4.5t3.5 -17.5v-249h246q15 0 20 -4t5 -15v-154q0 -12 -5 -16t-18 -4h-248z" />
    <glyph glyph-name="comma" unicode="," horiz-adv-x="424" 
d="M394 241l-182 -468q-8 -17 -20 -17h-136q-15 0 -15 13q0 4 1 9l86 469q1 6 7 11t13 5h230q18 0 18 -14z" />
    <glyph glyph-name="hyphen" unicode="-" horiz-adv-x="653" 
d="M538 436h-419q-16 0 -21 4t-5 18v165q0 21 24 21h419q15 0 19.5 -3.5t4.5 -15.5v-169q0 -12 -4.5 -16t-17.5 -4z" />
    <glyph glyph-name="period" unicode="." horiz-adv-x="522" 
d="M261 -24q-67 0 -108.5 40.5t-41.5 106.5q0 65 42 109q44 44 108 44q63 0 106 -45q44 -44 44 -108q0 -66 -42 -106.5t-108 -40.5z" />
    <glyph glyph-name="slash" unicode="/" horiz-adv-x="797" 
d="M800 1587q14 -2 14 -13q0 -1 -2 -11l-575 -1830q-4 -19 -29 -19h-153q-19 0 -19 16l2 10l578 1831q4 16 18 16h166z" />
    <glyph glyph-name="zero" unicode="0" horiz-adv-x="1154" 
d="M102 632q0 677 479 677q126 0 218.5 -48.5t147 -138.5t80 -205t25.5 -260q0 -156 -27.5 -279t-84.5 -214t-150.5 -139.5t-219.5 -48.5q-250 0 -362 185q-106 175 -106 471zM570 1103q-133 0 -182 -126q-45 -115 -45 -326q0 -181 24 -286q16 -64 40 -100q57 -83 167 -83
q87 3 137.5 49.5t71.5 139.5q25 106 25 290q0 166 -26 266q-15 58 -41 95q-58 81 -171 81z" />
    <glyph glyph-name="one" unicode="1" horiz-adv-x="774" 
d="M544 187l133 -37q20 -6 20 -26v-104q0 -20 -25 -20h-495q-26 0 -26 20v104q0 18 21 26l131 37v846q-20 -7 -106 -29q-70 -17 -106 -24q-12 0 -14 17l-7 157q0 2 2 10q4 10 18 13q152 43 415 122l14 2q25 0 25 -34v-1080z" />
    <glyph glyph-name="two" unicode="2" horiz-adv-x="1044" 
d="M911 0h-822q-18 0 -31 14t-13 32q0 281 337 533q66 49 121 95q42 34 86 81q75 80 75 169q0 57 -30 98.5t-77 58.5q-42 16 -92 16q-153 0 -200 -158q-7 -19 -20 -19l-185 47q-8 2 -8 15q24 138 134 233q110 94 288 94q182 3 308 -99.5t125 -269.5q0 -157 -91 -276
q-78 -103 -235 -213q-50 -34 -86 -62q-26 -19 -75 -61q-82 -70 -95 -129h421l32 112q6 20 26 20h106q19 0 21 -23v-283q0 -25 -20 -25z" />
    <glyph glyph-name="three" unicode="3" horiz-adv-x="1012" 
d="M84 1285h787q10 0 19 -6t9 -16t-6 -19l-341 -469q97 -6 179 -40q55 -23 90 -56q40 -35 65.5 -96.5t25.5 -137.5q0 -96 -32 -174.5t-87.5 -132.5t-132.5 -90.5t-165 -53.5t-187 -17q-121 0 -215 20q-15 5 -15 18l22 148q3 18 26 18q57 -7 133 -7q111 0 207 29q57 18 99 45
q45 28 72 75t27 105q0 130 -125 165q-62 19 -162 19q-6 0 -66 -2q-30 -1 -53 -1q-42 0 -42 24q0 12 14 34l306 424h-299l-33 -120q-5 -17 -21 -17h-104q-19 0 -21 20v283q0 12 4 19q6 9 22 9z" />
    <glyph glyph-name="four" unicode="4" horiz-adv-x="1032" 
d="M605 30v260h-503q-37 0 -37 36v136q0 16 8 34l3 8l359 763q7 18 32 18h201q18 0 18 -14l-3 -14l-365 -778h287v250q0 30 24 30h181q24 0 24 -30v-250h93q30 0 30 -24v-139q0 -23 -30 -26h-93v-260q0 -30 -24 -30h-181q-24 0 -24 30z" />
    <glyph glyph-name="five" unicode="5" horiz-adv-x="981" 
d="M876 444q0 -97 -30 -176t-83 -132.5t-127 -89.5t-159 -52.5t-182 -16.5q-122 0 -205 18q-15 3 -15 18l22 146q3 20 26 20q48 -5 123 -5q109 0 199 29q53 18 92 45q41 28 66 75t25 105q-4 79 -37.5 121.5t-99.5 57.5q-48 12 -81 13q-36 3 -88 3q-28 0 -172 -10
q-15 0 -20 5t-5 22l40 620q1 25 33 25h610q31 0 31 -25v-150q0 -24 -30 -24h-427l-20 -274h37q477 0 477 -368z" />
    <glyph glyph-name="six" unicode="6" horiz-adv-x="1071" 
d="M800 1300l39 -130q5 -17 5 -20q0 -10 -15 -15q-178 -50 -310 -161q-132 -112 -170 -268l10 10q31 31 93 59q63 30 144 30q170 0 277 -116t107 -299q0 -178 -124 -296t-304 -118q-101 0 -180 28.5t-128.5 76t-81.5 114t-44.5 136.5t-12.5 150q0 322 173 536
q173 212 486 292q10 2 16 2q15 0 20 -11zM548 176q80 0 139 62q59 64 59 152q0 110 -48.5 167t-141.5 57q-96 0 -151.5 -60.5t-55.5 -165.5q0 -90 57 -151t142 -61z" />
    <glyph glyph-name="seven" unicode="7" horiz-adv-x="941" 
d="M220 1086l-32 -115q-3 -17 -21 -17h-105q-19 0 -22 20v283q0 12 4 19q6 9 22 9h810q15 0 27.5 -11t12.5 -26v-132q0 -15 -13 -40q-166 -322 -269 -564q-106 -253 -176 -490q-6 -22 -28 -22h-201q-14 0 -21 10q-3 4 -3 11q0 6 1 8q167 552 449 1057h-435z" />
    <glyph glyph-name="eight" unicode="8" horiz-adv-x="1095" 
d="M719 969q0 69 -51 109q-49 40 -117 40q-65 0 -116 -39q-51 -37 -51 -108q0 -60 52 -106q51 -45 119 -67q64 21 113 69q51 49 51 102zM329 355q0 -89 62 -139q62 -48 152 -48q91 0 156 46q66 46 66 133q0 84 -67 147q-67 64 -153 91q-85 -24 -151 -87q-65 -63 -65 -143z
M547 -24q-126 0 -226 43t-160 126q-61 85 -61 202q0 240 266 347q-112 58 -161 127q-48 69 -48 169q0 99 58 173q59 75 147 111t187 36q151 0 269 -76q59 -37 93 -96.5t34 -131.5q0 -180 -208 -310q258 -128 258 -347q0 -115 -64 -201q-63 -85 -164 -129q-99 -43 -220 -43z
" />
    <glyph glyph-name="nine" unicode="9" horiz-adv-x="1076" 
d="M722 579l-10 -10q-30 -30 -93 -60q-64 -29 -144 -29q-170 0 -277 116t-107 299q0 178 124 296t304 118q106 0 189 -32t133 -87q48 -51 79 -130q51 -129 51 -315q0 -134 -26 -248t-83 -211t-143.5 -165t-212.5 -106t-285 -38h-24q-33 0 -35 21l10 140q2 21 21 21
q246 16 372 109q125 93 154 285q0 1 1.5 13t1.5 13zM523 1109q-80 0 -139 -63q-59 -62 -59 -151q0 -110 48.5 -167t141.5 -57q96 0 151.5 60.5t55.5 165.5q0 89 -57 151q-57 61 -142 61z" />
    <glyph glyph-name="colon" unicode=":" horiz-adv-x="530" 
d="M265 -26q-67 0 -108.5 40.5t-41.5 106.5q0 65 42 109q44 44 108 44q63 0 106 -45q44 -44 44 -108q0 -66 -42 -106.5t-108 -40.5zM265 622q-67 0 -108.5 40.5t-41.5 106.5q0 65 42 109q44 44 108 44q63 0 106 -45q44 -44 44 -108q0 -66 -42 -106.5t-108 -40.5z" />
    <glyph glyph-name="semicolon" unicode=";" horiz-adv-x="488" 
d="M395 245l-183 -472q-8 -17 -20 -17h-136q-15 0 -15 13q0 4 1 9l86 469q1 6 7 11t13 5h230q18 0 18 -12q0 -4 -1 -6zM267 622q-67 0 -108.5 40.5t-41.5 106.5q0 65 42 109q44 44 108 44q63 0 106 -45q44 -44 44 -108q0 -66 -42 -106.5t-108 -40.5z" />
    <glyph glyph-name="less" unicode="&#x3c;" horiz-adv-x="870" 
d="M708 89l-605 350q-21 13 -21 38v155q0 24 21 38l605 345q6 3 12 3q12 0 20 -15l67 -138q3 -6 3 -10q0 -11 -15 -19l-476 -281l476 -287q15 -8 15 -19q0 -4 -3 -10l-67 -138q-8 -15 -20 -15q-6 0 -12 3z" />
    <glyph glyph-name="equal" unicode="=" horiz-adv-x="979" 
d="M840 624h-698q-16 0 -21 4t-5 18v155q0 21 24 21h698q15 0 20 -4.5t5 -14.5v-159q0 -13 -4.5 -16.5t-18.5 -3.5zM840 278h-698q-16 0 -21 4t-5 18v155q0 21 24 21h698q15 0 20 -4.5t5 -14.5v-159q0 -13 -4.5 -16.5t-18.5 -3.5z" />
    <glyph glyph-name="greater" unicode="&#x3e;" horiz-adv-x="870" 
d="M767 439l-605 -350q-6 -3 -12 -3q-12 0 -20 15l-67 138q-3 6 -3 11q0 10 15 18l476 287l-476 281q-15 8 -15 19q0 4 3 10l67 138q8 15 20 15q6 0 12 -3l605 -345q21 -14 21 -38v-155q0 -29 -21 -38z" />
    <glyph glyph-name="question" unicode="?" horiz-adv-x="822" 
d="M264 410q1 95 36.5 178t116.5 172q48 51 77 100q25 43 25 102q0 157 -170 157q-73 0 -129 -13l-30 -118q-4 -16 -27 -16h-73q-10 0 -14 3.5t-5 15.5q-21 235 -21 237q0 22 18 28q168 49 298 49q125 0 216 -41q56 -25 92 -61q87 -82 87 -241q0 -100 -51 -179
q-34 -50 -47 -65q-18 -22 -60 -69l-36 -40q-85 -97 -91 -197q0 -20 -17 -20h-178q-17 0 -17 18zM367 -24q-67 0 -108.5 40.5t-41.5 106.5q0 65 42 109q44 44 108 44q63 0 106 -45q44 -44 44 -108q0 -66 -42 -106.5t-108 -40.5z" />
    <glyph glyph-name="at" unicode="@" horiz-adv-x="1717" 
d="M1204 840l-43 -512q-3 -42 -3 -56q0 -41 4 -65q5 -19 10 -25q20 -20 54 -20q64 0 126 57q62 59 99 155q38 99 38 203q0 211 -138 351q-69 71 -184.5 110t-262.5 39q-153 0 -280.5 -53t-212.5 -147q-172 -194 -172 -477q0 -276 142 -446q73 -88 195.5 -135.5t284.5 -47.5
q22 0 22 -18v-90q0 -26 -29 -26q-246 1 -416 81t-262 228q-119 184 -119 454q0 174 62.5 327.5t174.5 265.5q114 111 272 173q159 64 347 64q347 0 550 -176t203 -478q0 -109 -34.5 -212.5t-97.5 -185.5q-62 -82 -154 -129.5t-196 -47.5q-75 0 -129 38.5t-72 112.5
q-50 -62 -120 -97.5t-140 -35.5q-131 0 -193 78q-61 79 -61 209q-2 112 43 238t123 217q55 65 130 102.5t158 37.5q132 0 281 -61zM960 305l35 405q-27 11 -73 11q-54 0 -110 -54q-54 -51 -91 -142q-35 -90 -35 -181q0 -73 28 -112q20 -26 51 -26q47 0 99.5 27.5t95.5 71.5z
" />
    <glyph glyph-name="A" unicode="A" horiz-adv-x="1191" 
d="M581 1027q-46 -149 -131 -451l-20 -69h330l-8 33l-133 487q-5 17 -15 73l-2 13h-4q-7 -46 -17 -86zM388 1098l-113 37q-20 8 -20 26v104q0 20 25 20h467q16 0 21 -14l383 -1246q2 -8 2 -9q0 -16 -14 -16h-213q-7 0 -15.5 5.5t-10.5 13.5l-86 294h-437l-87 -294
q-2 -8 -10 -13.5t-15 -5.5h-213q-14 0 -14 14q0 5 1 7z" />
    <glyph glyph-name="B" unicode="B" horiz-adv-x="1147" 
d="M583 1106q-34 0 -68.5 -1.5t-56 -3t-24.5 -1.5h-2v-329h136q90 0 150 48q60 49 60 123q0 88 -48.5 125t-146.5 39zM553 587h-121v-410q27 -6 136 -6q112 0 183.5 53.5t71.5 169.5q0 193 -270 193zM217 0q-24 3 -24 30v1068l-113 37q-20 8 -20 26v104q0 20 25 20
q315 6 453 6q128 0 207 -12q96 -12 168 -57q113 -68 113 -244q0 -200 -220 -284q123 -26 196 -114q74 -89 74 -227q0 -181 -132.5 -277t-382.5 -96q-65 0 -160 5q-59 3 -135 10z" />
    <glyph glyph-name="C" unicode="C" horiz-adv-x="1087" 
d="M869 988l-33 114q-67 21 -127 21q-182 0 -286 -131q-103 -130 -103 -348q0 -239 94 -358.5t291 -119.5q50 0 106 10q67 12 93 20l34 11q13 4 21 4q12 0 20 -20l40 -118q2 -10 2 -11q0 -16 -19 -26q-8 -6 -41 -19q-30 -12 -108 -27q-76 -16 -163 -16q-304 0 -461.5 167.5
t-157.5 493.5q0 310 162 493q163 183 449 183q169 0 319 -58q22 -9 25 -19q1 -2 1 -13l-11 -230q-2 -21 -21 -21h-105q-10 0 -14 3.5t-7 14.5z" />
    <glyph glyph-name="D" unicode="D" horiz-adv-x="1253" 
d="M432 1099v-921q31 -4 99 -4q197 0 306 130q110 131 110 345q2 252 -126 365q-98 85 -285 85h-104zM85 1285q74 0 338 3q35 1 133 1q312 0 477 -162.5t165 -480.5q0 -311 -169 -486q-170 -176 -466 -176q-168 0 -309 10q-61 4 -61 39v1065l-113 37q-20 8 -20 26v104
q0 20 25 20z" />
    <glyph glyph-name="E" unicode="E" horiz-adv-x="1041" 
d="M796 595h-364v-396h508q24 0 24 -29v-140q0 -30 -24 -30h-723q-24 0 -24 30v1068l-113 37q-20 8 -20 26v104q0 20 25 20h850q35 0 35 -34v-130q0 -35 -35 -35h-503v-292h364q17 0 26 -9.5t9 -25.5v-130q0 -34 -35 -34z" />
    <glyph glyph-name="F" unicode="F" horiz-adv-x="936" 
d="M408 0h-191q-24 0 -24 30v1068l-113 37q-20 8 -20 26v104q0 20 25 20h789q35 0 35 -35v-129q0 -35 -35 -35h-442v-323h333q17 0 26.5 -9.5t9.5 -24.5v-130q0 -15 -9.5 -25t-26.5 -10h-333v-534q0 -30 -24 -30z" />
    <glyph glyph-name="G" unicode="G" horiz-adv-x="1203" 
d="M702 656h379q12 0 15 -2.5t3 -12.5v-550q0 -28 -38 -46q-5 -3 -49 -20q-36 -12 -131 -30q-94 -19 -197 -19q-300 0 -456.5 168.5t-156.5 492.5q0 140 45 264t129 215q85 92 209 143.5t271 51.5q173 0 328 -58q18 -9 25 -20q2 -4 2 -12l-11 -230q-1 -21 -22 -21h-104
q-10 0 -14 3.5t-7 14.5l-33 114q-78 23 -160 23q-121 0 -216 -66q-93 -65 -143 -175q-48 -108 -48 -238q0 -480 377 -480q84 0 180 19v286h-177q-35 0 -35 34v116q0 16 9 25.5t26 9.5z" />
    <glyph glyph-name="H" unicode="H" horiz-adv-x="1292" 
d="M193 1098l-113 37q-20 8 -20 26v104q0 20 25 20h312q35 0 35 -35v-527h482v532q0 30 25 30h190q25 0 25 -30v-1225q0 -30 -25 -30h-190q-25 0 -25 30v494h-482v-494q0 -30 -24 -30h-191q-24 0 -24 30v1068z" />
    <glyph glyph-name="I" unicode="I" horiz-adv-x="688" 
d="M464 187l133 -37q20 -6 20 -26v-104q0 -20 -25 -20h-496q-25 0 -25 20v104q0 20 20 26l133 37v911l-133 37q-20 6 -20 26v104q0 20 25 20h496q25 0 25 -20v-104q0 -20 -20 -26l-133 -37v-911z" />
    <glyph glyph-name="J" unicode="J" horiz-adv-x="711" 
d="M341 1088h-278q-36 0 -36 35v127q0 35 36 35h491q26 0 26 -30v-1207q0 -341 -306 -341q-64 0 -120 9q-53 7 -72 14q-13 4 -13 23l27 150q1 13 25 13h5q4 -1 14 -2.5t22 -2.5q45 -5 67 -5q50 0 81 29t31 88v1065z" />
    <glyph glyph-name="K" unicode="K" horiz-adv-x="1206" 
d="M433 753h35q45 0 71.5 12t45.5 40q22 32 52 107q11 28 50 135q24 64 65 123q43 60 97 86q65 30 230 30q21 0 27 -4.5t6 -19.5v-146q0 -18 -8.5 -23.5t-28.5 -5.5q-57 0 -91 -15q-19 -8 -34.5 -23.5t-31.5 -46t-23 -45.5t-24.5 -61t-20.5 -55q-44 -115 -121 -153
q66 -34 108.5 -104t78.5 -182q14 -42 21 -66q10 -24 27 -56q19 -35 37 -50q50 -43 125 -43q20 0 26 -6.5t6 -24.5v-141q0 -19 -23 -23q-16 -4 -44 -4q-130 0 -225 63q-106 73 -155 253q-30 104 -52 152q-17 38 -34 58q-43 50 -101 50h-91v-534q0 -30 -24 -30h-191
q-24 0 -24 30v1068l-113 37q-20 8 -20 26v104q0 20 25 20h312q35 0 35 -35v-497z" />
    <glyph glyph-name="L" unicode="L" horiz-adv-x="922" 
d="M377 1255v-1015q0 -24 12 -32.5t45 -8.5h255l42 114q8 20 26 20h106q20 0 21 -25v-283q0 -25 -20 -25h-562q-89 0 -126.5 30t-37.5 100v1125q0 30 24 30h191q24 0 24 -30z" />
    <glyph glyph-name="M" unicode="M" horiz-adv-x="1486" 
d="M653 334l-213 515q-48 118 -56 196h-12v-1015q0 -30 -24 -30h-197q-12 0 -19 10q-5 7 -5 20l59 1214q1 16 11 28.5t26 12.5h233q15 0 28 -10t18.5 -18.5t6.5 -12.5l225 -590q7 -22 15 -88l2 -18q0 4 2 21t7.5 42t11.5 43l229 603q13 28 47 28h227q16 0 27 -14t14 -29
q15 -374 43 -1212q0 -30 -25 -30h-190q-25 0 -25 30v1015h-6q-5 -67 -58 -196l-213 -515q-12 -30 -31 -30h-124q-14 0 -20.5 6t-13.5 24z" />
    <glyph glyph-name="N" unicode="N" horiz-adv-x="1330" 
d="M984 0q-40 0 -62 42l-418 737q-39 69 -67 159h-5v-908q0 -30 -24 -30h-191q-24 0 -24 30v1068l-113 37q-20 8 -20 26v104q0 20 25 20h325q28 0 41 -21l434 -765q40 -66 58 -128l6 -20h4v902q0 32 27 32h188q24 0 24 -30v-1215q0 -40 -41 -40h-167z" />
    <glyph glyph-name="O" unicode="O" horiz-adv-x="1218" 
d="M609 -24q-114 0 -216 34q-112 40 -189 138q-130 160 -133 510q0 144 31.5 261t95.5 205.5t168.5 136.5t242.5 48q136 0 241 -47.5t169 -137.5q128 -176 128 -466q0 -682 -538 -682zM322 646q0 -233 60 -348q28 -51 67 -80q38 -28 73.5 -37.5t86.5 -9.5t87 10t74 38
q40 30 66 80q60 115 60 347q0 172 -36 279q-19 60 -51 101q-69 88 -200 88q-191 0 -252 -189q-35 -112 -35 -279z" />
    <glyph glyph-name="P" unicode="P" horiz-adv-x="1059" 
d="M432 1099v-449h54q289 0 289 233q0 117 -61 168.5t-192 51.5q-21 0 -42 -1t-33.5 -2t-13.5 -1h-1zM432 461v-431q0 -30 -24 -30h-191q-24 0 -24 30v1068l-113 37q-20 8 -20 26v104q0 25 25 25h490q214 0 330 -98.5t116 -288.5q0 -218 -133 -330t-381 -112h-75z" />
    <glyph glyph-name="Q" unicode="Q" horiz-adv-x="1218" 
d="M593 -24q-114 0 -205 34q-111 43 -185 137q-131 168 -132 511q0 144 31.5 261t95.5 205.5t168.5 136.5t242.5 48q136 0 241 -47.5t169 -137.5q128 -176 128 -466q0 -522 -311 -645l290 -59q21 -6 21 -23q0 -1 -5 -23l-32 -113q-6 -21 -25 -21q-6 0 -8 1l-405 96
q-19 4 -19 32l5 74h-4q-3 0 -9 -0.5t-14 -0.5h-18h-20zM322 646q0 -233 60 -348q28 -51 67 -80q38 -28 73.5 -37.5t86.5 -9.5t87 10t74 38q40 30 66 80q60 115 60 347q0 172 -36 279q-19 60 -51 101q-69 88 -200 88q-191 0 -252 -189q-35 -112 -35 -279z" />
    <glyph glyph-name="R" unicode="R" horiz-adv-x="1197" 
d="M548 1105l-116 -3v-404h101q117 0 182.5 56t65.5 155q0 196 -233 196zM432 522v-492q0 -30 -24 -30h-191q-24 0 -24 30v1068l-113 37q-20 8 -20 26v107q0 20 25 20h489q230 0 346 -94.5t116 -275.5q0 -244 -247 -346q77 -51 108 -136q76 -197 137 -234q31 -17 76 -17
q38 0 38 -37v-116q0 -12 -1 -17t-5 -13.5t-15 -12t-30 -3.5q-162 0 -251 87q-78 78 -123 205q-40 115 -90 174q-58 70 -175 70h-26z" />
    <glyph glyph-name="S" unicode="S" horiz-adv-x="1049" 
d="M252 293l30 -105q112 -20 183 -20q124 0 194.5 50t70.5 151q-4 37 -10.5 59t-25.5 40l-12 12t-12.5 11.5t-12 8.5t-19.5 11q-6 3 -13.5 6.5t-12.5 6t-8 3.5q-9 5 -40 16t-40 14q-13 6 -44 15q-18 6 -45.5 15.5t-38.5 12.5q-40 15 -78 31q-71 32 -133 86q-85 78 -89 225
q0 369 435 369q201 0 349 -46q15 -4 22 -14q4 -7 4 -18l-11 -230q-2 -20 -21 -20h-105q-16 0 -21 17l-33 114q-55 9 -118 9q-128 0 -188.5 -40t-60.5 -131q0 -47 40 -83q21 -17 50 -31q28 -13 59 -25q51 -18 75 -26h1l1 -1h1h1l1 -1h1h1l1 -1h1h1l1 -1h2q156 -53 225 -96
q166 -107 168 -309q0 -199 -125 -300q-124 -100 -341 -100q-111 0 -206 13q-104 14 -144 26l-45 13q-12 5 -19 14q-5 8 -5 16l11 230q2 21 22 21h104q19 0 22 -18z" />
    <glyph glyph-name="T" unicode="T" horiz-adv-x="1040" 
d="M846 1086h-206v-899l133 -37q20 -6 20 -26v-104q0 -20 -25 -20h-496q-25 0 -25 20v104q0 20 20 26l133 37v899h-205l-31 -115q-5 -17 -22 -17h-104q-22 0 -22 20v287q0 24 29 24h951q28 0 28 -24v-287q0 -20 -21 -20h-104q-17 0 -22 17z" />
    <glyph glyph-name="U" unicode="U" horiz-adv-x="1252" 
d="M399 503q0 -155 64.5 -241.5t180.5 -86.5t184 87q69 87 69 241v752q0 30 24 30h191q24 0 24 -30v-750q0 -246 -134 -388q-134 -141 -360 -141q-225 0 -354 139q-128 140 -128 392v591l-113 37q-20 8 -20 26v104q0 20 25 20h314q33 0 33 -35v-747z" />
    <glyph glyph-name="V" unicode="V" horiz-adv-x="1223" 
d="M1211 1242q-79 -307 -198 -655q-119 -347 -225 -555q-7 -13 -21 -22.5t-28 -9.5h-196q-16 0 -29.5 10.5t-17.5 24.5l-351 1063l-111 37q-21 7 -21 26v101q0 23 26 23h286q39 0 48 -36l256 -914q15 -60 17 -91l2 -15q163 502 293 1020q5 17 19.5 26.5t28.5 9.5h188
q13 0 24.5 -9t11.5 -22q0 -2 -2 -12z" />
    <glyph glyph-name="W" unicode="W" horiz-adv-x="1806" 
d="M1029 1260l208 -961l11 -72q47 141 90 292q49 174 68 250q23 86 64 260q43 174 54 220q5 17 19 26.5t29 9.5h191q14 0 23.5 -8.5t9.5 -22.5q0 -2 -2 -12q-84 -328 -196 -675q-107 -334 -207 -535q-7 -13 -21.5 -22.5t-28.5 -9.5h-195q-39 0 -47 35l-148 641
q-18 -58 -59 -208q-45 -164 -81 -284q-39 -131 -50 -152q-20 -32 -47 -32h-199q-16 0 -29.5 11t-17.5 25l-323 1062l-111 37q-21 7 -21 26v104q0 20 26 20h285q15 0 29 -9.5t19 -26.5l225 -914l19 -106q29 86 242 861l-34 160q-2 10 -2 18q0 11 7.5 14t27.5 3h129
q36 0 43 -25z" />
    <glyph glyph-name="X" unicode="X" horiz-adv-x="1258" 
d="M890 24l-239 406q-6 -9 -49 -85q-31 -56 -60 -103q-28 -43 -58 -82q-66 -83 -143 -125t-199 -42q-28 0 -41 6q-14 5 -14 23l13 155q2 16 24 17q53 5 109 49q53 42 99 104q56 76 119 173l60 95q-36 60 -160 258q-37 59 -83 131.5t-56 88.5q-92 27 -132 42q-20 8 -20 26
v104q0 20 25 20h285q32 0 47 -29l69 -126.5t64 -117.5t38 -70q23 -41 37 -68q27 -47 28 -50l242 434q15 27 50 27h210q29 0 29 -18q0 -13 -10 -26l-388 -604q49 -76 166 -245q119 -170 240 -355q6 -11 6 -17q0 -20 -30 -20h-231q-35 0 -47 24z" />
    <glyph glyph-name="Y" unicode="Y" horiz-adv-x="1114" 
d="M288 560q-20 48 -40 126q-17 64 -46 201q-21 98 -47 209l-119 39q-20 8 -20 26v104q0 20 25 20h290q29 0 37 -30l8 -47q3 -19 12 -68.5t18 -99.5t17 -94q5 -29 15.5 -82t12.5 -63q13 -68 24 -103q25 -91 111 -91q71 0 115 2q16 77 33 157q8 40 20 95.5t15 71.5
q59 293 66 324q7 28 34 28h196q33 0 33 -24l-1 -6q-135 -579 -277 -1016q-46 -144 -134 -201q-88 -56 -250 -56q-60 0 -119 8q-57 8 -70 13q-13 4 -13 23l24 148q3 15 18 15l4 -1h4q56 -8 109 -8q57 0 94 5q33 6 66 27q32 21 53.5 63t43.5 120l7 25q-36 0 -70 -1t-74 -1
q-91 0 -143 34.5t-82 107.5z" />
    <glyph glyph-name="Z" unicode="Z" horiz-adv-x="1081" 
d="M250 1086l-43 -115q-6 -17 -23 -17h-103q-19 0 -21 20v283q0 12 4 19q6 9 22 9h844q39 0 39 -37v-132q0 -24 -12 -40l-620 -877h361q107 0 114 122q0 6 2 12t8.5 12t16.5 6h161q21 0 21 -27q-5 -188 -71 -256t-217 -68h-620q-50 0 -50 37v125q0 27 13 40l613 884h-439z
" />
    <glyph glyph-name="bracketleft" unicode="[" horiz-adv-x="662" 
d="M373 -110h203q30 0 30 -27v-122q0 -27 -30 -27h-381q-38 0 -38 40v1791q0 41 38 41h381q30 0 30 -25v-125q0 -26 -30 -26h-203v-1520z" />
    <glyph glyph-name="backslash" unicode="\" horiz-adv-x="797" 
d="M-4 1587h166q14 0 18 -16l578 -1831q3 -9 3 -13q0 -13 -20 -13h-153q-24 0 -28 16l-576 1833q-1 4 -2 9v3q0 12 14 12z" />
    <glyph glyph-name="bracketright" unicode="]" horiz-adv-x="662" 
d="M86 -110h203v1520h-203q-30 0 -30 26v125q0 25 30 25h381q38 0 38 -41v-1791q0 -40 -38 -40h-381q-30 0 -30 27v122q0 27 30 27z" />
    <glyph glyph-name="asciicircum" unicode="^" horiz-adv-x="872" 
d="M327 1366h218q19 0 26 -12l228 -465q2 -6 2 -7q0 -17 -13 -17h-174q-20 0 -26 13l-153 307l-151 -307q-6 -13 -26 -13h-174q-13 0 -13 17q0 1 2 7l228 465q7 12 26 12z" />
    <glyph glyph-name="underscore" unicode="_" horiz-adv-x="989" 
d="M943 -286h-897q-30 0 -30 24v128q0 24 30 24h897q30 0 30 -24v-128q0 -24 -30 -24z" />
    <glyph glyph-name="grave" unicode="`" horiz-adv-x="571" 
d="M311 1107l-197 179q-37 34 -37 51q0 14 28 14h194q18 0 30 -7t28 -28l148 -189q7 -7 7 -19q0 -16 -20 -16h-144q-21 0 -37 15z" />
    <glyph glyph-name="a" unicode="a" horiz-adv-x="962" 
d="M589 246v155h-32q-40 0 -53 -1q-18 0 -52 -3q-54 -4 -98 -21q-66 -24 -72 -105q0 -56 35 -86.5t92 -30.5q49 0 99.5 25.5t80.5 66.5zM148 904q164 70 307 70q247 0 325 -182q33 -75 33 -254v-398l98 -23q13 -3 13 -18v-72q0 -23 -23 -25l-252 -12q-8 0 -14 2
q-11 4 -12 18l-15 106q-45 -66 -116.5 -103t-150.5 -37q-116 0 -198 73q-83 74 -83 203q0 116 53 186q44 59 137 90q77 25 181 27q54 2 96 2h62v45q0 95 -45 142t-148 47q-73 0 -220 -48q-6 -2 -12 -2q-17 0 -19 11l-22 126q0 8 3 12q4 6 22 14z" />
    <glyph glyph-name="b" unicode="b" horiz-adv-x="1117" 
d="M163 51v1198l-107 25q-18 4 -18 21v88q0 25 27 26l300 20q13 0 22.5 -9.5t9.5 -22.5v-490q0 -27 -2 -49q134 116 276 116q238 0 326 -208q49 -116 49 -283q0 -233 -128 -370t-333 -137q-89 0 -193 19q-110 19 -167 37zM815 493q0 88 -25 159q-12 39 -37 74
q-24 34 -64.5 54.5t-90.5 21.5q-104 2 -201 -102v-513l52 -11q55 -9 111 -9q119 0 187 84.5t68 241.5z" />
    <glyph glyph-name="c" unicode="c" horiz-adv-x="908" 
d="M649 779q-49 9 -104 9q-112 0 -172.5 -80t-60.5 -223q0 -183 106 -276q56 -49 137 -49q107 0 233 39q17 5 21 5q14 0 17 -14q22 -141 22 -145q0 -16 -12 -20q-6 -2 -40 -14q-26 -8 -100 -21q-76 -14 -143 -14q-236 0 -359 130t-123 375q0 221 123 356q124 136 342 136
q78 0 187 -23q65 -14 81 -22q17 -8 17 -26l-12 -227q-2 -20 -20 -20h-72q-19 0 -22 12l-26 108q-13 3 -20 4z" />
    <glyph glyph-name="d" unicode="d" horiz-adv-x="1108" 
d="M302 465v-8q0 -104 40 -194q22 -49 68.5 -80t110.5 -35q108 3 203 102v513q-69 20 -167 20q-121 0 -188 -81t-67 -237zM724 1014v235l-108 25q-17 5 -17 22v87q0 24 26 26l301 20q13 0 22 -9.5t9 -22.5v-1261l86 -20q16 -4 16 -22v-71q0 -22 -25 -23l-257 -13q-9 0 -13 3
q-6 4 -11 19l-23 85q-133 -118 -283 -118q-239 0 -327 213q-49 120 -49 286q0 231 128 365t335 134q95 0 192 -17q-2 22 -2 57z" />
    <glyph glyph-name="e" unicode="e" horiz-adv-x="956" 
d="M889 456q0 -29 -29 -29h-564q7 -136 78.5 -200.5t213.5 -64.5q96 0 226 45l8 2q18 0 21 -24l19 -132q0 -16 -16 -22q-137 -55 -305 -55q-225 0 -348 130q-122 131 -122 365q0 304 188 435q98 68 232 68q211 0 304 -127q94 -125 94 -391zM501 800q-83 0 -132 -57
q-48 -54 -65 -141h363q-6 96 -48.5 147t-117.5 51z" />
    <glyph glyph-name="f" unicode="f" horiz-adv-x="678" 
d="M415 950h210q31 0 31 -24v-126q0 -24 -31 -24h-210v-746q0 -30 -24 -30h-185q-24 0 -24 31v745h-124q-31 0 -31 24v126q0 24 31 24h124v169q0 314 278 314q98 0 194 -31q16 -4 16 -24v-138q0 -17 -14 -17q-85 17 -127 17q-37 0 -57 -10q-26 -10 -40.5 -39.5t-16.5 -100.5
v-140z" />
    <glyph glyph-name="g" unicode="g" horiz-adv-x="1046" 
d="M302 463q0 -116 46 -208q25 -49 70.5 -77.5t106.5 -28.5q100 0 183 89v517q-76 21 -147 21q-124 0 -191.5 -77.5t-67.5 -235.5zM930 881v-767q0 -153 -20 -254q-23 -114 -89 -189q-103 -120 -355 -120q-182 0 -299 49q-15 8 -15 20v161q0 15 16 15q1 0 9 -2
q117 -48 245 -48q172 0 230 68q30 35 42.5 81t12.5 119v56q-68 -51 -128.5 -72.5t-131.5 -21.5q-101 0 -176.5 40t-118.5 112q-81 139 -81 343q0 233 126 368q127 135 333 135q154 0 370 -59q30 -9 30 -34z" />
    <glyph glyph-name="h" unicode="h" horiz-adv-x="1127" 
d="M1064 3l-298 -12q-10 0 -17 7.5t-7 18.5v596q0 83 -33.5 126.5t-96.5 43.5q-58 0 -115.5 -30t-99.5 -85v-638q0 -30 -25 -30h-184q-25 0 -25 30v1219l-107 25q-18 4 -18 22v87q0 25 27 26l300 20q13 0 22.5 -9.5t9.5 -22.5v-490q0 -54 -4 -75q148 142 319 142
q125 0 194.5 -75t69.5 -207v-548l98 -25q15 -4 15 -22v-71q0 -22 -25 -23z" />
    <glyph glyph-name="i" unicode="i" horiz-adv-x="563" 
d="M401 159l118 -24q17 -5 17 -21v-89q0 -23 -27 -25l-310 -24q-13 0 -22.5 9.5t-9.5 22.5v774l-107 25q-18 5 -18 22v87q0 24 27 26l300 20q14 0 23 -9.5t9 -23.5v-770zM271 1321q60 0 94 -32.5t34 -89.5t-34 -89.5t-94 -32.5t-93.5 32.5t-33.5 89.5t33.5 89.5t93.5 32.5z
" />
    <glyph glyph-name="j" unicode="j" horiz-adv-x="593" 
d="M221 782l-107 25q-18 5 -18 23v86q0 24 27 26l300 20q14 0 23 -9.5t9 -23.5v-992q0 -107 -18 -174q-18 -78 -75 -132q-87 -84 -295 -84q-16 0 -23 1t-13 6t-8 16v144q0 23 18 23q73 2 120 27q60 29 60 118v900zM323 1321q60 0 94 -32.5t34 -89.5t-34 -89.5t-94 -32.5
t-93.5 32.5t-33.5 89.5t33.5 89.5t93.5 32.5z" />
    <glyph glyph-name="k" unicode="k" horiz-adv-x="1038" 
d="M393 609h50q44 4 76 53q15 21 39 66q5 9 10.5 19.5t6.5 12.5q23 40 28 49q7 12 27 40q11 17 23 28.5t18.5 16.5t27.5 19q32 21 74.5 29t117.5 10h51q22 0 22 -21v-153q0 -19 -26 -19q-2 0 -13.5 0.5t-15.5 0.5q-39 0 -85 -17q-10 -3 -29 -22q-18 -18 -21 -22
q-3 -3 -21 -29q-16 -24 -17 -26q-48 -70 -87 -93l-12 -7q51 -31 81 -73q28 -40 69 -128q19 -41 30 -61q13 -21 30 -44q36 -45 110 -53q21 -1 21 -30v-142q0 -15 -11 -20.5t-42 -5.5q-115 0 -186.5 49t-115.5 149q-22 50 -23 52t-8.5 18t-12.5 28q-8 18 -22 43q-10 17 -21 35
q-15 25 -45 52q-22 19 -53 19h-41v-402q0 -30 -25 -30h-184q-25 0 -25 30v1219l-107 25q-18 4 -18 21v88q0 25 27 26l300 20q13 0 22.5 -9.5t9.5 -22.5v-711q0 -56 -4 -77z" />
    <glyph glyph-name="l" unicode="l" horiz-adv-x="619" 
d="M379 1397v-1086q0 -104 74 -132q35 -12 89 -12h35q16 0 17 -16l9 -138q0 -21 -14 -24q-71 -10 -172 -10q-162 0 -221 96q-51 87 -51 233v941l-107 25q-18 4 -18 22v87q0 25 27 26l300 20q13 0 22.5 -9.5t9.5 -22.5z" />
    <glyph glyph-name="m" unicode="m" horiz-adv-x="1679" 
d="M1528 144l98 -25q15 -4 15 -22v-71q0 -22 -24 -23l-302 -12q-21 0 -21 26v602q0 171 -126 171q-112 0 -206 -120v-640q0 -30 -24 -30h-185q-24 0 -24 30v589q0 171 -125 171q-112 0 -207 -120v-640q0 -30 -25 -30h-184q-25 0 -25 30v750l-107 25q-18 5 -18 22v93
q0 24 27 26l274 16q27 0 31 -33l17 -109q155 154 316 154q90 0 152 -41.5t89 -116.5q158 158 325 158q122 0 190.5 -73.5t68.5 -203.5v-553z" />
    <glyph glyph-name="n" unicode="n" horiz-adv-x="1122" 
d="M971 144l98 -25q15 -4 15 -22v-71q0 -22 -25 -23l-296 -12q-14 0 -20 8q-6 7 -6 18v602q0 171 -126 171q-55 0 -112.5 -32t-101.5 -88v-640q0 -30 -25 -30h-184q-25 0 -25 30v750l-107 25q-18 5 -18 23v91q0 25 27 26l274 17q27 0 31 -33l17 -109q155 154 324 154
q123 0 191.5 -73.5t68.5 -203.5v-553z" />
    <glyph glyph-name="o" unicode="o" horiz-adv-x="1058" 
d="M71 473q0 326 193 439q105 62 264 62q136 0 242 -55q63 -32 110 -87q48 -56 77.5 -150.5t29.5 -212.5q0 -227 -120 -361q-119 -132 -348 -132q-226 0 -337 133q-111 134 -111 364zM746 463q0 229 -104 298q-51 33 -121 33q-111 2 -165 -87q-44 -79 -44 -240
q0 -313 212 -313q109 0 165.5 81t56.5 228z" />
    <glyph glyph-name="p" unicode="p" horiz-adv-x="1117" 
d="M815 492q0 114 -47 207q-25 48 -70.5 76t-104.5 28q-103 0 -196 -99v-518q61 -21 162 -21q119 0 187.5 85t68.5 242zM391 -9q6 -48 6 -54v-331q0 -30 -25 -30h-184q-25 0 -25 30v1174l-107 25q-18 5 -18 21v94q0 24 27 26l276 16q28 0 34 -25l17 -75q131 113 277 113
q240 0 327 -210q50 -115 50 -283q0 -234 -129 -370q-129 -137 -335 -137q-121 0 -191 16z" />
    <glyph glyph-name="q" unicode="q" horiz-adv-x="1066" 
d="M914 912q36 -10 36 -33v-1271q0 -30 -24 -30h-185q-24 0 -24 30v435l3 49q-139 -116 -273 -116q-239 0 -327 212q-49 118 -49 285q0 234 127 367q128 134 334 134q166 0 382 -62zM302 463q0 -117 46 -209q25 -49 70.5 -77.5t105.5 -28.5q100 0 195 102v513l-3 1
q-76 19 -159 19q-121 0 -188 -82t-67 -238z" />
    <glyph glyph-name="r" unicode="r" horiz-adv-x="730" 
d="M369 930l18 -114q42 82 98 120t134 38q37 0 86 -9q15 -1 15 -16l-27 -190q-1 -10 -12 -10q-4 0 -12 2q-43 13 -91 13q-66 0 -107.5 -36t-67.5 -119v-579q0 -30 -25 -30h-184q-25 0 -25 30v748l-113 26q-18 4 -18 21v93q0 24 27 26l273 18q26 0 31 -32z" />
    <glyph glyph-name="s" unicode="s" horiz-adv-x="881" 
d="M211 283l21 -102l4 -1q56 -28 203 -28q76 0 121 29.5t45 82.5q0 49 -63 76q-32 13 -59 21q-30 9 -79 20q-80 19 -126 37q-48 19 -93 53q-84 66 -84 214q0 76 29 133t79.5 90t111.5 49t131 16q173 0 314 -49q20 -8 20 -28l-12 -201q-2 -18 -20 -18h-74q-16 0 -19 14
l-24 98l-2 1q-3 0 -22.5 3t-51 5.5t-61.5 2.5q-190 0 -190 -103q0 -26 17.5 -45.5t51 -34t69 -25t86 -26t86.5 -30.5q201 -75 201 -263q0 -64 -20 -115.5t-54 -85t-80.5 -56t-96 -32t-104.5 -9.5q-92 0 -180 13q-89 13 -137 27l-46 13q-15 5 -19 16q-2 6 -2 17l13 213
q1 19 22 19h77q15 0 17 -11z" />
    <glyph glyph-name="t" unicode="t" horiz-adv-x="710" 
d="M614 776h-210v-506q0 -102 123 -102q25 0 64 3.5t43 3.5q26 0 27 -21l11 -143q0 -17 -15 -19q-108 -18 -182 -18q-304 0 -304 296v506h-124q-31 0 -31 24v126q0 24 31 24h124v183q0 30 24 30h185q24 0 24 -30v-183h210q31 0 31 -24v-126q0 -24 -31 -24z" />
    <glyph glyph-name="u" unicode="u" horiz-adv-x="1099" 
d="M148 254l3 525l-106 25q-18 4 -18 21v92q0 25 27 26l299 20q12 0 21.5 -9.5t9.5 -23.5v-603q0 -171 124 -171q112 0 211 112v651q0 31 24 31h185q24 0 24 -31v-781l93 -22q16 -4 16 -22v-71q0 -22 -25 -23l-257 -13q-6 0 -12 3q-9 6 -12 19l-25 111q-157 -148 -323 -148
q-120 0 -190 79q-69 79 -69 203z" />
    <glyph glyph-name="v" unicode="v" horiz-adv-x="1016" 
d="M751 919q1 10 2.5 15.5t7 10.5t14.5 5h206q26 0 26 -24q-22 -164 -121 -432q-98 -266 -204 -464q-16 -30 -53 -30h-202q-32 0 -39 25l-239 746l-122 27q-17 5 -17 21v88q0 23 27 26l294 29q24 0 32 -32q94 -365 158 -646l24 -116q167 468 206 751z" />
    <glyph glyph-name="w" unicode="w" horiz-adv-x="1484" 
d="M684 786l-32 149q0 15 31 15h172q30 0 34 -25l124 -647q7 -35 9 -92v-18q168 470 195 751q1 10 2.5 15.5t7 10.5t14.5 5h208q26 0 26 -23q-22 -170 -118 -436q-91 -254 -202 -461q-17 -30 -53 -30h-166q-33 0 -40 25l-118 478l-135 -473q-7 -30 -53 -30h-162
q-32 0 -39 25l-240 749l-122 27q-17 5 -17 21v86q0 23 27 26l290 29q27 0 35 -29q47 -173 155 -656q1 -7 3 -51l4 -59q13 64 25 110z" />
    <glyph glyph-name="x" unicode="x" horiz-adv-x="1024" 
d="M193 783l-112 25q-18 4 -18 21v88q0 25 27 26l237 19q15 0 23 -6t21 -25l179 -277l172 279q10 18 35 18h215q25 0 25 -16q0 -11 -7 -19l-318 -441l11 -16l292 -426q4 -4 4 -13q0 -20 -20 -20h-217q-24 0 -34 18l-171 282l-15 -22l-39 -60q-17 -25 -38 -53
q-23 -33 -41 -51q-6 -6 -21.5 -20t-22.5 -21q-35 -33 -108 -62q-58 -23 -149 -23q-27 0 -35 4.5t-8 20.5l10 143q0 22 22 25q70 8 136 67.5t151 183.5l25 37z" />
    <glyph glyph-name="y" unicode="y" horiz-adv-x="1091" 
d="M371 921l43 -209q52 -251 127 -479q6 -19 25 -31.5t42 -13.5q44 98 110 324q64 219 99 417q2 12 7.5 16.5t20.5 4.5h208q26 0 26 -22q0 -1 -2 -11q-85 -301 -237 -699q-78 -202 -160 -360q-84 -163 -150 -221q-97 -86 -246 -86q-54 0 -129 8q-21 3 -21 22l13 149
q1 18 21 18h60q70 0 104.5 7.5t57.5 29.5q52 46 132 215q-58 4 -95 31t-67 83q-46 90 -82 210q-45 149 -125 446l-120 27q-18 5 -18 21v88q0 23 27 26l294 29q25 0 35 -40z" />
    <glyph glyph-name="z" unicode="z" horiz-adv-x="898" 
d="M871 287q-3 -164 -66 -226q-62 -61 -211 -61h-474q-15 0 -24 8t-9 18v141q0 20 13 41l5 5l451 540h-323l-38 -99q-5 -15 -19 -15h-74q-19 0 -20 19l-11 267q0 25 25 25h685q29 0 29 -27v-149q0 -20 -10 -30l-3 -5l-453 -548h241q54 0 73.5 22.5t19.5 73.5q0 31 25 31h144
q24 0 24 -31z" />
    <glyph glyph-name="braceleft" unicode="{" horiz-adv-x="869" 
d="M349 639v-4q93 -36 136 -101t43 -173v-316q0 -57 7.5 -87t27.5 -44q22 -16 47 -19q23 -4 75 -4h45q19 0 25.5 -5.5t6.5 -18.5v-129q0 -24 -24 -24h-89q-95 0 -151.5 10.5t-100.5 38.5q-85 52 -85 221v343q0 109 -45.5 159t-155.5 57q-35 1 -35 23v140q0 23 35 24
q113 8 156 57q45 49 45 157v353q0 167 88 220q46 27 102.5 37.5t146.5 10.5h89q24 0 24 -24v-125q0 -14 -6 -19t-25 -5h-34q-54 0 -80 -5t-49 -21q-40 -27 -40 -138v-317q0 -107 -42.5 -171t-136.5 -101z" />
    <glyph glyph-name="bar" unicode="|" horiz-adv-x="496" 
d="M341 1547v-1794q0 -14 -1.5 -21t-8 -12.5t-20.5 -5.5h-128q-13 0 -19.5 5.5t-7.5 12t-1 21.5v1794q0 15 1 21.5t7.5 12t19.5 5.5h128q19 0 24.5 -8t5.5 -31z" />
    <glyph glyph-name="braceright" unicode="}" horiz-adv-x="869" 
d="M520 640v4q-93 36 -136 101t-43 173v316q0 57 -7.5 87t-28.5 44q-20 15 -43.5 19t-77.5 4h-43q-20 0 -27 5.5t-7 18.5v129q0 24 24 24h89q95 0 151.5 -10.5t99.5 -38.5q86 -52 86 -221v-343q0 -109 45.5 -159t155.5 -57q35 -1 35 -23v-140q0 -23 -35 -24
q-112 -7 -157 -57q-44 -50 -44 -157v-353q0 -168 -89 -220q-45 -27 -101.5 -37.5t-146.5 -10.5h-89q-24 0 -24 24v125q0 13 6.5 18.5t26.5 5.5h32q54 0 80 5t48 21q23 15 32 47t9 91v317q0 107 42.5 171t136.5 101z" />
    <glyph glyph-name="asciitilde" unicode="~" horiz-adv-x="1149" 
d="M55 475q39 97 117.5 150t187.5 53q76 0 152 -36q35 -17 72 -37q101 -55 147 -55q90 0 160 133q5 8 13 8l5 -1q5 -2 6 -2l151 -53q9 -5 9 -16q0 -1 -2 -9q-50 -120 -133 -180.5t-210 -60.5q-111 0 -247 76q-89 50 -124 50q-74 -2 -131 -102q-7 -10 -16 -10l-8 2l-142 57
q-10 4 -10 19q0 7 3 14z" />
    <glyph glyph-name="exclamdown" unicode="&#xa1;" horiz-adv-x="532" 
d="M111 -366l34 850q1 22 22 22h169q18 0 19 -24l36 -847q0 -22 -21 -22h-236q-17 0 -21 7q-2 4 -2 14zM253 922q66 0 108 -40.5t42 -106.5q0 -63 -44 -109q-44 -44 -106 -44q-64 0 -108 44q-42 44 -42 109q0 66 41.5 106.5t108.5 40.5z" />
    <glyph glyph-name="cent" unicode="&#xa2;" horiz-adv-x="952" 
d="M599 -160h-67q-15 0 -20 6.5t-5 23.5v133q-210 13 -323 142t-113 355q0 209 115 336q116 129 321 139v130q0 16 5 22.5t19 6.5h71q19 0 24 -5.5t5 -23.5v-132q161 -13 247 -41q14 -5 14 -17l-11 -219q-1 -24 -20 -24h-75q-14 0 -19 15l-23 93q1 0 -16 1.5t-45.5 4
t-51.5 4.5v-603q105 7 197 31l23 6q13 0 15 -12l24 -152q0 -11 -12 -14q-120 -32 -247 -42v-134q0 -18 -5.5 -24t-26.5 -6zM311 504q0 -110 51 -199q52 -90 145 -112v597q-94 -16 -145 -90t-51 -196z" />
    <glyph glyph-name="sterling" unicode="&#xa3;" horiz-adv-x="1057" 
d="M106 431q-24 0 -24 23v99q0 25 24 25h94q0 6 5 109h-99q-9 0 -16.5 6t-7.5 16v100q0 12 7.5 18t16.5 6h104q12 166 64 280q62 132 225 176q68 17 133 17q151 0 274 -50q24 -10 26 -30l-11 -231q-1 -21 -21 -21h-105q-10 0 -14 3.5t-7 14.5l-33 114q-50 10 -83 10
q-120 0 -170 -87q-40 -71 -51 -196h287q11 0 20 -6.5t9 -17.5v-100q0 -10 -7.5 -16t-16.5 -6h-296q0 -59 -2 -109h298q10 0 17 -6.5t7 -18.5v-99q0 -11 -7.5 -17t-16.5 -6h-311q-21 -152 -64 -242h333q56 0 83 36.5t27 99.5q0 30 22 30h157q21 0 21 -27q-5 -129 -37 -200
t-91 -99t-161 -29h-587q-49 0 -49 37v85q0 26 13 39q68 89 98 270h-77z" />
    <glyph glyph-name="currency" unicode="&#xa4;" horiz-adv-x="1106" 
d="M956 665q0 -146 -49 -243l151 -152q10 -11 10 -16q0 -6 -9 -15l-111 -112q-7 -7 -13 -7q-8 0 -19 11l-146 148q-91 -50 -215 -50q-133 0 -220 48l-145 -147q-9 -9 -18 -9q-8 0 -15 7l-108 107q-11 9 -11 19q0 5 13 18l149 150q-46 93 -46 242q0 147 46 240l-149 150
q-13 13 -13 19q0 8 11 17l108 108q7 7 15 7q9 0 18 -9l145 -147q87 48 220 48q124 0 215 -50l146 148q11 11 19 11q6 0 13 -7l111 -112q9 -9 9 -15q0 -5 -10 -16l-151 -152q47 -93 49 -239zM549 940q-40 0 -68.5 -10t-56.5 -36q-59 -57 -59 -231t59 -231q28 -26 56.5 -36
t68.5 -10q196 0 196 279q0 191 -91 247q-42 28 -105 28z" />
    <glyph glyph-name="yen" unicode="&#xa5;" horiz-adv-x="1246" 
d="M249 372q0 24 24 24h265l-59 131h-207q-23 0 -23 22v100q0 24 23 24h138l-214 423l-133 39q-21 6 -21 26v101q0 23 26 23h283q23 0 36 -25q54 -104 101 -208q51 -109 81 -182q29 -69 87 -213l5 -13l4 13q77 194 86 215q43 103 80 182q45 99 103 206q15 25 35 25h206
q33 0 33 -19q0 -8 -6 -21l-292 -572h147q12 0 21 -6.5t9 -17.5v-100q0 -22 -25 -22h-221l-60 -131h283q24 0 24 -24v-99q0 -11 -7.5 -17t-16.5 -6h-284v-220q0 -30 -24 -30h-192q-24 0 -24 30v220h-267q-24 0 -24 23v99z" />
    <glyph glyph-name="brokenbar" unicode="&#xa6;" horiz-adv-x="496" 
d="M341 1545v-673q0 -15 -1.5 -22.5t-8 -13t-20.5 -5.5h-128q-13 0 -19.5 6t-7.5 12.5t-1 22.5v673q0 23 4.5 30.5t23.5 10.5h128q19 0 24.5 -8.5t5.5 -32.5zM341 428v-673q0 -15 -1.5 -22.5t-8 -13t-20.5 -5.5h-128q-13 0 -19.5 6t-7.5 12.5t-1 22.5v673q0 23 4.5 30.5
t23.5 10.5h128q19 0 24.5 -8.5t5.5 -32.5z" />
    <glyph glyph-name="section" unicode="&#xa7;" horiz-adv-x="910" 
d="M357 738q-61 -56 -69 -123q3 -76 99 -130q17 -10 113 -51l51 -21q63 60 70 121q0 60 -49.5 99.5t-159.5 80.5q-33 14 -55 24zM242 112l23 -97q51 -22 134 -22q114 0 168 49q31 28 31 72q0 42 -37 79q-13 13 -45 30q-40 21 -51 26q-21 10 -61 26l-66 27q-15 7 -61 30
q-61 32 -108 78q-70 67 -76 195q0 58 29.5 116.5t74.5 100.5q-86 78 -86 207q8 91 61 157t134 95t180 29q139 0 265 -38q21 -6 21 -26l-13 -204q-2 -17 -20 -17h-74q-16 0 -19 13l-24 94q-24 6 -48 8q-20 5 -65 5q-82 2 -139.5 -27t-58.5 -87q0 -49 42 -83t134 -68
q51 -19 65 -25q27 -10 64 -28q37 -16 64 -35q28 -19 53 -43q78 -71 84 -202q0 -135 -102 -224q88 -85 88 -229q0 -72 -32 -126.5t-86.5 -85t-120 -45.5t-140.5 -15q-151 0 -289 55q-20 8 -20 27l12 204q1 18 21 18h73q18 0 21 -14z" />
    <glyph glyph-name="dieresis" unicode="&#xa8;" horiz-adv-x="691" 
d="M46 1195q0 51 29 78t83 27q53 0 82.5 -27.5t29.5 -77.5q0 -49 -30 -77.5t-82 -28.5q-54 0 -83 28t-29 78zM421 1195q0 50 29 77.5t84 27.5q53 0 82 -27.5t29 -77.5q0 -49 -29.5 -77.5t-81.5 -28.5q-54 0 -83.5 28.5t-29.5 77.5z" />
    <glyph glyph-name="copyright" unicode="&#xa9;" horiz-adv-x="1210" 
d="M782 591h-61q-7 0 -12 14l-22 60q-21 3 -58 3q-61 0 -95.5 -46.5t-34.5 -126.5q0 -169 139 -169q53 0 127 25q15 6 24 6q8 0 11 -13l13 -72q2 -14 2 -15q0 -7 -4 -10q-18 -16 -62 -30q-66 -22 -119 -22q-139 0 -213 78t-74 222q0 137 76 220q76 85 202 85q80 0 164 -28
l6 -2q17 -6 17 -21l-15 -143q-1 -15 -11 -15zM604 -47q-231 0 -385 151q-153 152 -153 385q0 232 154 383q155 152 386 152q151 0 274 -69q122 -67 193 -191t71 -275q0 -234 -154 -385t-386 -151zM606 73q173 0 291 116q117 117 117 300q0 179 -117 298q-115 118 -293 118
q-175 0 -292 -118q-116 -119 -116 -298q0 -183 117 -300q118 -116 293 -116z" />
    <glyph glyph-name="ordfeminine" unicode="&#xaa;" horiz-adv-x="622" 
d="M366 859l-1 91h-16q-64 0 -105 -10q-56 -14 -56 -66q0 -32 20 -49.5t53 -17.5q29 0 58.5 14.5t46.5 37.5zM96 1141q-2 -1 -7 -1q-9 0 -9 10l4 100q0 11 11 16q93 41 175 41q118 0 183.5 -56.5t65.5 -167.5v-289l63 -16q7 -1 7 -11v-52q0 -13 -14 -15q-48 -2 -91 -4
t-61 -3t-19 -1q-13 0 -15 14l-9 51q-61 -74 -158 -74q-73 0 -128 47q-54 48 -54 132q4 79 37 122t96 59t164 16h27v20q0 50 -27 73.5t-88 23.5q-51 0 -153 -35z" />
    <glyph glyph-name="guillemotleft" unicode="&#xab;" horiz-adv-x="1022" 
d="M487 710l-184 -247l187 -253q10 -11 10 -20q0 -6 -3 -10l-77 -127q-5 -8 -13 -8q-6 0 -10 4l-304 315q-11 14 -11 32v135q0 18 14 32l299 313q5 5 12 5t11 -6l78 -129q4 -5 4 -10q0 -9 -13 -26zM927 710l-184 -247l187 -253q10 -11 10 -19q0 -5 -3 -11l-77 -127
q-5 -8 -13 -8q-6 0 -10 4l-304 315q-11 14 -11 32v135q0 18 14 32l299 313q5 5 12 5t11 -6l78 -129q4 -5 4 -10q0 -9 -13 -26z" />
    <glyph glyph-name="logicalnot" unicode="&#xac;" horiz-adv-x="1096" 
d="M958 277h-167q-20 0 -20 23v324h-629q-16 0 -21 4t-5 18v155q0 21 24 21h820q12 0 16 -5t4 -18v-497q0 -16 -4 -20.5t-18 -4.5z" />
    <glyph glyph-name="registered" unicode="&#xae;" horiz-adv-x="974" 
d="M478 1043h-30v-104h25q36 0 56.5 15.5t20.5 40.5q0 48 -72 48zM775 1188q116 -116 116 -286t-117 -286q-116 -116 -285 -116q-168 0 -286 116q-116 116 -116 286t116 286t286 116t286 -116zM432 679h-79q-9 0 -9 12v365l-28 9q-10 3 -10 11v42q0 13 11 13h170
q86 0 130.5 -34.5t44.5 -98.5q0 -76 -86 -112q28 -20 42 -48q22 -43 30 -52q9 -9 34 -20q11 -6 11 -9t-1 -5l-22 -63q-3 -10 -10 -10l-6 1q-55 11 -78 31q-25 22 -44 69q-30 71 -87 71h-4v-160q0 -12 -9 -12zM796 902q0 131 -89 222q-89 90 -218 90q-131 0 -219 -90
q-88 -89 -88 -222q0 -131 88 -222q88 -90 219 -90q129 0 218 90q89 92 89 222z" />
    <glyph glyph-name="overscore" unicode="&#xaf;" horiz-adv-x="622" 
d="M95 1120v112q0 12 8.5 19t19.5 7h376q30 0 30 -24v-116q0 -26 -28 -26h-376q-30 0 -30 28z" />
    <glyph glyph-name="degree" unicode="&#xb0;" horiz-adv-x="673" 
d="M205 1019q0 -60 37 -99.5t94 -39.5q58 0 95 40q38 41 38 99t-38 99q-37 40 -95 40q-57 0 -94 -40t-37 -99zM629 1018q0 -120 -85 -205q-86 -84 -206 -84q-123 0 -209 83q-85 82 -85 206q0 122 86 206q85 85 208 85q119 0 204 -85q87 -84 87 -206z" />
    <glyph glyph-name="plusminus" unicode="&#xb1;" horiz-adv-x="979" 
d="M840 115h-698q-16 0 -21 4t-5 18v155q0 21 24 21h698q15 0 20 -4.5t5 -14.5v-159q0 -13 -4.5 -16.5t-18.5 -3.5zM592 688v-245q0 -16 -4 -20.5t-19 -4.5h-161q-21 0 -21 23v247h-245q-16 0 -21 4t-5 18v150q0 21 24 21h247v246q0 15 4 20t16 5h164q14 0 17.5 -4.5
t3.5 -17.5v-249h246q15 0 20 -4t5 -15v-154q0 -12 -5 -16t-18 -4h-248z" />
    <glyph glyph-name="twosuperior" unicode="&#xb2;" horiz-adv-x="707" 
d="M507 794l10 44q4 22 21 22h63q22 0 23 -26l12 -159q0 -29 -26 -29h-513q-16 0 -21 9.5t-5 32.5q0 105 74 196q54 65 153 144q70 55 103.5 97t33.5 82q0 41 -28 64t-69 23q-70 0 -99 -86q-8 -24 -17 -26q-5 0 -8 1l-127 32q-13 4 -13 12q0 9 1 12q13 87 82 149
q70 62 180 62q117 0 196 -64q80 -63 80 -169q0 -99 -48 -168q-46 -67 -148 -137q-111 -77 -131 -118h221z" />
    <glyph glyph-name="threesuperior" unicode="&#xb3;" horiz-adv-x="654" 
d="M307 1291h-207q-18 0 -18 19v103q0 20 18 20h440q34 0 34 -22q0 -7 -6 -18q-58 -85 -161 -241q-10 -15 -11 -16q72 -11 128 -55q70 -52 70 -162q0 -116 -86.5 -201t-247.5 -85q-37 0 -89 7q-54 7 -88 17q-13 3 -13 16q0 5 1 8l18 99q1 13 16 13h4q88 -11 120 -11
q114 0 153 53q31 42 31 76q0 92 -156 92h-86q-25 0 -25 21q0 13 15 37z" />
    <glyph glyph-name="acute" unicode="&#xb4;" horiz-adv-x="571" 
d="M479 1298l-208 -191q-18 -15 -38 -15h-144q-20 0 -20 16q0 12 7 19l148 189q16 21 28 28t30 7h194q56 0 3 -53z" />
    <glyph glyph-name="mu" unicode="&#xb5;" horiz-adv-x="1222" 
d="M417 929l1 -604q19 -75 65.5 -109.5t129.5 -34.5q64 0 117 41q51 39 71 99v597q0 31 25 31h184q24 0 24 -31v-557q0 -76 36.5 -123t95.5 -56q19 -3 19 -23l-22 -170q-2 -17 -20 -17q-52 0 -101.5 19t-82.5 50q-44 44 -59 93q-95 -158 -287 -158q-117 0 -197 59v-26
q0 -304 21 -409q0 -21 -21 -21h-196q-16 0 -20 13q-16 45 -16 342v844l-106 25q-18 5 -18 21v92q0 24 27 26l299 20q12 0 21.5 -9.5t9.5 -23.5z" />
    <glyph glyph-name="paragraph" unicode="&#xb6;" horiz-adv-x="1447" 
d="M1229 1130v-1485q0 -31 -25 -31h-181q-12 0 -20.5 9.5t-8.5 21.5v1485h-163v-1485q0 -31 -25 -31h-185q-25 0 -25 31v657q-42 -2 -61 -2q-140 0 -250 50q-71 32 -123 84q-54 55 -87.5 151t-33.5 217q0 217 139 350t370 133h795q18 0 25 -5t7 -19v-73q0 -28 -18 -33z
M541 454q34 0 56 2v674q-3 1 -43 1q-147 0 -228 -91q-80 -91 -80 -241q0 -163 74 -250q32 -36 74 -59q71 -36 147 -36z" />
    <glyph glyph-name="middot" unicode="&#xb7;" horiz-adv-x="483" 
d="M134 445q-43 43 -43 107q0 63 43 106q44 44 108 44q63 0 107 -44t44 -106q0 -63 -44 -107q-43 -43 -107 -43q-65 0 -108 43z" />
    <glyph glyph-name="cedilla" unicode="&#xb8;" horiz-adv-x="589" 
d="M165 -163l55 193h149l-34 -116q136 -37 136 -142q0 -97 -71 -148t-176 -51q-87 0 -127 13q-10 3 -10 11q0 5 3 13l29 85q5 13 13 13h3q53 -9 74 -9q36 0 59.5 15t23.5 44q0 26 -21.5 42.5t-64.5 16.5q-18 0 -27 -1q-16 0 -16 11q0 2 2 10z" />
    <glyph glyph-name="onesuperior" unicode="&#xb9;" horiz-adv-x="512" 
d="M444 646h-321q-12 0 -15.5 3t-3.5 14v81q0 15 20 20l70 18v463q-53 -19 -111 -26q-22 0 -23 22l-5 103q0 8 1 9q2 6 16 11q95 26 268 79q10 2 11 2q22 0 22 -40v-623l70 -18q20 -5 20 -20v-81q0 -11 -3.5 -14t-15.5 -3z" />
    <glyph glyph-name="ordmasculine" unicode="&#xba;" horiz-adv-x="647" 
d="M441 985q0 122 -42 159q-32 31 -80 31q-24 0 -41.5 -6t-35.5 -24t-27 -57t-9 -99q0 -176 114 -176q60 0 90.5 45t30.5 127zM33 992q0 317 290 317q85 0 154 -35q43 -22 70 -55q67 -76 67 -229q0 -147 -76.5 -229t-221.5 -82q-141 0 -212 82t-71 231z" />
    <glyph glyph-name="guillemotright" unicode="&#xbb;" horiz-adv-x="1022" 
d="M719 463l-184 247q-12 17 -12 25q0 5 4 12l77 128q4 6 11 6t12 -5l299 -313q14 -14 14 -32v-135q0 -18 -11 -32l-304 -315q-4 -4 -10 -4q-8 0 -13 8l-77 127q-3 4 -3 10q0 9 10 20zM279 463l-184 247q-12 16 -12 25q0 7 3 11l78 129q4 6 11 6t12 -5l299 -313
q14 -14 14 -32v-135q0 -18 -11 -32l-304 -315q-4 -4 -10 -4q-8 0 -13 8l-77 127q-9 11 7 30z" />
    <glyph glyph-name="onequarter" unicode="&#xbc;" horiz-adv-x="1565" 
d="M343 -2l621 1272q8 15 28 15h165q21 0 21 -16q0 -1 -2 -7l-622 -1272q-8 -15 -27 -15h-161q-11 0 -17.5 5.5t-6.5 12.5q0 4 1 5zM1403 170v-147q0 -23 -25 -23h-126q-24 0 -24 23v147h-274q-25 0 -33.5 5t-8.5 22v89l10 30l208 446q8 21 38 21h117q30 0 30 -22l-5 -18
l-202 -432h120v141q0 24 24 24h126q25 0 25 -24v-141h43q28 0 28 -19v-101q0 -21 -28 -21h-43zM460 494h-321q-12 0 -15.5 3t-3.5 14v81q0 15 20 20l70 18v463q-53 -19 -111 -26q-22 0 -23 22l-5 103q0 8 1 9q2 6 16 11l268 79q10 2 11 2q22 0 22 -40v-623l70 -18
q20 -5 20 -20v-81q0 -11 -3.5 -14t-15.5 -3z" />
    <glyph glyph-name="onehalf" unicode="&#xbd;" horiz-adv-x="1627" 
d="M1438 148l10 44q4 22 21 22h63q11 0 15.5 -5.5t6.5 -21.5l13 -158q0 -29 -26 -29h-513q-16 0 -21 9.5t-5 32.5q0 105 74 196q54 65 153 144q74 58 105.5 96t31.5 78q0 41 -28 64t-69 23q-73 0 -99 -81q0 -7 -5 -17t-11 -10q-5 0 -7 1l-129 33q-13 4 -13 12t1 12
q15 87 83 146q67 60 179 60q117 0 196 -64q80 -63 80 -169q0 -97 -47 -164q-45 -64 -149 -136q-113 -78 -134 -118h224zM346 -2l621 1272q7 15 28 15h165q21 0 21 -16q0 -1 -2 -7l-622 -1272q-7 -15 -27 -15h-161q-11 0 -17.5 5.5t-6.5 12.5q0 4 1 5zM449 494h-321
q-12 0 -15.5 3t-3.5 14v81q0 15 20 20l70 18v463q-53 -19 -111 -26q-22 0 -23 22l-5 103q0 8 1 9q5 9 13 11l3 1q177 51 268 78q10 2 11 2q22 0 22 -40v-623l70 -18q20 -5 20 -20v-81q0 -11 -3.5 -14t-15.5 -3z" />
    <glyph glyph-name="threequarters" unicode="&#xbe;" horiz-adv-x="1616" 
d="M1474 170v-147q0 -23 -25 -23h-126q-24 0 -24 23v147h-274q-25 0 -33.5 5t-8.5 22v89l10 30l208 446q7 21 38 21h117q30 0 30 -23l-5 -17l-202 -432h120v141q0 24 24 24h126q25 0 25 -24v-141h43q28 0 28 -19v-101q0 -21 -28 -21h-43zM317 1143h-207q-18 0 -18 19v103
q0 20 18 20h440q10 0 18.5 -8.5t8.5 -20.5q0 -10 -6 -18l-175 -250q72 -11 128 -55q70 -52 70 -162q0 -116 -86.5 -201t-247.5 -85q-37 0 -89 7q-54 7 -88 17q-13 3 -13 17v3q1 3 1 4l18 99q4 13 16 13q96 -11 124 -11q114 0 153 53q31 42 31 76q0 86 -131 91q-6 1 -111 1
q-25 0 -25 21q0 18 13 37zM403 -2l621 1272q8 15 28 15h165q21 0 21 -16q0 -1 -2 -7l-622 -1272q-8 -15 -27 -15h-161q-24 0 -24 17q0 5 1 6z" />
    <glyph glyph-name="questiondown" unicode="&#xbf;" horiz-adv-x="822" 
d="M546 540q-1 -95 -36.5 -178t-116.5 -172q-48 -51 -77 -100q-25 -43 -25 -102q0 -157 170 -157q73 0 129 13l30 118q4 16 27 16h73q10 0 14 -3.5t5 -15.5q21 -235 21 -237q0 -20 -18 -28q-146 -49 -298 -49q-125 0 -217 41q-54 25 -92 61q-86 83 -86 241q0 101 51 178
q27 41 46 65q53 61 61 70l36 40q85 97 91 197q0 20 17 20h178q17 0 17 -18zM443 974q67 0 108.5 -40.5t41.5 -106.5t-43 -109q-42 -44 -107 -44q-63 0 -107 44q-43 44 -43 109q0 66 42 106.5t108 40.5z" />
    <glyph glyph-name="Agrave" unicode="&#xc0;" horiz-adv-x="1191" 
d="M581 1027q-46 -149 -131 -451l-20 -69h330l-8 33l-133 487q-5 17 -15 73l-2 13h-4q-7 -46 -17 -86zM388 1098l-113 37q-20 8 -20 26v104q0 20 25 20h467q16 0 21 -14l383 -1246q2 -8 2 -9q0 -16 -14 -16h-213q-7 0 -15.5 5.5t-10.5 13.5l-86 294h-437l-87 -294
q-2 -8 -10 -13.5t-15 -5.5h-213q-14 0 -14 14q0 5 1 7zM497 1427l-197 179q-37 34 -37 51q0 14 28 14h194q18 0 30 -7t28 -28l148 -189q7 -7 7 -19q0 -16 -20 -16h-144q-20 0 -37 15z" />
    <glyph glyph-name="Aacute" unicode="&#xc1;" horiz-adv-x="1191" 
d="M581 1027q-46 -149 -131 -451l-20 -69h330l-8 33l-133 487q-5 17 -15 73l-2 13h-4q-7 -46 -17 -86zM388 1098l-113 37q-20 8 -20 26v104q0 20 25 20h467q16 0 21 -14l383 -1246q2 -8 2 -9q0 -16 -14 -16h-213q-7 0 -15.5 5.5t-10.5 13.5l-86 294h-437l-87 -294
q-2 -8 -10 -13.5t-15 -5.5h-213q-14 0 -14 14q0 5 1 7zM859 1618l-208 -191q-17 -15 -38 -15h-144q-20 0 -20 16q0 12 7 19l148 189q16 21 28 28t30 7h194q56 0 3 -53z" />
    <glyph glyph-name="Acircumflex" unicode="&#xc2;" horiz-adv-x="1191" 
d="M581 1027q-46 -149 -131 -451l-20 -69h330l-8 33l-133 487q-5 17 -15 73l-2 13h-4q-7 -46 -17 -86zM388 1098l-113 37q-20 8 -20 26v104q0 20 25 20h467q16 0 21 -14l383 -1246q2 -8 2 -9q0 -16 -14 -16h-213q-7 0 -15.5 5.5t-10.5 13.5l-86 294h-437l-87 -294
q-2 -8 -10 -13.5t-15 -5.5h-213q-14 0 -14 14q0 5 1 7zM716 1405l-141 126l-141 -126q-20 -15 -36 -15q-4 0 -17 3l-99 21q-21 4 -21 16q0 8 8 19l157 188q30 36 54 36h189q24 0 54 -36l157 -188q9 -11 9 -18q0 -11 -22 -17l-98 -21q-15 -3 -18 -3q-17 0 -35 15z" />
    <glyph glyph-name="Atilde" unicode="&#xc3;" horiz-adv-x="1191" 
d="M581 1027q-46 -149 -131 -451l-20 -69h330l-8 33l-133 487q-5 17 -15 73l-2 13h-4q-7 -46 -17 -86zM388 1098l-113 37q-20 8 -20 26v104q0 20 25 20h467q16 0 21 -14l383 -1246q2 -8 2 -9q0 -16 -14 -16h-213q-7 0 -15.5 5.5t-10.5 13.5l-86 294h-437l-87 -294
q-2 -8 -10 -13.5t-15 -5.5h-213q-14 0 -14 14q0 5 1 7zM465 1657q47 0 102 -36q56 -35 84 -35q21 0 49.5 16t51.5 42q6 6 12 6q8 0 15 -7l72 -70q8 -8 8 -16q0 -5 -4 -14q-30 -63 -80.5 -97.5t-113.5 -34.5q-43 0 -102 35q-59 36 -83 36q-21 0 -49.5 -16t-51.5 -42
q-6 -6 -12 -6q-8 0 -17 9l-71 69q-8 8 -8 15q0 6 5 14q80 132 193 132z" />
    <glyph glyph-name="Adieresis" unicode="&#xc4;" horiz-adv-x="1191" 
d="M581 1027q-46 -149 -131 -451l-20 -69h330l-8 33l-133 487q-5 17 -15 73l-2 13h-4q-7 -46 -17 -86zM388 1098l-113 37q-20 8 -20 26v104q0 20 25 20h467q16 0 21 -14l383 -1246q2 -8 2 -9q0 -16 -14 -16h-213q-7 0 -15.5 5.5t-10.5 13.5l-86 294h-437l-87 -294
q-2 -8 -10 -13.5t-15 -5.5h-213q-14 0 -14 14q0 5 1 7zM246 1516q0 51 29 78t83 27q53 0 82.5 -27.5t29.5 -77.5q0 -49 -30 -77.5t-82 -28.5q-54 0 -83 28t-29 78zM621 1516q0 50 29 77.5t84 27.5q53 0 82 -27.5t29 -77.5q0 -49 -29.5 -77.5t-81.5 -28.5q-54 0 -83.5 28.5
t-29.5 77.5z" />
    <glyph glyph-name="Aring" unicode="&#xc5;" horiz-adv-x="1191" 
d="M581 1027q-46 -149 -131 -451l-20 -69h330l-8 33l-133 487q-5 17 -15 73l-2 13h-4q-7 -46 -17 -86zM388 1098l-113 37q-20 8 -20 26v104q0 20 25 20h467q16 0 21 -14l383 -1246q2 -8 2 -9q0 -16 -14 -16h-213q-7 0 -15.5 5.5t-10.5 13.5l-86 294h-437l-87 -294
q-2 -8 -10 -13.5t-15 -5.5h-213q-14 0 -14 14q0 5 1 7zM576 1639q-29 0 -45.5 -18t-16.5 -48q0 -26 17 -45t43 -19q29 0 46.5 18.5t17.5 46.5t-17.5 46.5t-44.5 18.5zM385 1572q0 78 53 128t142 50q87 0 138 -48.5t51 -127.5q0 -74 -54 -124q-53 -48 -137 -48q-86 0 -140 48
q-53 50 -53 122z" />
    <glyph glyph-name="AE" unicode="&#xc6;" horiz-adv-x="1621" 
d="M758 1077q-52 -119 -123 -275q-77 -169 -131 -295h304q-11 140 -25 286q-13 138 -25 284zM1537 0h-657q-15 0 -16 16l-33 296h-412l-129 -293q-10 -19 -27 -19h-211q-14 0 -14 15q0 6 1 7l509 1076l-112 37q-21 7 -21 26v104q0 20 26 20h1060q36 0 36 -35v-129
q0 -35 -36 -35h-526l32 -292h426q36 0 36 -35v-130q0 -34 -36 -34h-402l43 -396h463q24 0 24 -31v-138q0 -30 -24 -30z" />
    <glyph glyph-name="Ccedilla" unicode="&#xc7;" horiz-adv-x="1087" 
d="M869 988l-33 115q-68 20 -127 20q-182 0 -286 -131q-103 -130 -103 -348q0 -239 94 -358.5t291 -119.5q50 0 106 10q67 12 93 20l34 11q11 4 21 4q12 0 20 -20l40 -118q2 -10 2 -11q0 -16 -19 -26q-10 -8 -39 -18q-32 -12 -102 -26q-74 -17 -154 -18l-17 -60
q136 -37 136 -142q0 -97 -71 -148t-176 -51q-87 0 -127 13q-10 3 -10 11q0 1 3 13l29 85q5 13 12 13h2q52 -9 76 -9q36 0 59.5 15t23.5 44q0 26 -21.5 42.5t-64.5 16.5q-18 0 -27 -1q-16 0 -16 11q0 2 2 10l41 146q-243 33 -366.5 197t-123.5 455q0 310 162 493
q163 183 449 183q163 0 319 -58q22 -9 25 -19q1 -2 1 -13l-11 -230q-2 -21 -21 -21h-105q-10 0 -14 3.5t-7 14.5z" />
    <glyph glyph-name="Egrave" unicode="&#xc8;" horiz-adv-x="1041" 
d="M796 595h-364v-396h508q24 0 24 -29v-140q0 -30 -24 -30h-723q-24 0 -24 30v1068l-113 37q-20 8 -20 26v104q0 20 25 20h850q35 0 35 -34v-130q0 -35 -35 -35h-503v-292h364q17 0 26 -9.5t9 -25.5v-130q0 -34 -35 -34zM477 1427l-197 179q-37 34 -37 51q0 14 28 14h194
q18 0 30 -7t28 -28l148 -189q7 -7 7 -19q0 -16 -20 -16h-144q-21 0 -37 15z" />
    <glyph glyph-name="Eacute" unicode="&#xc9;" horiz-adv-x="1041" 
d="M796 595h-364v-396h508q24 0 24 -29v-140q0 -30 -24 -30h-723q-24 0 -24 30v1068l-113 37q-20 8 -20 26v104q0 20 25 20h850q35 0 35 -34v-130q0 -35 -35 -35h-503v-292h364q17 0 26 -9.5t9 -25.5v-130q0 -34 -35 -34zM808 1617l-208 -191q-18 -15 -38 -15h-144
q-20 0 -20 16q0 12 7 19l148 189q16 21 28 28t30 7h194q56 0 3 -53z" />
    <glyph glyph-name="Ecircumflex" unicode="&#xca;" horiz-adv-x="1041" 
d="M796 595h-364v-396h508q24 0 24 -29v-140q0 -30 -24 -30h-723q-24 0 -24 30v1068l-113 37q-20 8 -20 26v104q0 20 25 20h850q35 0 35 -34v-130q0 -35 -35 -35h-503v-292h364q17 0 26 -9.5t9 -25.5v-130q0 -34 -35 -34zM666 1406l-141 126l-141 -126q-20 -15 -36 -15
q-4 0 -17 3l-99 21q-21 5 -21 16q0 8 8 19l157 188q30 36 54 36h189q24 0 54 -36l157 -188q9 -10 9 -18q0 -13 -22 -17l-98 -21q-15 -3 -18 -3q-17 0 -35 15z" />
    <glyph glyph-name="Edieresis" unicode="&#xcb;" horiz-adv-x="1041" 
d="M796 595h-364v-396h508q24 0 24 -29v-140q0 -30 -24 -30h-723q-24 0 -24 30v1068l-113 37q-20 8 -20 26v104q0 20 25 20h850q35 0 35 -34v-130q0 -35 -35 -35h-503v-292h364q17 0 26 -9.5t9 -25.5v-130q0 -34 -35 -34zM216 1516q0 51 29 78t83 27q53 0 82.5 -27.5
t29.5 -77.5q0 -49 -30 -77.5t-82 -28.5q-54 0 -83 28t-29 78zM591 1516q0 50 29 77.5t84 27.5q53 0 82 -27.5t29 -77.5q0 -49 -29.5 -77.5t-81.5 -28.5q-54 0 -83.5 28.5t-29.5 77.5z" />
    <glyph glyph-name="Igrave" unicode="&#xcc;" horiz-adv-x="723" 
d="M498 187l133 -37q20 -6 20 -26v-104q0 -20 -25 -20h-496q-25 0 -25 20v104q0 20 20 26l133 37v911l-133 37q-20 6 -20 26v104q0 20 25 20h496q25 0 25 -20v-104q0 -20 -20 -26l-133 -37v-911zM297 1427l-197 179q-37 34 -37 51q0 14 28 14h194q18 0 30 -7t28 -28
l148 -189q7 -7 7 -19q0 -16 -20 -16h-144q-20 0 -37 15z" />
    <glyph glyph-name="Iacute" unicode="&#xcd;" horiz-adv-x="717" 
d="M466 187l133 -37q20 -6 20 -26v-104q0 -20 -25 -20h-496q-25 0 -25 20v104q0 20 20 26l133 37v911l-133 37q-20 6 -20 26v104q0 20 25 20h496q25 0 25 -20v-104q0 -20 -20 -26l-133 -37v-911zM618 1617l-208 -191q-18 -15 -38 -15h-144q-20 0 -20 16q0 12 7 19l148 189
q16 21 28 28t30 7h194q56 0 3 -53z" />
    <glyph glyph-name="Icircumflex" unicode="&#xce;" horiz-adv-x="745" 
d="M516 1406l-141 126l-141 -126q-20 -15 -36 -15q-4 0 -17 3l-99 21q-21 5 -21 16q0 8 8 19l157 188q30 36 54 36h189q24 0 54 -36l157 -188q9 -10 9 -18q0 -13 -22 -17l-98 -21q-15 -3 -18 -3q-17 0 -35 15zM494 187l133 -37q20 -6 20 -26v-104q0 -20 -25 -20h-496
q-25 0 -25 20v104q0 20 20 26l133 37v911l-133 37q-20 6 -20 26v104q0 20 25 20h496q25 0 25 -20v-104q0 -20 -20 -26l-133 -37v-911z" />
    <glyph glyph-name="Idieresis" unicode="&#xcf;" horiz-adv-x="719" 
d="M483 187l133 -37q20 -6 20 -26v-104q0 -20 -25 -20h-496q-25 0 -25 20v104q0 20 20 26l133 37v911l-133 37q-20 6 -20 26v104q0 20 25 20h496q25 0 25 -20v-104q0 -20 -20 -26l-133 -37v-911zM60 1516q0 51 29 78t83 27q53 0 82.5 -27.5t29.5 -77.5q0 -49 -30 -77.5
t-82 -28.5q-54 0 -83 28t-29 78zM435 1516q0 50 29 77.5t84 27.5q53 0 82 -27.5t29 -77.5q0 -49 -29.5 -77.5t-81.5 -28.5q-54 0 -83.5 28.5t-29.5 77.5z" />
    <glyph glyph-name="Eth" unicode="&#xd0;" horiz-adv-x="1253" 
d="M85 1285q74 0 338 3q35 1 133 1q312 0 477 -162.5t165 -480.5q0 -311 -169 -486q-170 -176 -466 -176h-27q-199 0 -285 10q-19 2 -28.5 4t-18 10t-11.5 22v541h-108q-15 0 -20 4.5t-5 18.5v128q0 20 23 20h110v356l-113 37q-20 8 -20 26v104q0 20 25 20zM432 1099v-357
h165q15 0 19.5 -4t4.5 -14v-132q0 -14 -4.5 -17.5t-17.5 -3.5h-167v-393q31 -4 99 -4q197 0 306 130q110 131 110 345q2 252 -126 365q-98 85 -285 85h-104z" />
    <glyph glyph-name="Ntilde" unicode="&#xd1;" horiz-adv-x="1330" 
d="M984 0q-40 0 -62 42l-418 737q-39 69 -67 159h-5v-908q0 -30 -24 -30h-191q-24 0 -24 30v1068l-113 37q-20 8 -20 26v104q0 20 25 20h325q28 0 41 -21l434 -765q40 -66 58 -128l6 -20h4v902q0 32 27 32h188q24 0 24 -30v-1215q0 -40 -41 -40h-167zM573 1654q47 0 102 -36
q56 -35 84 -35q21 0 49.5 16t51.5 42q6 6 12 6q8 0 15 -7l72 -70q8 -8 8 -16q0 -5 -4 -14q-30 -63 -80.5 -97.5t-113.5 -34.5q-43 0 -102 35q-58 36 -83 36q-21 0 -49.5 -16t-51.5 -42q-6 -6 -12 -6q-8 0 -17 9l-71 69q-8 8 -8 15q0 6 5 14q79 132 193 132z" />
    <glyph glyph-name="Ograve" unicode="&#xd2;" horiz-adv-x="1218" 
d="M609 -24q-114 0 -216 34q-112 40 -189 138q-130 160 -133 510q0 144 31.5 261t95.5 205.5t168.5 136.5t242.5 48q136 0 241 -47.5t169 -137.5q128 -176 128 -466q0 -682 -538 -682zM322 646q0 -233 60 -348q28 -51 67 -80q38 -28 73.5 -37.5t86.5 -9.5t87 10t74 38
q40 30 66 80q60 115 60 347q0 172 -36 279q-19 60 -51 101q-69 88 -200 88q-191 0 -252 -189q-35 -112 -35 -279zM567 1427l-197 179q-37 34 -37 51q0 14 28 14h194q18 0 30 -7t28 -28l148 -189q7 -7 7 -19q0 -16 -20 -16h-144q-21 0 -37 15z" />
    <glyph glyph-name="Oacute" unicode="&#xd3;" horiz-adv-x="1218" 
d="M609 -24q-114 0 -216 34q-112 40 -189 138q-130 160 -133 510q0 144 31.5 261t95.5 205.5t168.5 136.5t242.5 48q136 0 241 -47.5t169 -137.5q128 -176 128 -466q0 -682 -538 -682zM322 646q0 -233 60 -348q28 -51 67 -80q38 -28 73.5 -37.5t86.5 -9.5t87 10t74 38
q40 30 66 80q60 115 60 347q0 172 -36 279q-19 60 -51 101q-69 88 -200 88q-191 0 -252 -189q-35 -112 -35 -279zM878 1617l-208 -191q-18 -15 -38 -15h-144q-20 0 -20 16q0 12 7 19l148 189q16 21 28 28t30 7h194q56 0 3 -53z" />
    <glyph glyph-name="Ocircumflex" unicode="&#xd4;" horiz-adv-x="1218" 
d="M750 1406l-141 126l-141 -126q-20 -15 -36 -15q-4 0 -17 3l-99 21q-21 5 -21 16q0 8 8 19l157 188q30 36 54 36h189q24 0 54 -36l157 -188q9 -10 9 -18q0 -13 -22 -17l-98 -21q-15 -3 -18 -3q-17 0 -35 15zM609 -24q-114 0 -216 34q-112 40 -189 138q-130 160 -133 510
q0 144 31.5 261t95.5 205.5t168.5 136.5t242.5 48q136 0 241 -47.5t169 -137.5q128 -176 128 -466q0 -682 -538 -682zM322 646q0 -233 60 -348q28 -51 67 -80q38 -28 73.5 -37.5t86.5 -9.5t87 10t74 38q40 30 66 80q60 115 60 347q0 172 -36 279q-19 60 -51 101
q-69 88 -200 88q-191 0 -252 -189q-35 -112 -35 -279z" />
    <glyph glyph-name="Otilde" unicode="&#xd5;" horiz-adv-x="1218" 
d="M609 -24q-114 0 -216 34q-112 40 -189 138q-130 160 -133 510q0 144 31.5 261t95.5 205.5t168.5 136.5t242.5 48q136 0 241 -47.5t169 -137.5q128 -176 128 -466q0 -682 -538 -682zM322 646q0 -233 60 -348q28 -51 67 -80q38 -28 73.5 -37.5t86.5 -9.5t87 10t74 38
q40 30 66 80q60 115 60 347q0 172 -36 279q-19 60 -51 101q-69 88 -200 88q-191 0 -252 -189q-35 -112 -35 -279zM509 1656q47 0 102 -36q56 -35 84 -35q21 0 49.5 16t51.5 42q6 6 12 6q8 0 15 -7l72 -70q8 -8 8 -16q0 -5 -4 -14q-30 -63 -80.5 -97.5t-113.5 -34.5
q-43 0 -102 35q-59 36 -83 36q-21 0 -49.5 -16t-51.5 -42q-6 -6 -12 -6q-8 0 -17 9l-71 69q-8 8 -8 15q0 6 5 14q80 132 193 132z" />
    <glyph glyph-name="Odieresis" unicode="&#xd6;" horiz-adv-x="1218" 
d="M609 -24q-114 0 -216 34q-112 40 -189 138q-130 160 -133 510q0 144 31.5 261t95.5 205.5t168.5 136.5t242.5 48q136 0 241 -47.5t169 -137.5q128 -176 128 -466q0 -682 -538 -682zM322 646q0 -233 60 -348q28 -51 67 -80q38 -28 73.5 -37.5t86.5 -9.5t87 10t74 38
q40 30 66 80q60 115 60 347q0 172 -36 279q-19 60 -51 101q-69 88 -200 88q-191 0 -252 -189q-35 -112 -35 -279zM306 1516q0 51 29 78t83 27q53 0 82.5 -27.5t29.5 -77.5q0 -49 -30 -77.5t-82 -28.5q-54 0 -83 28t-29 78zM681 1516q0 50 29 77.5t84 27.5q53 0 82 -27.5
t29 -77.5q0 -49 -29.5 -77.5t-81.5 -28.5q-54 0 -83.5 28.5t-29.5 77.5z" />
    <glyph glyph-name="multiply" unicode="&#xd7;" horiz-adv-x="873" 
d="M578 559l212 -211q12 -12 12 -16q0 -7 -10 -17l-113 -114q-8 -8 -16 -8q-7 0 -15 8l-213 213l-213 -213q-12 -12 -18 -12q-5 0 -12 7l-115 115q-13 13 4 30l214 213l-211 211q-17 17 -3 31l117 117q13 13 28 -2l212 -212l213 212q12 12 18 12q5 0 11 -6l115 -115
q13 -13 -4 -30z" />
    <glyph glyph-name="Oslash" unicode="&#xd8;" horiz-adv-x="1203" 
d="M1132 648q0 -235 -69 -383q-60 -134 -168 -206q-93 -63 -209 -79q-53 -8 -102 -8q-148 0 -254 58l-79 -135q-9 -14 -29 -14h-109q-15 0 -15 13q0 6 3 10l124 211q-154 170 -154 543q0 293 123 469q131 186 409 186q169 0 285 -70l82 140q15 28 38 28h110q13 0 13 -11
q0 -5 -3 -11l-137 -234q141 -168 141 -507zM322 646q0 -189 38 -301l420 715q-65 59 -181 59q-100 -3 -159.5 -50.5t-85.5 -140.5q-32 -111 -32 -282zM881 652q0 180 -25 273l-416 -709q59 -50 158 -50q283 0 283 486z" />
    <glyph glyph-name="Ugrave" unicode="&#xd9;" horiz-adv-x="1252" 
d="M399 503q0 -155 64.5 -241.5t180.5 -86.5t184 87q69 87 69 241v752q0 30 24 30h191q24 0 24 -30v-750q0 -246 -134 -388q-134 -141 -360 -141q-225 0 -354 139q-128 140 -128 392v591l-113 37q-20 8 -20 26v104q0 20 25 20h314q33 0 33 -35v-747zM587 1427l-197 179
q-37 34 -37 51q0 14 28 14h194q18 0 30 -7t28 -28l148 -189q7 -7 7 -19q0 -16 -20 -16h-144q-21 0 -37 15z" />
    <glyph glyph-name="Uacute" unicode="&#xda;" horiz-adv-x="1252" 
d="M399 503q0 -155 64.5 -241.5t180.5 -86.5t184 87q69 87 69 241v752q0 30 24 30h191q24 0 24 -30v-750q0 -246 -134 -388q-134 -141 -360 -141q-225 0 -354 139q-128 140 -128 392v591l-113 37q-20 8 -20 26v104q0 20 25 20h314q33 0 33 -35v-747zM932 1617l-208 -191
q-18 -15 -38 -15h-144q-20 0 -20 16q0 12 7 19l148 189q16 21 28 28t30 7h194q56 0 3 -53z" />
    <glyph glyph-name="Ucircumflex" unicode="&#xdb;" horiz-adv-x="1252" 
d="M786 1406l-141 126l-141 -126q-20 -15 -36 -15q-4 0 -17 3l-99 21q-21 5 -21 16q0 8 8 19l157 188q30 36 54 36h189q24 0 54 -36l157 -188q9 -10 9 -18q0 -13 -22 -17l-98 -21q-15 -3 -18 -3q-17 0 -35 15zM399 503q0 -155 64.5 -241.5t180.5 -86.5t184 87q69 87 69 241
v752q0 30 24 30h191q24 0 24 -30v-750q0 -246 -134 -388q-134 -141 -360 -141q-225 0 -354 139q-128 140 -128 392v591l-113 37q-20 8 -20 26v104q0 20 25 20h314q33 0 33 -35v-747z" />
    <glyph glyph-name="Udieresis" unicode="&#xdc;" horiz-adv-x="1252" 
d="M399 503q0 -155 64.5 -241.5t180.5 -86.5t184 87q69 87 69 241v752q0 30 24 30h191q24 0 24 -30v-750q0 -246 -134 -388q-134 -141 -360 -141q-225 0 -354 139q-128 140 -128 392v591l-113 37q-20 8 -20 26v104q0 20 25 20h314q33 0 33 -35v-747zM355 1516q0 51 29 78
t83 27q53 0 82.5 -27.5t29.5 -77.5q0 -49 -30 -77.5t-82 -28.5q-54 0 -83 28t-29 78zM730 1516q0 50 29 77.5t84 27.5q53 0 82 -27.5t29 -77.5q0 -49 -29.5 -77.5t-81.5 -28.5q-54 0 -83.5 28.5t-29.5 77.5z" />
    <glyph glyph-name="Yacute" unicode="&#xdd;" horiz-adv-x="1114" 
d="M288 560q-20 48 -40 126q-17 64 -46 201q-21 98 -47 209l-119 39q-20 8 -20 26v104q0 20 25 20h290q29 0 37 -30l8 -47q3 -19 12 -68.5t18 -99.5t17 -94q5 -29 15.5 -82t12.5 -63q13 -68 24 -103q25 -91 111 -91q71 0 115 2q16 77 33 157q8 40 20 95.5t15 71.5
q59 293 66 324q7 28 34 28h196q33 0 33 -24l-1 -6q-135 -579 -277 -1016q-46 -144 -134 -201q-88 -56 -250 -56q-60 0 -119 8q-57 8 -70 13q-13 4 -13 23l24 148q3 15 18 15l4 -1h4q56 -8 109 -8q57 0 94 5q33 6 66 27q32 21 53.5 63t43.5 120l7 25q-36 0 -70 -1t-74 -1
q-91 0 -143 34.5t-82 107.5zM899 1618l-208 -191q-17 -15 -38 -15h-144q-20 0 -20 16q0 12 7 19l148 189q16 21 28 28t30 7h194q56 0 3 -53z" />
    <glyph glyph-name="Thorn" unicode="&#xde;" horiz-adv-x="1079" 
d="M432 875v-449h64q145 0 222 59.5t77 174.5t-65.5 166t-200.5 51q-27 0 -60.5 -1t-34.5 -1h-2zM432 1250v-188h143q466 0 466 -382q0 -442 -524 -442h-85v-208q0 -30 -24 -30h-191q-24 0 -24 30v1068l-113 37q-20 8 -20 26v104q0 20 25 20h312q35 0 35 -35z" />
    <glyph glyph-name="germandbls" unicode="&#xdf;" horiz-adv-x="1092" 
d="M160 766l-112 26q-18 4 -18 21v95q0 24 27 26h104v136q0 161 110 262q109 100 321 100q167 0 268 -83t101 -249q0 -114 -24 -169q-67 -31 -94 -65.5t-27 -81.5q0 -57 48 -114q11 -13 51 -53q36 -37 53 -56t44 -58q50 -68 50 -170q0 -149 -85 -250q-86 -101 -225 -101
q-125 0 -232 29q-15 5 -15 18l15 152q1 16 16 16l2 -1h2q64 -19 130 -19q71 0 110.5 45.5t39.5 124.5q0 53 -33 97q-28 39 -69 80q-36 36 -47 49q-13 16 -39 50q-41 60 -41 136q0 72 37 140.5t106 117.5q9 31 9 61q0 76 -37.5 116.5t-109.5 40.5q-57 0 -98 -20.5
t-62.5 -56.5t-31 -75t-9.5 -84v-969q0 -30 -25 -30h-184q-24 0 -26 30v736z" />
    <glyph glyph-name="agrave" unicode="&#xe0;" horiz-adv-x="962" 
d="M401 1107l-197 179q-37 34 -37 51q0 14 28 14h194q18 0 30 -7t28 -28l148 -189q7 -7 7 -19q0 -16 -20 -16h-144q-19 0 -37 15zM589 246v155h-32q-40 0 -53 -1q-18 0 -52 -3q-54 -4 -98 -21q-66 -24 -72 -105q0 -56 35 -86.5t92 -30.5q49 0 99.5 25.5t80.5 66.5zM148 904
q164 70 307 70q247 0 325 -182q33 -75 33 -254v-398l98 -23q13 -3 13 -18v-72q0 -23 -23 -25l-252 -12q-8 0 -14 2q-11 4 -12 18l-15 106q-45 -66 -116.5 -103t-150.5 -37q-116 0 -198 73q-83 74 -83 203q0 116 53 186q44 59 137 90q77 25 181 27q54 2 96 2h62v45
q0 95 -45 142t-148 47q-73 0 -220 -48q-6 -2 -12 -2q-17 0 -19 11l-22 126q0 8 3 12q4 6 22 14z" />
    <glyph glyph-name="aacute" unicode="&#xe1;" horiz-adv-x="962" 
d="M749 1298l-208 -191q-17 -15 -38 -15h-144q-20 0 -20 16q0 12 7 19l148 189q16 21 28 28t30 7h194q56 0 3 -53zM589 246v155h-32q-40 0 -53 -1q-18 0 -52 -3q-54 -4 -98 -21q-66 -24 -72 -105q0 -56 35 -86.5t92 -30.5q49 0 99.5 25.5t80.5 66.5zM148 904q164 70 307 70
q247 0 325 -182q33 -75 33 -254v-398l98 -23q13 -3 13 -18v-72q0 -23 -23 -25l-252 -12q-8 0 -14 2q-11 4 -12 18l-15 106q-45 -66 -116.5 -103t-150.5 -37q-116 0 -198 73q-83 74 -83 203q0 116 53 186q44 59 137 90q77 25 181 27q54 2 96 2h62v45q0 95 -45 142t-148 47
q-73 0 -220 -48q-6 -2 -12 -2q-17 0 -19 11l-22 126q0 8 3 12q4 6 22 14z" />
    <glyph glyph-name="acircumflex" unicode="&#xe2;" horiz-adv-x="962" 
d="M592 1083l-141 126l-141 -126q-20 -15 -36 -15q-4 0 -17 3l-99 21q-21 4 -21 16q0 8 8 19l157 188q30 36 54 36h189q24 0 54 -36l157 -188q9 -11 9 -18q0 -11 -22 -17l-98 -21q-15 -3 -18 -3q-19 0 -35 15zM589 246v155h-32q-40 0 -53 -1q-18 0 -52 -3q-54 -4 -98 -21
q-66 -24 -72 -105q0 -56 35 -86.5t92 -30.5q49 0 99.5 25.5t80.5 66.5zM148 904q164 70 307 70q247 0 325 -182q33 -75 33 -254v-398l98 -23q13 -3 13 -18v-72q0 -23 -23 -25l-252 -12q-8 0 -14 2q-11 4 -12 18l-15 106q-45 -66 -116.5 -103t-150.5 -37q-116 0 -198 73
q-83 74 -83 203q0 116 53 186q44 59 137 90q77 25 181 27q54 2 96 2h62v45q0 95 -45 142t-148 47q-73 0 -220 -48q-6 -2 -12 -2q-17 0 -19 11l-22 126q0 8 3 12q4 6 22 14z" />
    <glyph glyph-name="atilde" unicode="&#xe3;" horiz-adv-x="962" 
d="M348 1337q32 1 67.5 -17.5t66.5 -36.5t52 -17q21 0 49.5 16t51.5 42q6 6 12 6q8 0 15 -7l72 -70q8 -8 8 -16q0 -5 -4 -14q-30 -63 -80.5 -97.5t-113.5 -34.5q-43 0 -102 35q-58 36 -83 36q-21 0 -49.5 -16t-51.5 -42q-6 -6 -12 -6q-8 0 -17 9l-71 69q-8 8 -8 15q0 6 5 14
q79 132 193 132zM589 246v155h-32q-40 0 -53 -1q-18 0 -52 -3q-54 -4 -98 -21q-66 -24 -72 -105q0 -56 35 -86.5t92 -30.5q49 0 99.5 25.5t80.5 66.5zM148 904q164 70 307 70q247 0 325 -182q33 -75 33 -254v-398l98 -23q13 -3 13 -18v-72q0 -23 -23 -25l-252 -12
q-8 0 -14 2q-11 4 -12 18l-15 106q-45 -66 -116.5 -103t-150.5 -37q-116 0 -198 73q-83 74 -83 203q0 116 53 186q44 59 137 90q77 25 181 27q54 2 96 2h62v45q0 95 -45 142t-148 47q-73 0 -220 -48q-6 -2 -12 -2q-17 0 -19 11l-22 126q0 8 3 12q4 6 22 14z" />
    <glyph glyph-name="adieresis" unicode="&#xe4;" horiz-adv-x="962" 
d="M589 246v155h-32q-40 0 -53 -1q-18 0 -52 -3q-54 -4 -98 -21q-66 -24 -72 -105q0 -56 35 -86.5t92 -30.5q49 0 99.5 25.5t80.5 66.5zM148 904q164 70 307 70q247 0 325 -182q33 -75 33 -254v-398l98 -23q13 -3 13 -18v-72q0 -23 -23 -25l-252 -12q-8 0 -14 2
q-11 4 -12 18l-15 106q-45 -66 -116.5 -103t-150.5 -37q-116 0 -198 73q-83 74 -83 203q0 116 53 186q44 59 137 90q77 25 181 27q54 2 96 2h62v45q0 95 -45 142t-148 47q-73 0 -220 -48q-6 -2 -12 -2q-17 0 -19 11l-22 126q0 8 3 12q4 6 22 14zM166 1195q0 51 29 78t83 27
q53 0 82.5 -27.5t29.5 -77.5q0 -49 -30 -77.5t-82 -28.5q-54 0 -83 28t-29 78zM541 1195q0 50 29 77.5t84 27.5q53 0 82 -27.5t29 -77.5q0 -49 -29.5 -77.5t-81.5 -28.5q-54 0 -83.5 28.5t-29.5 77.5z" />
    <glyph glyph-name="aring" unicode="&#xe5;" horiz-adv-x="962" 
d="M589 246v155h-32q-40 0 -53 -1q-18 0 -52 -3q-54 -4 -98 -21q-66 -24 -72 -105q0 -56 35 -86.5t92 -30.5q49 0 99.5 25.5t80.5 66.5zM148 904q164 70 307 70q247 0 325 -182q33 -75 33 -254v-398l98 -23q13 -3 13 -18v-72q0 -23 -23 -25l-252 -12q-8 0 -14 2
q-11 4 -12 18l-15 106q-45 -66 -116.5 -103t-150.5 -37q-116 0 -198 73q-83 74 -83 203q0 116 53 186q44 59 137 90q77 25 181 27q54 2 96 2h62v45q0 95 -45 142t-148 47q-73 0 -220 -48q-6 -2 -12 -2q-17 0 -19 11l-22 126q0 8 3 12q4 6 22 14zM462 1313q-29 0 -45.5 -18
t-16.5 -48q0 -26 17 -45t43 -19q29 0 46.5 18.5t17.5 46.5t-17.5 46.5t-44.5 18.5zM271 1246q0 78 53 128t142 50q87 0 138 -48.5t51 -127.5q0 -74 -54 -124q-53 -48 -137 -48q-86 0 -140 48q-53 50 -53 122z" />
    <glyph glyph-name="ae" unicode="&#xe6;" horiz-adv-x="1497" 
d="M588 241l1 169h-32q-76 0 -123 -7q-37 -5 -59 -13q-93 -36 -93 -117q0 -56 35.5 -88.5t91.5 -32.5q48 0 98.5 25t80.5 64zM1042 800q-89 0 -140 -64q-52 -64 -59 -149h367v11q0 97 -42 149.5t-126 52.5zM1400 412h-563q8 -122 82 -187t209 -65q96 0 227 45l8 2
q18 0 21 -24l19 -129q0 -16 -16 -25q-137 -55 -305 -55q-117 0 -208 39t-144 113q-54 -62 -134 -100q-76 -37 -128 -45q-51 -9 -98 -9q-128 0 -219 72q-91 73 -91 209q-5 190 150 264q38 21 99 32q54 10 106 13q43 4 112 4h62v47q0 91 -48.5 135t-155.5 44q-56 0 -132 -19
q-6 -2 -61 -17q-11 -3 -21 -6t-16 -5t-7 -2q-10 -2 -11 -2q-13 0 -13 15l7 141q0 12 16 18q141 59 271 59q104 0 179 -31q76 -31 143 -115q107 146 292 146q227 0 314 -135q45 -68 64.5 -163t19.5 -236q0 -28 -30 -28z" />
    <glyph glyph-name="ccedilla" unicode="&#xe7;" horiz-adv-x="908" 
d="M649 779q-49 9 -104 9q-112 0 -172.5 -80t-60.5 -223q0 -183 106 -276q56 -49 137 -49q107 0 233 39q17 5 21 5q14 0 17 -14l22 -142q0 -19 -13 -23q-127 -48 -276 -49l-18 -62q136 -37 136 -142q0 -97 -71 -148t-176 -51q-87 0 -127 13q-10 3 -10 8q0 4 1 6l31 95
q5 13 11 13h3q52 -9 76 -9q36 0 59.5 15t23.5 44q0 26 -21.5 42.5t-64.5 16.5q-18 0 -27 -1q-16 0 -16 11q0 2 2 10l43 153q-170 35 -256.5 160t-86.5 331q0 221 123 356q124 136 342 136q78 0 187 -23q47 -9 81 -22q17 -8 17 -28l-12 -225q-2 -20 -20 -20h-74q-17 0 -20 12
l-26 108q-13 3 -20 4z" />
    <glyph glyph-name="egrave" unicode="&#xe8;" horiz-adv-x="956" 
d="M889 456q0 -29 -29 -29h-564q7 -136 78.5 -200.5t213.5 -64.5q96 0 226 45l8 2q18 0 21 -24l19 -132q0 -16 -16 -22q-137 -55 -305 -55q-225 0 -348 130q-122 131 -122 365q0 304 188 435q98 68 232 68q211 0 304 -127q94 -125 94 -391zM501 800q-83 0 -132 -57
q-48 -54 -65 -141h363q-6 96 -48.5 147t-117.5 51zM461 1107l-197 179q-37 34 -37 51q0 14 28 14h194q18 0 30 -7t28 -28l148 -189q7 -7 7 -19q0 -16 -20 -16h-144q-20 0 -37 15z" />
    <glyph glyph-name="eacute" unicode="&#xe9;" horiz-adv-x="956" 
d="M749 1298l-208 -191q-17 -15 -38 -15h-144q-20 0 -20 16q0 12 7 19l148 189q16 21 28 28t30 7h194q56 0 3 -53zM889 456q0 -29 -29 -29h-564q7 -136 78.5 -200.5t213.5 -64.5q96 0 226 45l8 2q18 0 21 -24l19 -132q0 -16 -16 -22q-137 -55 -305 -55q-225 0 -348 130
q-122 131 -122 365q0 304 188 435q98 68 232 68q211 0 304 -127q94 -125 94 -391zM501 800q-83 0 -132 -57q-48 -54 -65 -141h363q-6 96 -48.5 147t-117.5 51z" />
    <glyph glyph-name="ecircumflex" unicode="&#xea;" horiz-adv-x="956" 
d="M652 1083l-141 126l-141 -126q-20 -15 -36 -15q-4 0 -17 3l-99 21q-21 4 -21 16q0 8 8 19l157 188q30 36 54 36h189q24 0 54 -36l157 -188q9 -11 9 -18q0 -11 -22 -17l-98 -21q-15 -3 -18 -3q-19 0 -35 15zM889 456q0 -29 -29 -29h-564q7 -136 78.5 -200.5t213.5 -64.5
q96 0 226 45l8 2q18 0 21 -24l19 -132q0 -16 -16 -22q-137 -55 -305 -55q-225 0 -348 130q-122 131 -122 365q0 304 188 435q98 68 232 68q211 0 304 -127q94 -125 94 -391zM501 800q-83 0 -132 -57q-48 -54 -65 -141h363q-6 96 -48.5 147t-117.5 51z" />
    <glyph glyph-name="edieresis" unicode="&#xeb;" horiz-adv-x="956" 
d="M889 456q0 -29 -29 -29h-564q7 -136 78.5 -200.5t213.5 -64.5q96 0 226 45l8 2q18 0 21 -24l19 -132q0 -16 -16 -22q-137 -55 -305 -55q-225 0 -348 130q-122 131 -122 365q0 304 188 435q98 68 232 68q211 0 304 -127q94 -125 94 -391zM501 800q-83 0 -132 -57
q-48 -54 -65 -141h363q-6 96 -48.5 147t-117.5 51zM196 1195q0 51 29 78t83 27q53 0 82.5 -27.5t29.5 -77.5q0 -49 -30 -77.5t-82 -28.5q-54 0 -83 28t-29 78zM571 1195q0 50 29 77.5t84 27.5q53 0 82 -27.5t29 -77.5q0 -49 -29.5 -77.5t-81.5 -28.5q-54 0 -83.5 28.5
t-29.5 77.5z" />
    <glyph glyph-name="igrave" unicode="&#xec;" horiz-adv-x="615" 
d="M455 159l118 -24q17 -5 17 -21v-89q0 -23 -27 -25l-310 -24q-13 0 -22.5 9t-9.5 23v774l-107 25q-18 5 -18 21v88q0 24 27 26l300 20q14 0 23 -9.5t9 -23.5v-770zM231 1107l-197 179q-37 34 -37 51q0 14 28 14h194q18 0 30 -7t28 -28l148 -189q7 -7 7 -19q0 -16 -20 -16
h-144q-20 0 -37 15z" />
    <glyph glyph-name="iacute" unicode="&#xed;" horiz-adv-x="588" 
d="M395 159l118 -24q17 -5 17 -21v-89q0 -23 -27 -25l-310 -24q-13 0 -22.5 9t-9.5 23v774l-107 25q-18 5 -18 21v88q0 24 27 26l300 20q14 0 23 -9.5t9 -23.5v-770zM549 1298l-208 -191q-18 -15 -38 -15h-144q-20 0 -20 16q0 12 7 19l148 189q16 21 28 28t30 7h194
q56 0 3 -53z" />
    <glyph glyph-name="icircumflex" unicode="&#xee;" horiz-adv-x="625" 
d="M433 159l118 -24q17 -5 17 -21v-89q0 -23 -27 -25l-310 -24q-13 0 -22.5 9t-9.5 23v774l-107 25q-18 5 -18 21v88q0 24 27 26l300 20q14 0 23 -9.5t9 -23.5v-770zM452 1083l-141 126l-141 -126q-20 -15 -36 -15q-4 0 -17 3l-99 21q-21 4 -21 16q0 8 8 19l157 188
q30 36 54 36h189q24 0 54 -36l157 -188q9 -11 9 -18q0 -11 -22 -17l-98 -21q-15 -3 -18 -3q-17 0 -35 15z" />
    <glyph glyph-name="idieresis" unicode="&#xef;" horiz-adv-x="620" 
d="M6 1195q0 51 29 78t83 27q53 0 82.5 -27.5t29.5 -77.5q0 -49 -30 -77.5t-82 -28.5q-54 0 -83 28t-29 78zM381 1195q0 50 29 77.5t84 27.5q53 0 82 -27.5t29 -77.5q0 -49 -29.5 -77.5t-81.5 -28.5q-54 0 -83.5 28.5t-29.5 77.5zM455 159l118 -24q17 -5 17 -21v-89
q0 -23 -27 -25l-310 -24q-13 0 -22.5 9t-9.5 23v774l-107 25q-18 5 -18 21v88q0 24 27 26l300 20q14 0 23 -9.5t9 -23.5v-770z" />
    <glyph glyph-name="eth" unicode="&#xf0;" horiz-adv-x="1037" 
d="M799 1305l-132 -73q134 -151 217 -338q82 -183 82 -368q0 -227 -103 -384q-53 -79 -141.5 -123.5t-202.5 -44.5q-226 0 -337 133t-111 364q0 296 184 429q98 72 239 72q67 0 134 -22q-67 108 -139 183l-192 -106q-13 -7 -17 -7q-7 0 -15 14l-63 113q-3 6 -3 11q0 8 13 17
l141 78q-87 63 -170 100q-17 8 -17 21q0 8 4 15l67 114q12 21 25 21q2 0 10 -2q135 -49 269 -165l173 96q13 7 18 7q6 0 12 -11l64 -115q5 -12 5 -15q0 -6 -14 -14zM752 544q0 103 -38 220q-78 42 -178 42q-104 0 -159 -78q-65 -92 -65 -263q0 -141 58 -227q59 -86 154 -86
q105 0 166 112q62 113 62 280z" />
    <glyph glyph-name="ntilde" unicode="&#xf1;" horiz-adv-x="1122" 
d="M472 1337q32 1 67.5 -17.5t66.5 -36.5t52 -17q21 0 49.5 16t51.5 42q6 6 12 6q8 0 15 -7l72 -70q8 -8 8 -16q0 -5 -4 -14q-30 -63 -80.5 -97.5t-113.5 -34.5q-43 0 -102 35q-58 36 -83 36q-21 0 -49.5 -16t-51.5 -42q-6 -6 -12 -6q-8 0 -17 9l-71 69q-8 8 -8 15q0 6 5 14
q79 132 193 132zM971 144l98 -25q15 -4 15 -22v-71q0 -22 -25 -23l-296 -12q-14 0 -20 8q-6 7 -6 18v602q0 171 -126 171q-55 0 -112.5 -32t-101.5 -88v-640q0 -30 -25 -30h-184q-25 0 -25 30v750l-107 25q-18 5 -18 23v91q0 25 27 26l274 17q27 0 31 -33l17 -109
q155 154 324 154q123 0 191.5 -73.5t68.5 -203.5v-553z" />
    <glyph glyph-name="ograve" unicode="&#xf2;" horiz-adv-x="1058" 
d="M71 473q0 326 193 439q105 62 264 62q136 0 242 -55q63 -32 110 -87q48 -56 77.5 -150.5t29.5 -212.5q0 -227 -120 -361q-119 -132 -348 -132q-226 0 -337 133q-111 134 -111 364zM746 463q0 229 -104 298q-51 33 -121 33q-111 2 -165 -87q-44 -79 -44 -240
q0 -313 212 -313q109 0 165.5 81t56.5 228zM471 1107l-197 179q-37 34 -37 51q0 14 28 14h194q18 0 30 -7t28 -28l148 -189q7 -7 7 -19q0 -16 -20 -16h-144q-20 0 -37 15z" />
    <glyph glyph-name="oacute" unicode="&#xf3;" horiz-adv-x="1058" 
d="M799 1298l-208 -191q-17 -15 -38 -15h-144q-20 0 -20 16q0 12 7 19l148 189q16 21 28 28t30 7h194q56 0 3 -53zM71 473q0 326 193 439q105 62 264 62q136 0 242 -55q63 -32 110 -87q48 -56 77.5 -150.5t29.5 -212.5q0 -227 -120 -361q-119 -132 -348 -132
q-226 0 -337 133q-111 134 -111 364zM746 463q0 229 -104 298q-51 33 -121 33q-111 2 -165 -87q-44 -79 -44 -240q0 -313 212 -313q109 0 165.5 81t56.5 228z" />
    <glyph glyph-name="ocircumflex" unicode="&#xf4;" horiz-adv-x="1058" 
d="M71 473q0 326 193 439q105 62 264 62q136 0 242 -55q63 -32 110 -87q48 -56 77.5 -150.5t29.5 -212.5q0 -227 -120 -361q-119 -132 -348 -132q-226 0 -337 133q-111 134 -111 364zM746 463q0 229 -104 298q-51 33 -121 33q-111 2 -165 -87q-44 -79 -44 -240
q0 -313 212 -313q109 0 165.5 81t56.5 228zM672 1083l-141 126l-141 -126q-20 -15 -36 -15q-4 0 -17 3l-99 21q-21 4 -21 16q0 8 8 19l157 188q30 36 54 36h189q24 0 54 -36l157 -188q9 -11 9 -18q0 -11 -22 -17l-98 -21q-15 -3 -18 -3q-17 0 -35 15z" />
    <glyph glyph-name="otilde" unicode="&#xf5;" horiz-adv-x="1058" 
d="M438 1337q32 1 67.5 -17.5t66.5 -36.5t52 -17q21 0 49.5 16t51.5 42q6 6 12 6q8 0 15 -7l72 -70q8 -8 8 -16q0 -5 -4 -14q-30 -63 -80.5 -97.5t-113.5 -34.5q-43 0 -102 35q-58 36 -83 36q-21 0 -49.5 -16t-51.5 -42q-6 -6 -12 -6q-8 0 -17 9l-71 69q-8 8 -8 15q0 6 5 14
q79 132 193 132zM71 473q0 326 193 439q105 62 264 62q136 0 242 -55q63 -32 110 -87q48 -56 77.5 -150.5t29.5 -212.5q0 -227 -120 -361q-119 -132 -348 -132q-226 0 -337 133q-111 134 -111 364zM746 463q0 229 -104 298q-51 33 -121 33q-111 2 -165 -87q-44 -79 -44 -240
q0 -313 212 -313q109 0 165.5 81t56.5 228z" />
    <glyph glyph-name="odieresis" unicode="&#xf6;" horiz-adv-x="1058" 
d="M71 473q0 326 193 439q105 62 264 62q136 0 242 -55q63 -32 110 -87q48 -56 77.5 -150.5t29.5 -212.5q0 -227 -120 -361q-119 -132 -348 -132q-226 0 -337 133q-111 134 -111 364zM746 463q0 229 -104 298q-51 33 -121 33q-111 2 -165 -87q-44 -79 -44 -240
q0 -313 212 -313q109 0 165.5 81t56.5 228zM236 1195q0 51 29 78t83 27q53 0 82.5 -27.5t29.5 -77.5q0 -49 -30 -77.5t-82 -28.5q-54 0 -83 28t-29 78zM611 1195q0 50 29 77.5t84 27.5q53 0 82 -27.5t29 -77.5q0 -49 -29.5 -77.5t-81.5 -28.5q-54 0 -83.5 28.5t-29.5 77.5z
" />
    <glyph glyph-name="divide" unicode="&#xf7;" horiz-adv-x="979" 
d="M840 455h-698q-16 0 -21 4t-5 18v155q0 21 24 21h698q15 0 20 -4.5t5 -14.5v-159q0 -13 -4.5 -16.5t-18.5 -3.5zM487 103q-60 0 -97 36t-37 96q0 57 38 97q39 40 96 40t96 -40q39 -39 39 -97q0 -60 -37.5 -96t-97.5 -36zM487 734q-60 0 -97 36t-37 96q0 57 38 97
q39 40 96 40t96 -40q39 -39 39 -97q0 -60 -37.5 -96t-97.5 -36z" />
    <glyph glyph-name="oslash" unicode="&#xf8;" horiz-adv-x="1058" 
d="M71 473q0 326 193 439q105 62 264 62q122 0 216 -42l63 108q7 12 22 12h110q14 0 14 -14q0 -4 -3 -9l-98 -168q135 -128 135 -392q0 -227 -120 -361q-119 -132 -348 -132q-90 0 -170 24l-58 -100q-12 -19 -30 -19h-106q-16 0 -16 13q0 7 4 14l90 153q-162 126 -162 412z
M312 467q0 -134 37 -208l294 501q-49 34 -122 34q-111 2 -165 -87q-44 -79 -44 -240zM746 463q0 102 -23 177l-277 -474q34 -12 78 -12q109 0 165.5 81t56.5 228z" />
    <glyph glyph-name="ugrave" unicode="&#xf9;" horiz-adv-x="1099" 
d="M148 254l3 525l-106 25q-18 4 -18 21v92q0 25 27 26l299 20q12 0 21.5 -9.5t9.5 -23.5v-603q0 -171 124 -171q112 0 211 112v651q0 31 24 31h185q24 0 24 -31v-781l93 -22q16 -4 16 -22v-71q0 -22 -25 -23l-257 -13q-6 0 -12 3q-9 6 -12 19l-25 111q-157 -148 -323 -148
q-120 0 -190 79q-69 79 -69 203zM491 1107l-197 179q-37 34 -37 51q0 14 28 14h194q18 0 30 -7t28 -28l148 -189q7 -7 7 -19q0 -16 -20 -16h-144q-21 0 -37 15z" />
    <glyph glyph-name="uacute" unicode="&#xfa;" horiz-adv-x="1099" 
d="M148 254l3 525l-106 25q-18 4 -18 21v92q0 25 27 26l299 20q12 0 21.5 -9.5t9.5 -23.5v-603q0 -171 124 -171q112 0 211 112v651q0 31 24 31h185q24 0 24 -31v-781l93 -22q16 -4 16 -22v-71q0 -22 -25 -23l-257 -13q-6 0 -12 3q-9 6 -12 19l-25 111q-157 -148 -323 -148
q-120 0 -190 79q-69 79 -69 203zM869 1298l-208 -191q-17 -15 -38 -15h-144q-20 0 -20 16q0 12 7 19l148 189q16 21 28 28t30 7h194q56 0 3 -53z" />
    <glyph glyph-name="ucircumflex" unicode="&#xfb;" horiz-adv-x="1099" 
d="M148 254l3 525l-106 25q-18 4 -18 21v92q0 25 27 26l299 20q12 0 21.5 -9.5t9.5 -23.5v-603q0 -171 124 -171q112 0 211 112v651q0 31 24 31h185q24 0 24 -31v-781l93 -22q16 -4 16 -22v-71q0 -22 -25 -23l-257 -13q-6 0 -12 3q-9 6 -12 19l-25 111q-157 -148 -323 -148
q-120 0 -190 79q-69 79 -69 203zM692 1083l-141 126l-141 -126q-20 -15 -36 -15q-4 0 -17 3l-99 21q-21 4 -21 16q0 8 8 19l157 188q30 36 54 36h189q24 0 54 -36l157 -188q9 -11 9 -18q0 -11 -22 -17l-98 -21q-15 -3 -18 -3q-17 0 -35 15z" />
    <glyph glyph-name="udieresis" unicode="&#xfc;" horiz-adv-x="1099" 
d="M148 254l3 525l-106 25q-18 4 -18 21v92q0 25 27 26l299 20q12 0 21.5 -9.5t9.5 -23.5v-603q0 -171 124 -171q112 0 211 112v651q0 31 24 31h185q24 0 24 -31v-781l93 -22q16 -4 16 -22v-71q0 -22 -25 -23l-257 -13q-6 0 -12 3q-9 6 -12 19l-25 111q-157 -148 -323 -148
q-120 0 -190 79q-69 79 -69 203zM266 1195q0 51 29 78t83 27q53 0 82.5 -27.5t29.5 -77.5q0 -49 -30 -77.5t-82 -28.5q-54 0 -83 28t-29 78zM641 1195q0 50 29 77.5t84 27.5q53 0 82 -27.5t29 -77.5q0 -49 -29.5 -77.5t-81.5 -28.5q-54 0 -83.5 28.5t-29.5 77.5z" />
    <glyph glyph-name="yacute" unicode="&#xfd;" horiz-adv-x="1091" 
d="M869 1298l-208 -191q-17 -15 -38 -15h-144q-20 0 -20 16q0 12 7 19l148 189q16 21 28 28t30 7h194q56 0 3 -53zM371 921l43 -209q52 -251 127 -479q6 -19 25 -31.5t42 -13.5q44 98 110 324q64 219 99 417q2 12 7.5 16.5t20.5 4.5h208q26 0 26 -22q0 -1 -2 -11
q-85 -301 -237 -699q-78 -202 -160 -360q-84 -163 -150 -221q-97 -86 -246 -86q-54 0 -129 8q-21 3 -21 22l13 149q1 18 21 18h60q70 0 104.5 7.5t57.5 29.5q52 46 132 215q-58 4 -95 31t-67 83q-46 90 -82 210q-45 149 -125 446l-120 27q-18 5 -18 21v88q0 23 27 26l294 29
q25 0 35 -40z" />
    <glyph glyph-name="thorn" unicode="&#xfe;" horiz-adv-x="1125" 
d="M823 491q0 154 -55.5 232.5t-174.5 78.5q-121 0 -196 -31v-588q61 -21 162 -21q119 0 191 85q73 85 73 244zM388 924q132 50 281 50q385 0 385 -473q0 -245 -132 -388q-132 -141 -340 -141q-118 0 -188 16q3 -24 3 -144v-238q0 -30 -25 -30h-184q-25 0 -25 30v1631
l-107 24q-18 5 -18 22v88q0 23 27 25l291 17q15 0 25.5 -7t10.5 -19v-349q0 -93 -4 -114z" />
    <glyph glyph-name="ydieresis" unicode="&#xff;" horiz-adv-x="1091" 
d="M371 921l43 -209q52 -251 127 -479q6 -19 25 -31.5t42 -13.5q44 98 110 324q64 219 99 417q2 12 7.5 16.5t20.5 4.5h208q26 0 26 -22q0 -1 -2 -11q-85 -301 -237 -699q-78 -202 -160 -360q-84 -163 -150 -221q-97 -86 -246 -86q-54 0 -129 8q-21 3 -21 22l13 149
q1 18 21 18h60q70 0 104.5 7.5t57.5 29.5q52 46 132 215q-58 4 -95 31t-67 83q-46 90 -82 210q-45 149 -125 446l-120 27q-18 5 -18 21v88q0 23 27 26l294 29q25 0 35 -40zM306 1195q0 51 29 78t83 27q53 0 82.5 -27.5t29.5 -77.5q0 -49 -30 -77.5t-82 -28.5q-54 0 -83 28
t-29 78zM681 1195q0 50 29 77.5t84 27.5q53 0 82 -27.5t29 -77.5q0 -49 -29.5 -77.5t-81.5 -28.5q-54 0 -83.5 28.5t-29.5 77.5z" />
    <glyph glyph-name="Amacron" unicode="&#x100;" horiz-adv-x="1191" 
d="M581 1027q-46 -149 -131 -451l-20 -69h330l-8 33l-133 487q-5 17 -15 73l-2 13h-4q-7 -46 -17 -86zM388 1098l-113 37q-20 8 -20 26v104q0 20 25 20h467q16 0 21 -14l383 -1246q2 -8 2 -9q0 -16 -14 -16h-213q-7 0 -15.5 5.5t-10.5 13.5l-86 294h-437l-87 -294
q-2 -8 -10 -13.5t-15 -5.5h-213q-14 0 -14 14q0 5 1 7zM339 1445v112q0 12 8.5 19t19.5 7h376q30 0 30 -24v-116q0 -26 -28 -26h-376q-30 0 -30 28z" />
    <glyph glyph-name="amacron" unicode="&#x101;" horiz-adv-x="962" 
d="M589 246v155h-32q-40 0 -53 -1q-18 0 -52 -3q-54 -4 -98 -21q-66 -24 -72 -105q0 -56 35 -86.5t92 -30.5q49 0 99.5 25.5t80.5 66.5zM148 904q164 70 307 70q247 0 325 -182q33 -75 33 -254v-398l98 -23q13 -3 13 -18v-72q0 -23 -23 -25l-252 -12q-8 0 -14 2
q-11 4 -12 18l-15 106q-45 -66 -116.5 -103t-150.5 -37q-116 0 -198 73q-83 74 -83 203q0 116 53 186q44 59 137 90q77 25 181 27q54 2 96 2h62v45q0 95 -45 142t-148 47q-73 0 -220 -48q-6 -2 -12 -2q-17 0 -19 11l-22 126q0 8 3 12q4 6 22 14zM245 1120v112q0 12 8.5 19
t19.5 7h376q30 0 30 -24v-116q0 -26 -28 -26h-376q-30 0 -30 28z" />
    <glyph glyph-name="Abreve" unicode="&#x102;" horiz-adv-x="1191" 
d="M581 1027q-46 -149 -131 -451l-20 -69h330l-8 33l-133 487q-5 17 -15 73l-2 13h-4q-7 -46 -17 -86zM388 1098l-113 37q-20 8 -20 26v104q0 20 25 20h467q16 0 21 -14l383 -1246q2 -8 2 -9q0 -16 -14 -16h-213q-7 0 -15.5 5.5t-10.5 13.5l-86 294h-437l-87 -294
q-2 -8 -10 -13.5t-15 -5.5h-213q-14 0 -14 14q0 5 1 7zM555 1380q-117 0 -187 66q-70 65 -85 152q0 10 14 14l114 34q3 1 6 1q10 0 14 -16q11 -32 43 -63t81 -31q48 0 81 30q34 31 44 64q5 15 16 15q5 0 7 -1l111 -33q11 -5 12 -7q1 -1 1 -7q-11 -82 -82 -150
q-73 -68 -190 -68z" />
    <glyph glyph-name="abreve" unicode="&#x103;" horiz-adv-x="962" 
d="M589 246v155h-32q-40 0 -53 -1q-18 0 -52 -3q-54 -4 -98 -21q-66 -24 -72 -105q0 -56 35 -86.5t92 -30.5q49 0 99.5 25.5t80.5 66.5zM148 904q164 70 307 70q247 0 325 -182q33 -75 33 -254v-398l98 -23q13 -3 13 -18v-72q0 -23 -23 -25l-252 -12q-8 0 -14 2
q-11 4 -12 18l-15 106q-45 -66 -116.5 -103t-150.5 -37q-116 0 -198 73q-83 74 -83 203q0 116 53 186q44 59 137 90q77 25 181 27q54 2 96 2h62v45q0 95 -45 142t-148 47q-73 0 -220 -48q-6 -2 -12 -2q-17 0 -19 11l-22 126q0 8 3 12q4 6 22 14zM465 1080q-117 0 -187 66
q-70 65 -85 152q0 10 14 14l114 34q3 1 6 1q10 0 14 -16q11 -32 43 -63t81 -31q48 0 81 30q34 31 44 64q4 15 16 15q5 0 7 -1l111 -33q11 -5 12 -7q1 -1 1 -7q-11 -82 -82 -150q-73 -68 -190 -68z" />
    <glyph glyph-name="Aogonek" unicode="&#x104;" horiz-adv-x="1191" 
d="M1144 -366q-113 -62 -227 -62q-88 0 -150 44t-62 130q0 53 26 108q25 52 56 89q36 39 87 89l17 17l-77 264h-437l-87 -294q-2 -8 -10 -13.5t-15 -5.5h-213q-14 0 -14 14q0 5 1 8l349 1076l-113 37q-20 8 -20 26v104q0 20 25 20h466q18 0 22 -15l384 -1248q1 -3 1 -7
q0 -15 -14 -15h-114q-56 -45 -84.5 -99t-28.5 -104q0 -37 21 -59.5t56 -22.5q23 0 42 7l44 12q15 3 16 3q11 0 17 -9l43 -73q2 -6 2 -7q0 -10 -9 -14zM581 1027q-46 -149 -131 -451l-20 -69h330l-8 33l-133 487q-5 17 -15 73l-2 13h-4q-7 -46 -17 -86z" />
    <glyph glyph-name="aogonek" unicode="&#x105;" horiz-adv-x="962" 
d="M915 -366q-110 -62 -227 -62q-88 0 -150 44t-62 130q0 69 35.5 130t111.5 134l-15 106q-45 -66 -116.5 -103t-150.5 -37q-116 0 -198 73q-83 74 -83 203q0 116 53 186q44 59 137 90q77 25 181 27q54 2 96 2h62v45q0 95 -45 142t-148 47q-73 0 -220 -48q-6 -2 -12 -2
q-17 0 -19 11l-22 124q0 16 23 27q166 71 309 71q247 0 325 -181q33 -75 33 -255v-398l97 -23q14 -3 14 -21v-69q0 -23 -23 -25l-109 -5q-54 -45 -81.5 -98.5t-27.5 -101.5q0 -37 21 -59.5t56 -22.5q23 0 42 7l44 12q15 3 16 3q10 0 16 -10l44 -72q2 -6 2 -7q0 -10 -9 -14z
M589 246v155h-32q-40 0 -53 -1q-18 0 -52 -3q-54 -4 -98 -21q-66 -24 -72 -105q0 -56 35 -86.5t92 -30.5q49 0 99.5 25.5t80.5 66.5z" />
    <glyph glyph-name="Cacute" unicode="&#x106;" horiz-adv-x="1087" 
d="M869 988l-33 114q-67 21 -127 21q-182 0 -286 -131q-103 -130 -103 -348q0 -239 94 -358.5t291 -119.5q50 0 106 10q67 12 93 20l34 11q13 4 21 4q12 0 20 -20l40 -118q2 -10 2 -11q0 -16 -19 -26q-8 -6 -41 -19q-30 -12 -108 -27q-76 -16 -163 -16q-304 0 -461.5 167.5
t-157.5 493.5q0 310 162 493q163 183 449 183q169 0 319 -58q22 -9 25 -19q1 -2 1 -13l-11 -230q-2 -21 -21 -21h-105q-10 0 -14 3.5t-7 14.5zM908 1617l-208 -191q-18 -15 -38 -15h-144q-20 0 -20 16q0 12 7 19l148 189q16 21 28 28t30 7h194q56 0 3 -53z" />
    <glyph glyph-name="cacute" unicode="&#x107;" horiz-adv-x="908" 
d="M789 1298l-208 -191q-17 -15 -38 -15h-144q-20 0 -20 16q0 12 7 19l148 189q16 21 28 28t30 7h194q56 0 3 -53zM649 779q-49 9 -104 9q-112 0 -172.5 -80t-60.5 -223q0 -183 106 -276q56 -49 137 -49q107 0 233 39q17 5 21 5q14 0 17 -14q22 -141 22 -145q0 -16 -12 -20
q-6 -2 -40 -14q-26 -8 -100 -21q-76 -14 -143 -14q-236 0 -359 130t-123 375q0 221 123 356q124 136 342 136q78 0 187 -23q65 -14 81 -22q17 -8 17 -26l-12 -227q-2 -20 -20 -20h-72q-19 0 -22 12l-26 108q-13 3 -20 4z" />
    <glyph glyph-name="Ccircumflex" unicode="&#x108;" horiz-adv-x="1087" 
d="M756 1406l-141 126l-141 -126q-20 -15 -36 -15q-3 0 -17 3l-99 21q-21 5 -21 16q0 8 8 19l157 188q30 36 54 36h189q24 0 54 -36l157 -188q9 -10 9 -18q0 -13 -22 -17l-98 -21q-15 -3 -18 -3q-17 0 -35 15zM869 988l-33 114q-67 21 -127 21q-182 0 -286 -131
q-103 -130 -103 -348q0 -239 94 -358.5t291 -119.5q50 0 106 10q67 12 93 20l34 11q13 4 21 4q12 0 20 -20l40 -118q2 -10 2 -11q0 -16 -19 -26q-8 -6 -41 -19q-30 -12 -108 -27q-76 -16 -163 -16q-304 0 -461.5 167.5t-157.5 493.5q0 310 162 493q163 183 449 183
q169 0 319 -58q22 -9 25 -19q1 -2 1 -13l-11 -230q-2 -21 -21 -21h-105q-10 0 -14 3.5t-7 14.5z" />
    <glyph glyph-name="ccircumflex" unicode="&#x109;" horiz-adv-x="908" 
d="M649 779q-49 9 -104 9q-112 0 -172.5 -80t-60.5 -223q0 -183 106 -276q56 -49 137 -49q107 0 233 39q17 5 21 5q14 0 17 -14q22 -141 22 -145q0 -16 -12 -20q-6 -2 -40 -14q-26 -8 -100 -21q-76 -14 -143 -14q-236 0 -359 130t-123 375q0 221 123 356q124 136 342 136
q78 0 187 -23q65 -14 81 -22q17 -8 17 -26l-12 -227q-2 -20 -20 -20h-72q-19 0 -22 12l-26 108q-13 3 -20 4zM662 1083l-141 126l-141 -126q-20 -15 -36 -15q-4 0 -17 3l-99 21q-21 4 -21 16q0 8 8 19l157 188q30 36 54 36h189q24 0 54 -36l157 -188q9 -11 9 -18
q0 -11 -22 -17l-98 -21q-15 -3 -18 -3q-17 0 -35 15z" />
    <glyph glyph-name="Cdotaccent" unicode="&#x10a;" horiz-adv-x="1087" 
d="M869 988l-33 114q-67 21 -127 21q-182 0 -286 -131q-103 -130 -103 -348q0 -239 94 -358.5t291 -119.5q50 0 106 10q67 12 93 20l34 11q13 4 21 4q12 0 20 -20l40 -118q2 -10 2 -11q0 -16 -19 -26q-8 -6 -41 -19q-30 -12 -108 -27q-76 -16 -163 -16q-304 0 -461.5 167.5
t-157.5 493.5q0 310 162 493q163 183 449 183q169 0 319 -58q22 -9 25 -19q1 -2 1 -13l-11 -230q-2 -21 -21 -21h-105q-10 0 -14 3.5t-7 14.5zM646 1653q60 0 94 -32.5t34 -89.5t-34 -89.5t-94 -32.5t-93.5 32.5t-33.5 89.5t33.5 89.5t93.5 32.5z" />
    <glyph glyph-name="cdotaccent" unicode="&#x10b;" horiz-adv-x="908" 
d="M649 779q-49 9 -104 9q-112 0 -172.5 -80t-60.5 -223q0 -183 106 -276q56 -49 137 -49q107 0 233 39q17 5 21 5q14 0 17 -14q22 -141 22 -145q0 -16 -12 -20q-6 -2 -40 -14q-26 -8 -100 -21q-76 -14 -143 -14q-236 0 -359 130t-123 375q0 221 123 356q124 136 342 136
q78 0 187 -23q65 -14 81 -22q17 -8 17 -26l-12 -227q-2 -20 -20 -20h-72q-19 0 -22 12l-26 108q-13 3 -20 4zM509 1322q60 0 94 -32.5t34 -89.5t-34 -89.5t-94 -32.5t-93.5 32.5t-33.5 89.5t33.5 89.5t93.5 32.5z" />
    <glyph glyph-name="Ccaron" unicode="&#x10c;" horiz-adv-x="1087" 
d="M869 988l-33 114q-67 21 -127 21q-182 0 -286 -131q-103 -130 -103 -348q0 -239 94 -358.5t291 -119.5q50 0 106 10q67 12 93 20l34 11q13 4 21 4q12 0 20 -20l40 -118q2 -10 2 -11q0 -16 -19 -26q-8 -6 -41 -19q-30 -12 -108 -27q-76 -16 -163 -16q-304 0 -461.5 167.5
t-157.5 493.5q0 310 162 493q163 183 449 183q169 0 319 -58q22 -9 25 -19q1 -2 1 -13l-11 -230q-2 -21 -21 -21h-105q-10 0 -14 3.5t-7 14.5zM501 1683l145 -130l142 127q17 14 32 14q3 0 18 -3l100 -21q21 -4 21 -16q0 -8 -8 -19l-160 -192q-29 -32 -51 -32h-189
q-25 0 -54 36l-157 188q-8 10 -8 19q0 12 21 16l119 25q17 0 29 -12z" />
    <glyph glyph-name="ccaron" unicode="&#x10d;" horiz-adv-x="908" 
d="M649 779q-49 9 -104 9q-112 0 -172.5 -80t-60.5 -223q0 -183 106 -276q56 -49 137 -49q107 0 233 39q17 5 21 5q14 0 17 -14q22 -141 22 -145q0 -16 -12 -20q-6 -2 -40 -14q-26 -8 -100 -21q-76 -14 -143 -14q-236 0 -359 130t-123 375q0 221 123 356q124 136 342 136
q78 0 187 -23q65 -14 81 -22q17 -8 17 -26l-12 -227q-2 -20 -20 -20h-72q-19 0 -22 12l-26 108q-13 3 -20 4zM362 1363l145 -130l142 127q17 14 32 14q3 0 18 -3l100 -21q21 -4 21 -16q0 -8 -8 -19l-160 -192q-29 -32 -51 -32h-189q-26 0 -54 36l-157 188q-8 10 -8 19
q0 12 21 16l119 25q17 0 29 -12z" />
    <glyph glyph-name="Dcaron" unicode="&#x10e;" horiz-adv-x="1253" 
d="M432 1099v-921q31 -4 99 -4q197 0 306 130q110 131 110 345q2 252 -126 365q-98 85 -285 85h-104zM85 1285q74 0 338 3q35 1 133 1q312 0 477 -162.5t165 -480.5q0 -311 -169 -486q-170 -176 -466 -176q-168 0 -309 10q-61 4 -61 39v1065l-113 37q-20 8 -20 26v104
q0 20 25 20zM431 1683l145 -130l142 127q17 14 32 14q3 0 18 -3l100 -21q21 -4 21 -16q0 -8 -8 -19l-160 -192q-29 -32 -51 -32h-189q-25 0 -54 36l-157 188q-8 10 -8 19q0 12 21 16l119 25q17 0 29 -12z" />
    <glyph glyph-name="dcaron" unicode="&#x10f;" horiz-adv-x="1331" 
d="M302 465v-8q0 -104 40 -194q22 -49 68.5 -80t110.5 -35q108 3 203 102v513q-69 20 -167 20q-121 0 -188 -81t-67 -237zM724 1014v235l-108 25q-17 5 -17 22v87q0 24 26 26l301 20q13 0 22 -9.5t9 -22.5v-1261l86 -20q16 -4 16 -22v-71q0 -22 -25 -23l-257 -13q-9 0 -13 3
q-6 4 -11 19l-23 85q-133 -118 -283 -118q-239 0 -327 213q-49 120 -49 286q0 231 128 365t335 134q95 0 192 -17q-2 22 -2 57zM1309 1385l-119 -297q-9 -22 -24 -22h-116q-14 0 -14 13q0 11 4 34l48 282q3 26 30 26h179q19 0 19 -11q0 -10 -7 -25z" />
    <glyph glyph-name="Dcroat" unicode="&#x110;" horiz-adv-x="1253" 
d="M85 1285q74 0 338 3q35 1 133 1q312 0 477 -162.5t165 -480.5q0 -311 -169 -486q-170 -176 -466 -176h-27q-199 0 -285 10q-19 2 -28.5 4t-18 10t-11.5 22v541h-108q-15 0 -20 4.5t-5 18.5v128q0 20 23 20h110v356l-113 37q-20 8 -20 26v104q0 20 25 20zM432 1099v-357
h165q15 0 19.5 -4t4.5 -14v-132q0 -14 -4.5 -17.5t-17.5 -3.5h-167v-393q31 -4 99 -4q197 0 306 130q110 131 110 345q2 252 -126 365q-98 85 -285 85h-104z" />
    <glyph glyph-name="dslash" unicode="&#x111;" horiz-adv-x="1119" 
d="M724 1014v24h-183q-15 0 -19.5 3t-4.5 14v125q0 17 22 17h185v52l-108 25q-17 5 -17 21v88q0 24 26 26l301 20q13 0 22 -9t9 -23v-200h90q15 0 19 -3t4 -12v-128q0 -11 -4 -13.5t-17 -2.5h-92v-902l86 -20q16 -4 16 -22v-71q0 -22 -25 -23l-257 -13q-9 0 -13 2
q-6 5 -9 16l-25 89q-133 -118 -283 -118q-239 0 -327 213q-49 120 -49 286q0 231 128 365t335 134q95 0 192 -17q-2 22 -2 57zM302 465v-8q0 -115 46 -206q24 -48 70 -75.5t106 -27.5q102 0 200 102v513q-69 20 -167 20q-121 0 -188 -81t-67 -237z" />
    <glyph glyph-name="Emacron" unicode="&#x112;" horiz-adv-x="1041" 
d="M796 595h-364v-396h508q24 0 24 -29v-140q0 -30 -24 -30h-723q-24 0 -24 30v1068l-113 37q-20 8 -20 26v104q0 20 25 20h850q35 0 35 -34v-130q0 -35 -35 -35h-503v-292h364q17 0 26 -9.5t9 -25.5v-130q0 -34 -35 -34zM315 1445v112q0 12 8.5 19t19.5 7h376q30 0 30 -24
v-116q0 -26 -28 -26h-376q-30 0 -30 28z" />
    <glyph glyph-name="emacron" unicode="&#x113;" horiz-adv-x="956" 
d="M889 456q0 -29 -29 -29h-564q7 -136 78.5 -200.5t213.5 -64.5q96 0 226 45l8 2q18 0 21 -24l19 -132q0 -16 -16 -22q-137 -55 -305 -55q-225 0 -348 130q-122 131 -122 365q0 304 188 435q98 68 232 68q211 0 304 -127q94 -125 94 -391zM501 800q-83 0 -132 -57
q-48 -54 -65 -141h363q-6 96 -48.5 147t-117.5 51zM295 1120v112q0 12 8.5 19t19.5 7h376q30 0 30 -24v-116q0 -26 -28 -26h-376q-30 0 -30 28z" />
    <glyph glyph-name="Ebreve" unicode="&#x114;" horiz-adv-x="1041" 
d="M796 595h-364v-396h508q24 0 24 -29v-140q0 -30 -24 -30h-723q-24 0 -24 30v1068l-113 37q-20 8 -20 26v104q0 20 25 20h850q35 0 35 -34v-130q0 -35 -35 -35h-503v-292h364q17 0 26 -9.5t9 -25.5v-130q0 -34 -35 -34zM568 1380q-117 0 -187 66q-70 65 -85 152
q0 10 14 14l114 34q3 1 6 1q10 0 14 -16q11 -32 43 -63t81 -31q48 0 81 30q34 31 44 64q4 15 16 15q5 0 7 -1l111 -33q11 -5 12 -7q1 -1 1 -7q-11 -82 -82 -150q-73 -68 -190 -68z" />
    <glyph glyph-name="ebreve" unicode="&#x115;" horiz-adv-x="956" 
d="M889 456q0 -29 -29 -29h-564q7 -136 78.5 -200.5t213.5 -64.5q96 0 226 45l8 2q18 0 21 -24l19 -132q0 -16 -16 -22q-137 -55 -305 -55q-225 0 -348 130q-122 131 -122 365q0 304 188 435q98 68 232 68q211 0 304 -127q94 -125 94 -391zM501 800q-83 0 -132 -57
q-48 -54 -65 -141h363q-6 96 -48.5 147t-117.5 51zM495 1080q-117 0 -187 66q-70 65 -85 152q0 10 14 14l114 34q3 1 6 1q10 0 14 -16q11 -32 43 -63t81 -31q48 0 81 30q34 31 44 64q5 15 16 15q5 0 7 -1l111 -33q11 -5 12 -7q1 -1 1 -7q-11 -82 -82 -150q-73 -68 -190 -68z
" />
    <glyph glyph-name="Edotaccent" unicode="&#x116;" horiz-adv-x="1041" 
d="M796 595h-364v-396h508q24 0 24 -29v-140q0 -30 -24 -30h-723q-24 0 -24 30v1068l-113 37q-20 8 -20 26v104q0 20 25 20h850q35 0 35 -34v-130q0 -35 -35 -35h-503v-292h364q17 0 26 -9.5t9 -25.5v-130q0 -34 -35 -34zM552 1655q60 0 94 -32.5t34 -89.5t-34 -89.5
t-94 -32.5t-93.5 32.5t-33.5 89.5t33.5 89.5t93.5 32.5z" />
    <glyph glyph-name="edotaccent" unicode="&#x117;" horiz-adv-x="956" 
d="M889 456q0 -29 -29 -29h-564q7 -136 78.5 -200.5t213.5 -64.5q96 0 226 45l8 2q18 0 21 -24l19 -132q0 -16 -16 -22q-137 -55 -305 -55q-225 0 -348 130q-122 131 -122 365q0 304 188 435q98 68 232 68q211 0 304 -127q94 -125 94 -391zM501 800q-83 0 -132 -57
q-48 -54 -65 -141h363q-6 96 -48.5 147t-117.5 51zM497 1322q60 0 94 -32.5t34 -89.5t-34 -89.5t-94 -32.5t-93.5 32.5t-33.5 89.5t33.5 89.5t93.5 32.5z" />
    <glyph glyph-name="Eogonek" unicode="&#x118;" horiz-adv-x="1041" 
d="M796 595h-364v-396h508q24 0 24 -28v-141q0 -30 -24 -30h-105q-56 -45 -84.5 -99t-28.5 -104q0 -37 21 -59.5t56 -22.5q23 0 42 7q5 1 13.5 3.5t18 5t12.5 3.5q15 3 16 3q10 0 16 -9l44 -73q2 -6 2 -7q0 -10 -9 -14q-110 -62 -227 -62q-88 0 -150 44t-62 130
q0 68 33.5 127t103.5 127h-435q-24 0 -24 30v1068l-113 37q-20 8 -20 26v104q0 20 25 20h850q35 0 35 -35v-129q0 -35 -35 -35h-503v-292h364q17 0 26 -9.5t9 -25.5v-130q0 -34 -35 -34z" />
    <glyph glyph-name="eogonek" unicode="&#x119;" horiz-adv-x="956" 
d="M852 -366q-110 -62 -227 -62q-88 0 -150 44t-62 130q0 112 114 231q-220 5 -338 133q-118 130 -118 361q0 304 188 435q98 68 232 68q211 0 304 -127q94 -125 94 -391q0 -29 -29 -29h-564q7 -136 78.5 -200.5t213.5 -64.5q96 0 226 45q8 2 10 2q16 0 19 -24l20 -131
q0 -15 -17 -23q-60 -24 -118 -35q-53 -44 -80.5 -97.5t-27.5 -101.5q0 -37 21 -59.5t56 -22.5q30 0 86 19q11 4 16 4q11 0 17 -12l43 -71q2 -6 2 -7q0 -10 -9 -14zM501 800q-83 0 -132 -57q-48 -54 -65 -141h363q-6 96 -48.5 147t-117.5 51z" />
    <glyph glyph-name="Ecaron" unicode="&#x11a;" horiz-adv-x="1041" 
d="M796 595h-364v-396h508q24 0 24 -29v-140q0 -30 -24 -30h-723q-24 0 -24 30v1068l-113 37q-20 8 -20 26v104q0 20 25 20h850q35 0 35 -34v-130q0 -35 -35 -35h-503v-292h364q17 0 26 -9.5t9 -25.5v-130q0 -34 -35 -34zM401 1683l145 -130l142 127q17 14 32 14q3 0 18 -3
l100 -21q21 -4 21 -16q0 -8 -8 -19l-160 -192q-29 -32 -51 -32h-189q-26 0 -54 36l-157 188q-8 10 -8 19q0 12 21 16l119 25q17 0 29 -12z" />
    <glyph glyph-name="ecaron" unicode="&#x11b;" horiz-adv-x="956" 
d="M889 456q0 -29 -29 -29h-564q7 -136 78.5 -200.5t213.5 -64.5q96 0 226 45l8 2q18 0 21 -24l19 -132q0 -16 -16 -22q-137 -55 -305 -55q-225 0 -348 130q-122 131 -122 365q0 304 188 435q98 68 232 68q211 0 304 -127q94 -125 94 -391zM501 800q-83 0 -132 -57
q-48 -54 -65 -141h363q-6 96 -48.5 147t-117.5 51zM362 1363l145 -130l142 127q17 14 32 14q3 0 18 -3l100 -21q21 -4 21 -16q0 -8 -8 -19l-160 -192q-29 -32 -51 -32h-189q-26 0 -54 36l-157 188q-8 10 -8 19q0 12 21 16l119 25q17 0 29 -12z" />
    <glyph glyph-name="Gcircumflex" unicode="&#x11c;" horiz-adv-x="1203" 
d="M777 1406l-141 126l-141 -126q-19 -15 -36 -15q-3 0 -17 3l-99 21q-21 5 -21 16q0 8 8 19l157 188q30 36 54 36h189q24 0 54 -36l157 -188q9 -10 9 -18q0 -13 -22 -17l-98 -21q-15 -3 -18 -3q-18 0 -35 15zM702 656h379q12 0 15 -2.5t3 -12.5v-550q0 -28 -38 -46
q-5 -3 -49 -20q-36 -12 -131 -30q-94 -19 -197 -19q-300 0 -456.5 168.5t-156.5 492.5q0 140 45 264t129 215q85 92 209 143.5t271 51.5q173 0 328 -58q18 -9 25 -20q2 -4 2 -12l-11 -230q-1 -21 -22 -21h-104q-10 0 -14 3.5t-7 14.5l-33 114q-78 23 -160 23
q-121 0 -216 -66q-93 -65 -143 -175q-48 -108 -48 -238q0 -480 377 -480q84 0 180 19v286h-177q-35 0 -35 34v116q0 16 9 25.5t26 9.5z" />
    <glyph glyph-name="gcircumflex" unicode="&#x11d;" horiz-adv-x="1046" 
d="M681 1083l-141 126l-141 -126q-19 -15 -36 -15q-3 0 -17 3l-99 21q-21 4 -21 16q0 8 8 19l157 188q30 36 54 36h189q24 0 54 -36l157 -188q9 -11 9 -18q0 -11 -22 -17l-98 -21q-15 -3 -18 -3q-18 0 -35 15zM302 463q0 -116 46 -208q25 -49 70.5 -77.5t106.5 -28.5
q100 0 183 89v517q-76 21 -147 21q-124 0 -191.5 -77.5t-67.5 -235.5zM930 881v-767q0 -153 -20 -254q-23 -114 -89 -189q-103 -120 -355 -120q-182 0 -299 49q-15 8 -15 20v161q0 15 16 15q1 0 9 -2q117 -48 245 -48q172 0 230 68q30 35 42.5 81t12.5 119v56
q-68 -51 -128.5 -72.5t-131.5 -21.5q-101 0 -176.5 40t-118.5 112q-81 139 -81 343q0 233 126 368q127 135 333 135q154 0 370 -59q30 -9 30 -34z" />
    <glyph glyph-name="Gbreve" unicode="&#x11e;" horiz-adv-x="1203" 
d="M702 656h379q12 0 15 -2.5t3 -12.5v-550q0 -28 -38 -46q-5 -3 -49 -20q-36 -12 -131 -30q-94 -19 -197 -19q-300 0 -456.5 168.5t-156.5 492.5q0 140 45 264t129 215q85 92 209 143.5t271 51.5q173 0 328 -58q18 -9 25 -20q2 -4 2 -12l-11 -230q-1 -21 -22 -21h-104
q-10 0 -14 3.5t-7 14.5l-33 114q-78 23 -160 23q-121 0 -216 -66q-93 -65 -143 -175q-48 -108 -48 -238q0 -480 377 -480q84 0 180 19v286h-177q-35 0 -35 34v116q0 16 9 25.5t26 9.5zM638 1380q-117 0 -187 66q-70 65 -85 152q0 10 14 14l114 34q3 1 6 1q10 0 14 -16
q11 -32 43 -63t81 -31q48 0 81 30q34 31 44 64q4 15 16 15q5 0 7 -1l111 -33q11 -5 12 -7q1 -1 1 -7q-11 -82 -82 -150q-73 -68 -190 -68z" />
    <glyph glyph-name="gbreve" unicode="&#x11f;" horiz-adv-x="1046" 
d="M302 463q0 -116 46 -208q25 -49 70.5 -77.5t106.5 -28.5q100 0 183 89v517q-76 21 -147 21q-124 0 -191.5 -77.5t-67.5 -235.5zM930 881v-767q0 -153 -20 -254q-23 -114 -89 -189q-103 -120 -355 -120q-182 0 -299 49q-15 8 -15 20v161q0 15 16 15q1 0 9 -2
q117 -48 245 -48q172 0 230 68q30 35 42.5 81t12.5 119v56q-68 -51 -128.5 -72.5t-131.5 -21.5q-101 0 -176.5 40t-118.5 112q-81 139 -81 343q0 233 126 368q127 135 333 135q154 0 370 -59q30 -9 30 -34zM555 1080q-117 0 -187 66q-70 65 -85 152q0 10 14 14l114 34
q3 1 6 1q10 0 14 -16q11 -32 43 -63t81 -31q48 0 81 30q34 31 44 64q5 15 16 15q5 0 7 -1l111 -33q11 -5 12 -7q1 -1 1 -7q-11 -82 -82 -150q-73 -68 -190 -68z" />
    <glyph glyph-name="Gdotaccent" unicode="&#x120;" horiz-adv-x="1203" 
d="M702 656h379q12 0 15 -2.5t3 -12.5v-550q0 -28 -38 -46q-5 -3 -49 -20q-36 -12 -131 -30q-94 -19 -197 -19q-300 0 -456.5 168.5t-156.5 492.5q0 140 45 264t129 215q85 92 209 143.5t271 51.5q173 0 328 -58q18 -9 25 -20q2 -4 2 -12l-11 -230q-1 -21 -22 -21h-104
q-10 0 -14 3.5t-7 14.5l-33 114q-78 23 -160 23q-121 0 -216 -66q-93 -65 -143 -175q-48 -108 -48 -238q0 -480 377 -480q84 0 180 19v286h-177q-35 0 -35 34v116q0 16 9 25.5t26 9.5zM656 1655q60 0 94 -32.5t34 -89.5t-34 -89.5t-94 -32.5t-93.5 32.5t-33.5 89.5
t33.5 89.5t93.5 32.5z" />
    <glyph glyph-name="gdotaccent" unicode="&#x121;" horiz-adv-x="1046" 
d="M302 463q0 -116 46 -208q25 -49 70.5 -77.5t106.5 -28.5q100 0 183 89v517q-76 21 -147 21q-124 0 -191.5 -77.5t-67.5 -235.5zM930 881v-767q0 -153 -20 -254q-23 -114 -89 -189q-103 -120 -355 -120q-182 0 -299 49q-15 8 -15 20v161q0 15 16 15q1 0 9 -2
q117 -48 245 -48q172 0 230 68q30 35 42.5 81t12.5 119v56q-68 -51 -128.5 -72.5t-131.5 -21.5q-101 0 -176.5 40t-118.5 112q-81 139 -81 343q0 233 126 368q127 135 333 135q154 0 370 -59q30 -9 30 -34zM559 1322q60 0 94 -32.5t34 -89.5t-34 -89.5t-94 -32.5t-93.5 32.5
t-33.5 89.5t33.5 89.5t93.5 32.5z" />
    <glyph glyph-name="Gcommaaccent" unicode="&#x122;" horiz-adv-x="1203" 
d="M702 656h379q12 0 15 -2.5t3 -12.5v-550q0 -28 -38 -46q-5 -3 -49 -20q-36 -12 -131 -30q-94 -19 -197 -19q-300 0 -456.5 168.5t-156.5 492.5q0 140 45 264t129 215q85 92 209 143.5t271 51.5q173 0 328 -58q18 -9 25 -20q2 -4 2 -12l-11 -230q-1 -21 -22 -21h-104
q-10 0 -14 3.5t-7 14.5l-33 114q-78 23 -160 23q-121 0 -216 -66q-93 -65 -143 -175q-48 -108 -48 -238q0 -480 377 -480q84 0 180 19v286h-177q-35 0 -35 34v116q0 16 9 25.5t26 9.5zM771 -129l-119 -297q-9 -22 -24 -22h-116q-14 0 -14 13q0 11 4 34l48 282q3 26 30 26
h179q19 0 19 -11q0 -10 -7 -25z" />
    <glyph glyph-name="gcommaaccent" unicode="&#x123;" horiz-adv-x="1046" 
d="M468 1129l119 297q9 22 24 22h116q14 0 14 -13q0 -7 -4 -30l-48 -286q-5 -26 -30 -26h-179q-19 0 -19 11q0 10 7 25zM302 463q0 -116 46 -208q25 -49 70.5 -77.5t106.5 -28.5q100 0 183 89v517q-76 21 -147 21q-124 0 -191.5 -77.5t-67.5 -235.5zM930 881v-767
q0 -153 -20 -254q-23 -114 -89 -189q-103 -120 -355 -120q-182 0 -299 49q-15 8 -15 20v161q0 15 16 15q1 0 9 -2q117 -48 245 -48q172 0 230 68q30 35 42.5 81t12.5 119v56q-68 -51 -128.5 -72.5t-131.5 -21.5q-101 0 -176.5 40t-118.5 112q-81 139 -81 343q0 233 126 368
q127 135 333 135q154 0 370 -59q30 -9 30 -34z" />
    <glyph glyph-name="Hcircumflex" unicode="&#x124;" horiz-adv-x="1292" 
d="M826 1406l-141 126l-141 -126q-20 -15 -36 -15q-4 0 -17 3l-99 21q-21 5 -21 16q0 8 8 19l157 188q30 36 54 36h189q24 0 54 -36l157 -188q9 -10 9 -18q0 -13 -22 -17l-98 -21q-15 -3 -18 -3q-17 0 -35 15zM193 1098l-113 37q-20 8 -20 26v104q0 20 25 20h312
q35 0 35 -35v-527h482v532q0 30 25 30h190q25 0 25 -30v-1225q0 -30 -25 -30h-190q-25 0 -25 30v494h-482v-494q0 -30 -24 -30h-191q-24 0 -24 30v1068z" />
    <glyph glyph-name="hcircumflex" unicode="&#x125;" horiz-adv-x="1199" 
d="M462 1526l-141 126l-141 -126q-20 -15 -36 -15q-4 0 -17 3l-99 21q-21 5 -21 16q0 8 8 19l157 188q30 36 54 36h189q24 0 54 -36l157 -188q9 -10 9 -18q0 -13 -22 -17l-98 -21q-15 -3 -18 -3q-17 0 -35 15zM1124 3l-298 -12q-10 0 -17 7.5t-7 18.5v596q0 83 -33.5 126.5
t-96.5 43.5q-58 0 -115.5 -30t-99.5 -85v-638q0 -30 -25 -30h-184q-25 0 -25 30v1219l-107 25q-18 4 -18 22v87q0 25 27 26l300 20q13 0 22.5 -9.5t9.5 -22.5v-490q0 -54 -4 -75q148 142 319 142q125 0 194.5 -75t69.5 -207v-548l98 -25q15 -4 15 -22v-71q0 -22 -25 -23z
" />
    <glyph glyph-name="Hbar" unicode="&#x126;" horiz-adv-x="1350" 
d="M193 1098l-113 37q-20 8 -20 26v104q0 20 25 20h312q35 0 35 -35v-207h482v212q0 30 25 30h190q25 0 25 -30v-212h100q16 0 20.5 -3.5t4.5 -14.5v-132q0 -12 -4.5 -16t-17.5 -4h-103v-843q0 -30 -25 -30h-190q-25 0 -25 30v494h-482v-494q0 -30 -24 -30h-191
q-24 0 -24 30v843h-108q-16 0 -20.5 4t-4.5 18v128q0 20 23 20h110v55zM432 723h482v150h-482v-150z" />
    <glyph glyph-name="hbar" unicode="&#x127;" horiz-adv-x="1127" 
d="M1053 3l-295 -12q-9 0 -15 3q-12 6 -12 23v596q0 83 -33.5 126.5t-96.5 43.5q-58 0 -115.5 -30t-99.5 -85v-638q0 -30 -25 -30h-184q-25 0 -25 30v978h-98q-15 0 -19.5 3t-4.5 14v125q0 17 22 17h100v82l-107 25q-18 4 -18 21v88q0 25 27 26l300 20q14 0 23 -9.5t9 -22.5
v-230h174q15 0 19 -3t4 -12v-128q0 -11 -4 -13.5t-17 -2.5h-176v-101q0 -54 -4 -75q148 142 319 142q125 0 194.5 -75t69.5 -207v-548l98 -25q15 -4 15 -22v-71q0 -22 -25 -23z" />
    <glyph glyph-name="Itilde" unicode="&#x128;" horiz-adv-x="712" 
d="M258 1654q32 1 67.5 -17.5t66.5 -36.5t52 -17q21 0 49.5 16t51.5 42q6 6 12 6q8 0 15 -7l72 -70q8 -8 8 -16q0 -5 -4 -14q-30 -63 -80.5 -97.5t-113.5 -34.5q-43 0 -102 35q-58 36 -83 36q-21 0 -49.5 -16t-51.5 -42q-6 -6 -12 -6q-8 0 -17 9l-71 69q-8 8 -8 15q0 6 5 14
q79 132 193 132zM474 187l133 -37q20 -6 20 -26v-104q0 -20 -25 -20h-496q-25 0 -25 20v104q0 20 20 26l133 37v911l-133 37q-20 6 -20 26v104q0 20 25 20h496q25 0 25 -20v-104q0 -20 -20 -26l-133 -37v-911z" />
    <glyph glyph-name="itilde" unicode="&#x129;" horiz-adv-x="618" 
d="M208 1337q32 1 67.5 -17.5t66.5 -36.5t52 -17q21 0 49.5 16t51.5 42q6 6 12 6q8 0 15 -7l72 -70q8 -8 8 -16q0 -5 -4 -14q-30 -63 -80.5 -97.5t-113.5 -34.5q-43 0 -102 35q-59 36 -83 36q-21 0 -49.5 -16t-51.5 -42q-6 -6 -12 -6q-8 0 -17 9l-71 69q-8 8 -8 15q0 6 5 14
q80 132 193 132zM437 159l118 -24q17 -5 17 -21v-89q0 -23 -27 -25l-310 -24q-13 0 -22.5 9t-9.5 23v774l-107 25q-18 5 -18 21v88q0 24 27 26l300 20q14 0 23 -9.5t9 -23.5v-770z" />
    <glyph glyph-name="Imacron" unicode="&#x12a;" horiz-adv-x="688" 
d="M464 187l133 -37q20 -6 20 -26v-104q0 -20 -25 -20h-496q-25 0 -25 20v104q0 20 20 26l133 37v911l-133 37q-20 6 -20 26v104q0 20 25 20h496q25 0 25 -20v-104q0 -20 -20 -26l-133 -37v-911zM130 1445v112q0 12 8.5 19t19.5 7h376q30 0 30 -24v-116q0 -26 -28 -26h-376
q-30 0 -30 28z" />
    <glyph glyph-name="imacron" unicode="&#x12b;" horiz-adv-x="562" 
d="M35 1120v112q0 12 8.5 19t19.5 7h376q30 0 30 -24v-116q0 -26 -28 -26h-376q-30 0 -30 28zM398 159l118 -24q17 -5 17 -21v-89q0 -23 -27 -25l-310 -24q-14 0 -23 9t-9 23v774l-107 25q-18 5 -18 21v88q0 24 27 26l300 20q14 0 23 -9.5t9 -23.5v-770z" />
    <glyph glyph-name="Ibreve" unicode="&#x12c;" horiz-adv-x="688" 
d="M464 187l133 -37q20 -6 20 -26v-104q0 -20 -25 -20h-496q-25 0 -25 20v104q0 20 20 26l133 37v911l-133 37q-20 6 -20 26v104q0 20 25 20h496q25 0 25 -20v-104q0 -20 -20 -26l-133 -37v-911zM338 1380q-116 0 -187 66q-70 65 -85 152q0 10 14 14l114 34q3 1 6 1
q10 0 14 -16q11 -32 43 -63t81 -31q48 0 81 30q34 31 44 64q5 15 16 15q5 0 7 -1l111 -33q11 -5 12 -7q1 -1 1 -7q-11 -82 -82 -150q-73 -68 -190 -68z" />
    <glyph glyph-name="ibreve" unicode="&#x12d;" horiz-adv-x="566" 
d="M417 159l118 -24q17 -5 17 -21v-89q0 -23 -27 -25l-310 -24q-13 0 -22.5 9t-9.5 23v774l-107 25q-18 5 -18 21v88q0 24 27 26l300 20q14 0 23 -9.5t9 -23.5v-770zM275 1080q-117 0 -187 66q-70 65 -85 152q0 10 14 14l114 34q3 1 6 1q10 0 14 -16q11 -32 43 -63t81 -31
q48 0 81 30q34 31 44 64q4 15 16 15q5 0 7 -1l111 -33q11 -5 12 -7q1 -1 1 -7q-11 -82 -82 -150q-73 -68 -190 -68z" />
    <glyph glyph-name="Iogonek" unicode="&#x12e;" horiz-adv-x="688" 
d="M577 -366q-110 -62 -227 -62q-88 0 -150 44t-62 130q0 68 33.5 127t103.5 127h-179q-25 0 -25 20v104q0 20 20 26l133 37v911l-133 37q-20 6 -20 26v104q0 20 25 20h496q25 0 25 -20v-104q0 -20 -20 -26l-133 -37v-911l133 -37q20 -6 20 -26v-104q0 -20 -25 -20h-134
q-56 -45 -84.5 -99t-28.5 -104q0 -37 21 -59.5t56 -22.5q23 0 42 7q5 1 13.5 3.5t18 5t12.5 3.5l8 2q7 2 9 2q10 0 16 -10l43 -73q2 -6 2 -8q0 -9 -9 -13z" />
    <glyph glyph-name="iogonek" unicode="&#x12f;" horiz-adv-x="559" 
d="M472 -366q-110 -62 -227 -62q-88 0 -150 44t-62 130q0 65 31 123t99 131v782l-107 25q-18 5 -18 21v88q0 24 27 26l300 20q14 0 23 -9.5t9 -23.5v-770l118 -24q17 -5 17 -21v-89q0 -23 -27 -25l-167 -13q-98 -88 -98 -190q0 -37 21 -59.5t56 -22.5q23 0 42 7
q5 1 13.5 3.5t18 5t12.5 3.5q15 3 16 3q11 0 17 -11l43 -71q2 -6 2 -7q0 -10 -9 -14zM267 1321q60 0 94 -32.5t34 -89.5t-34 -89.5t-94 -32.5t-93.5 32.5t-33.5 89.5t33.5 89.5t93.5 32.5z" />
    <glyph glyph-name="Idot" unicode="&#x130;" horiz-adv-x="688" 
d="M464 187l133 -37q20 -6 20 -26v-104q0 -20 -25 -20h-496q-25 0 -25 20v104q0 20 20 26l133 37v911l-133 37q-20 6 -20 26v104q0 20 25 20h496q25 0 25 -20v-104q0 -20 -20 -26l-133 -37v-911zM342 1655q60 0 94 -32.5t34 -89.5t-34 -89.5t-94 -32.5t-93.5 32.5
t-33.5 89.5t33.5 89.5t93.5 32.5z" />
    <glyph glyph-name="dotlessi" unicode="&#x131;" horiz-adv-x="559" 
d="M397 159l118 -24q17 -5 17 -21v-89q0 -23 -27 -25l-310 -24q-13 0 -22.5 9t-9.5 23v774l-107 25q-18 5 -18 21v88q0 24 27 26l300 20q14 0 23 -9.5t9 -23.5v-770z" />
    <glyph glyph-name="IJ" unicode="&#x132;" horiz-adv-x="1401" 
d="M464 187l133 -37q20 -6 20 -26v-104q0 -20 -25 -20h-496q-25 0 -25 20v104q0 20 20 26l133 37v911l-133 37q-20 6 -20 26v104q0 20 25 20h496q25 0 25 -20v-104q0 -20 -20 -26l-133 -37v-911zM1024 1088h-278q-36 0 -36 35v127q0 35 36 35h491q26 0 26 -30v-1207
q0 -341 -306 -341q-65 0 -120 9q-53 7 -72 14q-13 4 -13 23l27 150q1 13 25 13h4q5 -1 15 -2.5t22 -2.5q45 -5 67 -5q50 0 81 29t31 88v1065z" />
    <glyph glyph-name="ij" unicode="&#x133;" horiz-adv-x="1044" 
d="M392 159l118 -24q17 -5 17 -21v-89q0 -23 -27 -25l-310 -24q-13 0 -22.5 9.5t-9.5 22.5v774l-107 25q-18 5 -18 22v87q0 24 27 26l300 20q14 0 23 -9.5t9 -23.5v-770zM262 1321q60 0 94 -32.5t34 -89.5t-34 -89.5t-94 -32.5t-93.5 32.5t-33.5 89.5t33.5 89.5t93.5 32.5z
M675 782l-107 25q-18 5 -18 23v86q0 24 27 26l300 20q14 0 23 -9.5t9 -23.5v-992q0 -107 -18 -174q-18 -78 -75 -132q-87 -84 -295 -84q-16 0 -23 1t-13 6t-8 16v144q0 23 18 23q73 2 120 27q60 29 60 118v900zM777 1321q60 0 94 -32.5t34 -89.5t-34 -89.5t-94 -32.5
t-93.5 32.5t-33.5 89.5t33.5 89.5t93.5 32.5z" />
    <glyph glyph-name="Jcircumflex" unicode="&#x134;" horiz-adv-x="783" 
d="M482 1406l-141 126l-141 -126q-20 -15 -36 -15q-4 0 -17 3l-99 21q-21 5 -21 16q0 8 8 19l157 188q30 36 54 36h189q24 0 54 -36l157 -188q9 -10 9 -18q0 -13 -22 -17l-98 -21q-15 -3 -18 -3q-17 0 -35 15zM360 1088h-278q-36 0 -36 35v127q0 35 36 35h491q26 0 26 -30
v-1207q0 -341 -306 -341q-65 0 -120 9q-53 7 -72 14q-13 4 -13 23l27 150q1 13 25 13h4q5 -1 15 -2.5t22 -2.5q45 -5 67 -5q50 0 81 29t31 88v1065z" />
    <glyph glyph-name="jcircumflex" unicode="&#x135;" horiz-adv-x="727" 
d="M251 764l-108 25q-17 5 -17 21v88q0 24 26 26l301 20q13 0 22 -9t9 -24v-974q0 -107 -18 -174q-18 -78 -75 -132q-87 -84 -295 -84q-16 0 -22.5 1t-12.5 6t-8 16v144q0 21 17 23q76 6 122 28q59 29 59 117v882zM472 1083l-141 126l-141 -126q-20 -15 -36 -15q-4 0 -17 3
l-99 21q-21 4 -21 16q0 8 8 19l157 188q30 36 54 36h189q24 0 54 -36l157 -188q9 -11 9 -18q0 -11 -22 -17l-98 -21q-15 -3 -18 -3q-17 0 -35 15z" />
    <glyph glyph-name="Kcommaaccent" unicode="&#x136;" horiz-adv-x="1206" 
d="M433 753h35q45 0 71.5 12t45.5 40q22 32 52 107q11 28 50 135q24 64 65 123q43 60 97 86q65 30 230 30q21 0 27 -4.5t6 -19.5v-146q0 -18 -8.5 -23.5t-28.5 -5.5q-57 0 -91 -15q-19 -8 -34.5 -23.5t-31.5 -46t-23 -45.5t-24.5 -61t-20.5 -55q-44 -115 -121 -153
q66 -34 108.5 -104t78.5 -182q14 -42 21 -66q10 -24 27 -56q19 -35 37 -50q50 -43 125 -43q20 0 26 -6.5t6 -24.5v-141q0 -19 -23 -23q-16 -4 -44 -4q-130 0 -225 63q-106 73 -155 253q-30 104 -52 152q-17 38 -34 58q-43 50 -101 50h-91v-534q0 -30 -24 -30h-191
q-24 0 -24 30v1068l-113 37q-20 8 -20 26v104q0 20 25 20h312q35 0 35 -35v-497zM763 -129l-119 -297q-9 -22 -24 -22h-116q-14 0 -14 13q0 11 4 34l48 282q3 26 30 26h179q19 0 19 -11q0 -10 -7 -25z" />
    <glyph glyph-name="kcommaaccent" unicode="&#x137;" horiz-adv-x="1038" 
d="M393 609h50q44 4 76 53q15 21 39 66q5 9 10.5 19.5t6.5 12.5q23 40 28 49q7 12 27 40q11 17 23 28.5t18.5 16.5t27.5 19q32 21 74.5 29t117.5 10h51q22 0 22 -21v-153q0 -19 -26 -19q-2 0 -13.5 0.5t-15.5 0.5q-39 0 -85 -17q-10 -3 -29 -22q-18 -18 -21 -22
q-3 -3 -21 -29q-16 -24 -17 -26q-48 -70 -87 -93l-12 -7q51 -31 81 -73q28 -40 69 -128q19 -41 30 -61q13 -21 30 -44q36 -45 110 -53q21 -1 21 -30v-142q0 -15 -11 -20.5t-42 -5.5q-115 0 -186.5 49t-115.5 149q-22 50 -23 52t-8.5 18t-12.5 28q-8 18 -22 43q-10 17 -21 35
q-15 25 -45 52q-22 19 -53 19h-41v-402q0 -30 -25 -30h-184q-25 0 -25 30v1219l-107 25q-18 4 -18 21v88q0 25 27 26l300 20q13 0 22.5 -9.5t9.5 -22.5v-711q0 -56 -4 -77zM670 -159l-119 -297q-9 -22 -24 -22h-116q-14 0 -14 13q0 11 4 34l48 282q3 26 30 26h179
q19 0 19 -11q0 -10 -7 -25z" />
    <glyph glyph-name="kgreenlandic" unicode="&#x138;" horiz-adv-x="1039" 
d="M397 930v-343h38q29 0 51 22q27 27 42 52q10 16 34 62q3 6 6.5 12.5t5.5 10t3 5.5q21 40 38 66q15 24 42 54q28 31 57 46q72 38 182 38h56q17 0 17 -16v-163q0 -16 -19 -16h-35q-44 0 -69 -15q-33 -20 -47 -37q-14 -16 -18 -22q-1 -2 -3.5 -5.5t-7 -9.5t-7.5 -11l-16 -24
q-1 -2 -12 -18.5t-15 -21.5q-2 -4 -7 -10.5t-11 -14.5l-9 -12q-27 -31 -53 -49q54 -34 87 -78q32 -40 77 -132q28 -57 58 -82q30 -24 92 -33q25 -3 25 -20v-157q0 -12 -10 -16t-43 -4q-118 0 -189 45.5t-113 141.5q-54 121 -92 167q-39 50 -93 50h-42v-362q0 -30 -25 -30
h-184q-25 0 -25 30v753l-107 24q-18 5 -18 21v88q0 24 27 26l300 20q13 0 22.5 -9t9.5 -23z" />
    <glyph glyph-name="Lacute" unicode="&#x139;" horiz-adv-x="922" 
d="M377 1255v-1015q0 -24 12 -32.5t45 -8.5h255l42 114q8 20 26 20h106q20 0 21 -25v-283q0 -25 -20 -25h-562q-89 0 -126.5 30t-37.5 100v1125q0 30 24 30h191q24 0 24 -30zM578 1617l-208 -191q-18 -15 -38 -15h-144q-20 0 -20 16q0 12 7 19l148 189q16 21 28 28t30 7h194
q56 0 3 -53z" />
    <glyph glyph-name="lacute" unicode="&#x13a;" horiz-adv-x="619" 
d="M559 1740l-208 -191q-17 -15 -38 -15h-144q-20 0 -20 16q0 12 7 19l148 189q16 21 28 28t30 7h194q56 0 3 -53zM379 1397v-1086q0 -104 74 -132q35 -12 89 -12h35q16 0 17 -16l9 -138q0 -21 -14 -24q-71 -10 -172 -10q-162 0 -221 96q-51 87 -51 233v941l-107 25
q-18 4 -18 22v87q0 25 27 26l300 20q13 0 22.5 -9.5t9.5 -22.5z" />
    <glyph glyph-name="Lcommaaccent" unicode="&#x13b;" horiz-adv-x="922" 
d="M377 1255v-1015q0 -24 12 -32.5t45 -8.5h255l42 114q8 20 26 20h106q20 0 21 -25v-283q0 -25 -20 -25h-562q-89 0 -126.5 30t-37.5 100v1125q0 30 24 30h191q24 0 24 -30zM633 -129l-119 -297q-9 -22 -24 -22h-116q-14 0 -14 13q0 11 4 34l48 282q3 26 30 26h179
q19 0 19 -11q0 -10 -7 -25z" />
    <glyph glyph-name="lcommaaccent" unicode="&#x13c;" horiz-adv-x="619" 
d="M379 1397v-1086q0 -104 74 -132q35 -12 89 -12h35q16 0 17 -16l9 -138q0 -21 -14 -24q-71 -10 -172 -10q-162 0 -221 96q-51 87 -51 233v941l-107 25q-18 4 -18 22v87q0 25 27 26l300 20q13 0 22.5 -9.5t9.5 -22.5zM490 -159l-119 -297q-9 -22 -24 -22h-116q-14 0 -14 13
q0 11 4 34l48 282q3 26 30 26h179q19 0 19 -11q0 -10 -7 -25z" />
    <glyph glyph-name="Lcaron" unicode="&#x13d;" horiz-adv-x="922" 
d="M377 1255v-1015q0 -24 12 -32.5t45 -8.5h255l42 114q8 20 26 20h106q20 0 21 -25v-283q0 -25 -20 -25h-562q-89 0 -126.5 30t-37.5 100v1125q0 30 24 30h191q24 0 24 -30zM805 1248l-119 -297q-9 -22 -24 -22h-116q-14 0 -14 13q0 11 4 34l48 282q3 26 30 26h179
q19 0 19 -11q0 -8 -7 -25z" />
    <glyph glyph-name="lcaron" unicode="&#x13e;" horiz-adv-x="795" 
d="M403 1397v-1086q0 -104 74 -132q35 -12 89 -12h35q16 0 17 -16l9 -138q0 -21 -14 -24q-71 -10 -172 -10q-162 0 -221 96q-51 87 -51 233v941l-107 25q-18 4 -18 22v87q0 25 27 26l300 20q13 0 22.5 -9.5t9.5 -22.5zM769 1385l-119 -297q-9 -22 -24 -22h-116q-14 0 -14 13
q0 11 4 34l48 282q3 26 30 26h179q19 0 19 -11q0 -10 -7 -25z" />
    <glyph glyph-name="Ldot" unicode="&#x13f;" horiz-adv-x="922" 
d="M377 1255v-1015q0 -24 12 -32.5t45 -8.5h255l42 114q8 20 26 20h106q20 0 21 -25v-283q0 -25 -20 -25h-562q-89 0 -126.5 30t-37.5 100v1125q0 30 24 30h191q24 0 24 -30zM616 813q60 0 94 -32.5t34 -89.5t-34 -89.5t-94 -32.5t-93.5 32.5t-33.5 89.5t33.5 89.5
t93.5 32.5z" />
    <glyph glyph-name="ldot" unicode="&#x140;" horiz-adv-x="748" 
d="M379 1397v-1086q0 -104 74 -132q35 -12 89 -12h35q16 0 17 -16l9 -138q0 -21 -14 -24q-71 -10 -172 -10q-162 0 -221 96q-51 87 -51 233v941l-107 25q-18 4 -18 22v87q0 25 27 26l300 20q13 0 22.5 -9.5t9.5 -22.5zM603 852q60 0 94 -32.5t34 -89.5t-34 -89.5t-94 -32.5
t-93.5 32.5t-33.5 89.5t33.5 89.5t93.5 32.5z" />
    <glyph glyph-name="Lslash" unicode="&#x141;" horiz-adv-x="959" 
d="M425 1255v-483l188 80q9 4 15 4q13 0 13 -18v-137q0 -26 -28 -37l-188 -80v-344q0 -24 12 -32.5t45 -8.5h255l42 114q8 20 26 20h106q21 0 21 -25v-283q0 -25 -20 -25h-562q-89 0 -126.5 30t-37.5 100v353l-108 -46q-7 -4 -15 -4q-14 0 -14 19v137q0 16 6 23t23 14
l108 45v584q0 30 24 30h193q22 0 22 -30z" />
    <glyph glyph-name="lslash" unicode="&#x142;" horiz-adv-x="627" 
d="M387 1397v-638l189 81q13 5 15 5q13 0 13 -16v-130q0 -25 -28 -37l-189 -81v-270q0 -104 74 -132q35 -12 89 -12h35q16 0 17 -16l9 -140q0 -20 -14 -22q-66 -10 -172 -10q-162 0 -221 96q-51 87 -51 233v173l-104 -44q-7 -4 -15 -4q-14 0 -14 19v127q0 25 27 37l106 44
v589l-107 25q-18 4 -18 21v88q0 25 27 26l300 20q14 0 23 -9t9 -23z" />
    <glyph glyph-name="Nacute" unicode="&#x143;" horiz-adv-x="1330" 
d="M984 0q-40 0 -62 42l-418 737q-39 69 -67 159h-5v-908q0 -30 -24 -30h-191q-24 0 -24 30v1068l-113 37q-20 8 -20 26v104q0 20 25 20h325q28 0 41 -21l434 -765q40 -66 58 -128l6 -20h4v902q0 32 27 32h188q24 0 24 -30v-1215q0 -40 -41 -40h-167zM1008 1617l-208 -191
q-18 -15 -38 -15h-144q-20 0 -20 16q0 12 7 19l148 189q16 21 28 28t30 7h194q56 0 3 -53z" />
    <glyph glyph-name="nacute" unicode="&#x144;" horiz-adv-x="1122" 
d="M869 1298l-208 -191q-17 -15 -38 -15h-144q-20 0 -20 16q0 12 7 19l148 189q16 21 28 28t30 7h194q56 0 3 -53zM971 144l98 -25q15 -4 15 -22v-71q0 -22 -25 -23l-296 -12q-14 0 -20 8q-6 7 -6 18v602q0 171 -126 171q-55 0 -112.5 -32t-101.5 -88v-640q0 -30 -25 -30
h-184q-25 0 -25 30v750l-107 25q-18 5 -18 23v91q0 25 27 26l274 17q27 0 31 -33l17 -109q155 154 324 154q123 0 191.5 -73.5t68.5 -203.5v-553z" />
    <glyph glyph-name="Ncommaaccent" unicode="&#x145;" horiz-adv-x="1330" 
d="M984 0q-40 0 -62 42l-418 737q-39 69 -67 159h-5v-908q0 -30 -24 -30h-191q-24 0 -24 30v1068l-113 37q-20 8 -20 26v104q0 20 25 20h325q28 0 41 -21l434 -765q40 -66 58 -128l6 -20h4v902q0 32 27 32h188q24 0 24 -30v-1215q0 -40 -41 -40h-167zM812 -129l-119 -297
q-9 -22 -24 -22h-116q-14 0 -14 13q0 11 4 34l48 282q3 26 30 26h179q19 0 19 -11q0 -10 -7 -25z" />
    <glyph glyph-name="ncommaaccent" unicode="&#x146;" horiz-adv-x="1122" 
d="M971 144l98 -25q15 -4 15 -22v-71q0 -22 -25 -23l-296 -12q-14 0 -20 8q-6 7 -6 18v602q0 171 -126 171q-55 0 -112.5 -32t-101.5 -88v-640q0 -30 -25 -30h-184q-25 0 -25 30v750l-107 25q-18 5 -18 23v91q0 25 27 26l274 17q27 0 31 -33l17 -109q155 154 324 154
q123 0 191.5 -73.5t68.5 -203.5v-553zM670 -159l-119 -297q-9 -22 -24 -22h-116q-14 0 -14 13q0 11 4 34l48 282q3 26 30 26h179q19 0 19 -11q0 -10 -7 -25z" />
    <glyph glyph-name="Ncaron" unicode="&#x147;" horiz-adv-x="1330" 
d="M984 0q-40 0 -62 42l-418 737q-39 69 -67 159h-5v-908q0 -30 -24 -30h-191q-24 0 -24 30v1068l-113 37q-20 8 -20 26v104q0 20 25 20h325q28 0 41 -21l434 -765q40 -66 58 -128l6 -20h4v902q0 32 27 32h188q24 0 24 -30v-1215q0 -40 -41 -40h-167zM571 1683l145 -130
l142 127q17 14 32 14q3 0 18 -3l100 -21q21 -4 21 -16q0 -8 -8 -19l-160 -192q-29 -32 -51 -32h-189q-25 0 -54 36l-157 188q-8 10 -8 19q0 12 21 16l119 25q17 0 29 -12z" />
    <glyph glyph-name="ncaron" unicode="&#x148;" horiz-adv-x="1122" 
d="M971 144l98 -25q15 -4 15 -22v-71q0 -22 -25 -23l-296 -12q-14 0 -20 8q-6 7 -6 18v602q0 171 -126 171q-55 0 -112.5 -32t-101.5 -88v-640q0 -30 -25 -30h-184q-25 0 -25 30v750l-107 25q-18 5 -18 23v91q0 25 27 26l274 17q27 0 31 -33l17 -109q155 154 324 154
q123 0 191.5 -73.5t68.5 -203.5v-553zM432 1363l145 -130l142 127q17 14 32 14q3 0 18 -3l100 -21q21 -4 21 -16q0 -8 -8 -19l-160 -192q-29 -32 -51 -32h-189q-26 0 -54 36l-157 188q-8 10 -8 19q0 12 21 16l119 25q17 0 29 -12z" />
    <glyph glyph-name="napostrophe" unicode="&#x149;" horiz-adv-x="1342" 
d="M1191 144l98 -25q15 -4 15 -22v-71q0 -22 -25 -23l-296 -12q-14 0 -20 8q-6 7 -6 18v602q0 171 -126 171q-55 0 -112.5 -32t-101.5 -88v-640q0 -30 -25 -30h-184q-25 0 -25 30v750l-107 25q-18 5 -18 23v91q0 25 27 26l274 17q26 0 31 -33l17 -109q155 154 324 154
q123 0 191.5 -73.5t68.5 -203.5v-553zM310 1248l-119 -297q-9 -22 -24 -22h-116q-14 0 -14 13q0 11 4 34l48 282q3 26 30 26h179q19 0 19 -11q0 -8 -7 -25z" />
    <glyph glyph-name="Eng" unicode="&#x14a;" horiz-adv-x="1330" 
d="M943 -46q0 50 -22 88q-9 17 -106 184q-1 1 -173 302q-86 150 -138 251q-45 86 -67 159h-5v-907q0 -31 -24 -31h-191q-24 0 -24 30v1068l-113 37q-20 8 -20 26v104q0 20 25 20h325q28 0 41 -21l434 -765q40 -66 58 -128l6 -20h4v902q0 32 27 32h188q24 0 24 -30v-1227
q0 -87 -26.5 -167.5t-70.5 -138.5q-45 -59 -94 -97q-100 -81 -192 -81q-15 0 -23 20l-44 142q-1 3 -1 8q1 10 13 16q189 88 189 224z" />
    <glyph glyph-name="eng" unicode="&#x14b;" horiz-adv-x="1109" 
d="M971 697v-736q0 -189 -109 -295q-109 -107 -283 -107q-39 0 -43 24l-25 145q0 14 9 20t33 10q79 14 132 75q52 59 52 145v641q0 171 -126 171q-55 0 -112.5 -32t-101.5 -88v-640q0 -30 -25 -30h-184q-25 0 -25 30v750l-107 25q-18 5 -18 21v93q0 25 27 26l274 17
q27 0 31 -33l17 -112q158 157 324 157q123 0 191.5 -73.5t68.5 -203.5z" />
    <glyph glyph-name="Omacron" unicode="&#x14c;" horiz-adv-x="1218" 
d="M609 -24q-114 0 -216 34q-112 40 -189 138q-130 160 -133 510q0 144 31.5 261t95.5 205.5t168.5 136.5t242.5 48q136 0 241 -47.5t169 -137.5q128 -176 128 -466q0 -682 -538 -682zM322 646q0 -233 60 -348q28 -51 67 -80q38 -28 73.5 -37.5t86.5 -9.5t87 10t74 38
q40 30 66 80q60 115 60 347q0 172 -36 279q-19 60 -51 101q-69 88 -200 88q-191 0 -252 -189q-35 -112 -35 -279zM392 1445v112q0 12 8.5 19t19.5 7h376q30 0 30 -24v-116q0 -26 -28 -26h-376q-30 0 -30 28z" />
    <glyph glyph-name="omacron" unicode="&#x14d;" horiz-adv-x="1058" 
d="M71 473q0 326 193 439q105 62 264 62q136 0 242 -55q63 -32 110 -87q48 -56 77.5 -150.5t29.5 -212.5q0 -227 -120 -361q-119 -132 -348 -132q-226 0 -337 133q-111 134 -111 364zM746 463q0 229 -104 298q-51 33 -121 33q-111 2 -165 -87q-44 -79 -44 -240
q0 -313 212 -313q109 0 165.5 81t56.5 228zM306 1120v112q0 12 8.5 19t19.5 7h376q30 0 30 -24v-116q0 -26 -28 -26h-376q-30 0 -30 28z" />
    <glyph glyph-name="Obreve" unicode="&#x14e;" horiz-adv-x="1218" 
d="M609 -24q-114 0 -216 34q-112 40 -189 138q-130 160 -133 510q0 144 31.5 261t95.5 205.5t168.5 136.5t242.5 48q136 0 241 -47.5t169 -137.5q128 -176 128 -466q0 -682 -538 -682zM322 646q0 -233 60 -348q28 -51 67 -80q38 -28 73.5 -37.5t86.5 -9.5t87 10t74 38
q40 30 66 80q60 115 60 347q0 172 -36 279q-19 60 -51 101q-69 88 -200 88q-191 0 -252 -189q-35 -112 -35 -279zM618 1380q-116 0 -187 66q-70 65 -85 152q0 10 14 14l114 34q3 1 6 1q10 0 14 -16q11 -32 43 -63t81 -31q48 0 81 30q34 31 44 64q5 15 16 15q5 0 7 -1
l111 -33q11 -5 12 -7q1 -1 1 -7q-11 -82 -82 -150q-73 -68 -190 -68z" />
    <glyph glyph-name="obreve" unicode="&#x14f;" horiz-adv-x="1058" 
d="M71 473q0 326 193 439q105 62 264 62q136 0 242 -55q63 -32 110 -87q48 -56 77.5 -150.5t29.5 -212.5q0 -227 -120 -361q-119 -132 -348 -132q-226 0 -337 133q-111 134 -111 364zM746 463q0 229 -104 298q-51 33 -121 33q-111 2 -165 -87q-44 -79 -44 -240
q0 -313 212 -313q109 0 165.5 81t56.5 228zM545 1080q-117 0 -187 66q-70 65 -85 152q0 10 14 14l114 34q3 1 6 1q10 0 14 -16q11 -32 43 -63t81 -31q48 0 81 30q34 31 44 64q4 15 16 15q5 0 7 -1l111 -33q11 -5 12 -7q1 -1 1 -7q-11 -82 -82 -150q-73 -68 -190 -68z" />
    <glyph glyph-name="Ohungarumlaut" unicode="&#x150;" horiz-adv-x="1218" 
d="M609 -24q-114 0 -216 34q-112 40 -189 138q-130 160 -133 510q0 144 31.5 261t95.5 205.5t168.5 136.5t242.5 48q136 0 241 -47.5t169 -137.5q128 -176 128 -466q0 -682 -538 -682zM322 646q0 -233 60 -348q28 -51 67 -80q38 -28 73.5 -37.5t86.5 -9.5t87 10t74 38
q40 30 66 80q60 115 60 347q0 172 -36 279q-19 60 -51 101q-69 88 -200 88q-191 0 -252 -189q-35 -112 -35 -279zM719 1629l-189 -203q-14 -15 -37 -15h-139q-21 0 -21 16q0 6 8 19l127 189q23 35 58 35h179q28 0 28 -14q0 -13 -14 -27zM1069 1629l-189 -203
q-14 -15 -37 -15h-139q-21 0 -21 16q0 6 8 19l127 189q23 35 58 35h179q28 0 28 -14q0 -13 -14 -27z" />
    <glyph glyph-name="ohungarumlaut" unicode="&#x151;" horiz-adv-x="1058" 
d="M71 473q0 326 193 439q105 62 264 62q136 0 242 -55q63 -32 110 -87q48 -56 77.5 -150.5t29.5 -212.5q0 -227 -120 -361q-119 -132 -348 -132q-226 0 -337 133q-111 134 -111 364zM746 463q0 229 -104 298q-51 33 -121 33q-111 2 -165 -87q-44 -79 -44 -240
q0 -313 212 -313q109 0 165.5 81t56.5 228zM613 1310l-189 -203q-14 -15 -37 -15h-139q-21 0 -21 16q0 6 8 19l127 189q23 35 58 35h179q28 0 28 -14q0 -13 -14 -27zM963 1310l-189 -203q-14 -15 -37 -15h-139q-21 0 -21 16q0 6 8 19l127 189q23 35 58 35h179q28 0 28 -14
q0 -13 -14 -27z" />
    <glyph glyph-name="OE" unicode="&#x152;" horiz-adv-x="1615" 
d="M1369 595h-363v-396h507q25 0 25 -31v-138q0 -31 -25 -31h-780q-316 0 -489 160q-173 161 -173 471q0 192 79 339.5t229 231.5q151 84 352 84h777q36 0 36 -35v-129q0 -35 -36 -35h-502v-292h363q36 0 36 -35v-130q0 -34 -36 -34zM766 198v888h-62q-84 0 -151.5 -26.5
t-110.5 -70t-71.5 -103.5t-40.5 -123t-12 -133q0 -175 89 -298q46 -63 124 -98.5t179 -35.5h56z" />
    <glyph glyph-name="oe" unicode="&#x153;" horiz-adv-x="1633" 
d="M1566 451q0 -29 -29 -29h-564q7 -136 78 -198t214 -62q95 0 226 45q8 2 9 2q17 0 20 -24l19 -134q0 -14 -16 -20q-137 -55 -305 -55q-229 0 -352 134q-122 -134 -347 -134q-226 0 -337 133q-111 134 -111 364q0 326 193 439q105 62 264 62q221 0 339 -133
q114 133 301 133q208 0 303 -127t95 -396zM746 463q0 229 -104 298q-51 33 -121 33q-111 2 -165 -87q-44 -79 -44 -240q0 -313 212 -313q109 0 165.5 81t56.5 228zM1178 800q-82 0 -132 -59q-48 -57 -65 -144h363q-6 97 -49 150t-117 53z" />
    <glyph glyph-name="Racute" unicode="&#x154;" horiz-adv-x="1197" 
d="M548 1105l-116 -3v-404h101q117 0 182.5 56t65.5 155q0 196 -233 196zM432 522v-492q0 -30 -24 -30h-191q-24 0 -24 30v1068l-113 37q-20 8 -20 26v107q0 20 25 20h489q230 0 346 -94.5t116 -275.5q0 -244 -247 -346q77 -51 108 -136q76 -197 137 -234q31 -17 76 -17
q38 0 38 -37v-116q0 -12 -1 -17t-5 -13.5t-15 -12t-30 -3.5q-162 0 -251 87q-78 78 -123 205q-40 115 -90 174q-58 70 -175 70h-26zM808 1617l-208 -191q-18 -15 -38 -15h-144q-20 0 -20 16q0 12 7 19l148 189q16 21 28 28t30 7h194q56 0 3 -53z" />
    <glyph glyph-name="racute" unicode="&#x155;" horiz-adv-x="730" 
d="M369 930l18 -114q42 82 98 120t134 38q37 0 86 -9q15 -1 15 -16l-27 -190q-1 -10 -12 -10q-4 0 -12 2q-43 13 -91 13q-66 0 -107.5 -36t-67.5 -119v-579q0 -30 -25 -30h-184q-25 0 -25 30v748l-113 26q-18 4 -18 21v93q0 24 27 26l273 18q26 0 31 -32zM689 1298
l-208 -191q-18 -15 -38 -15h-144q-20 0 -20 16q0 12 7 19l148 189q16 21 28 28t30 7h194q56 0 3 -53z" />
    <glyph glyph-name="Rcommaaccent" unicode="&#x156;" horiz-adv-x="1197" 
d="M548 1105l-116 -3v-404h101q117 0 182.5 56t65.5 155q0 196 -233 196zM432 522v-492q0 -30 -24 -30h-191q-24 0 -24 30v1068l-113 37q-20 8 -20 26v107q0 20 25 20h489q230 0 346 -94.5t116 -275.5q0 -244 -247 -346q77 -51 108 -136q76 -197 137 -234q31 -17 76 -17
q38 0 38 -37v-116q0 -12 -1 -17t-5 -13.5t-15 -12t-30 -3.5q-162 0 -251 87q-78 78 -123 205q-40 115 -90 174q-58 70 -175 70h-26zM749 -127l-119 -297q-9 -22 -24 -22h-116q-14 0 -14 13q0 11 4 34l48 282q3 26 30 26h179q19 0 19 -11q0 -10 -7 -25z" />
    <glyph glyph-name="rcommaaccent" unicode="&#x157;" horiz-adv-x="730" 
d="M369 930l18 -114q42 82 98 120t134 38q37 0 86 -9q15 -1 15 -16l-27 -190q-1 -10 -12 -10q-4 0 -12 2q-43 13 -91 13q-66 0 -107.5 -36t-67.5 -119v-579q0 -30 -25 -30h-184q-25 0 -25 30v748l-113 26q-18 4 -18 21v93q0 24 27 26l273 18q26 0 31 -32zM372 -159
l-119 -297q-9 -22 -24 -22h-116q-14 0 -14 13q0 11 4 34l48 282q3 26 30 26h179q19 0 19 -11q0 -10 -7 -25z" />
    <glyph glyph-name="Rcaron" unicode="&#x158;" horiz-adv-x="1197" 
d="M548 1105l-116 -3v-404h101q117 0 182.5 56t65.5 155q0 196 -233 196zM432 522v-492q0 -30 -24 -30h-191q-24 0 -24 30v1068l-113 37q-20 8 -20 26v107q0 20 25 20h489q230 0 346 -94.5t116 -275.5q0 -244 -247 -346q77 -51 108 -136q76 -197 137 -234q31 -17 76 -17
q38 0 38 -37v-116q0 -12 -1 -17t-5 -13.5t-15 -12t-30 -3.5q-162 0 -251 87q-78 78 -123 205q-40 115 -90 174q-58 70 -175 70h-26zM401 1683l145 -130l142 127q17 14 32 14q3 0 18 -3l100 -21q21 -4 21 -16q0 -8 -8 -19l-160 -192q-29 -32 -51 -32h-189q-26 0 -54 36
l-157 188q-8 10 -8 19q0 12 21 16l119 25q17 0 29 -12z" />
    <glyph glyph-name="rcaron" unicode="&#x159;" horiz-adv-x="730" 
d="M369 930l18 -114q42 82 98 120t134 38q37 0 86 -9q15 -1 15 -16l-27 -190q-1 -10 -12 -10q-4 0 -12 2q-43 13 -91 13q-66 0 -107.5 -36t-67.5 -119v-579q0 -30 -25 -30h-184q-25 0 -25 30v748l-113 26q-18 4 -18 21v93q0 24 27 26l273 18q26 0 31 -32zM213 1363l145 -130
l142 127q17 14 32 14q3 0 18 -3l100 -21q21 -4 21 -16q0 -8 -8 -19l-160 -192q-29 -32 -51 -32h-189q-25 0 -54 36l-157 188q-8 10 -8 19q0 12 21 16l119 25q17 0 29 -12z" />
    <glyph glyph-name="Sacute" unicode="&#x15a;" horiz-adv-x="1049" 
d="M252 293l30 -105q112 -20 183 -20q124 0 194.5 50t70.5 151q-4 37 -10.5 59t-25.5 40l-12 12t-12.5 11.5t-12 8.5t-19.5 11q-6 3 -13.5 6.5t-12.5 6t-8 3.5q-9 5 -40 16t-40 14q-13 6 -44 15q-18 6 -45.5 15.5t-38.5 12.5q-40 15 -78 31q-71 32 -133 86q-85 78 -89 225
q0 369 435 369q201 0 349 -46q15 -4 22 -14q4 -7 4 -18l-11 -230q-2 -20 -21 -20h-105q-16 0 -21 17l-33 114q-55 9 -118 9q-128 0 -188.5 -40t-60.5 -131q0 -47 40 -83q21 -17 50 -31q28 -13 59 -25q51 -18 75 -26h1l1 -1h1h1l1 -1h1h1l1 -1h1h1l1 -1h2q156 -53 225 -96
q166 -107 168 -309q0 -199 -125 -300q-124 -100 -341 -100q-111 0 -206 13q-104 14 -144 26l-45 13q-12 5 -19 14q-5 8 -5 16l11 230q2 21 22 21h104q19 0 22 -18zM822 1618l-208 -191q-18 -15 -38 -15h-144q-20 0 -20 16q0 12 7 19l148 189q16 21 28 28t30 7h194
q56 0 3 -53z" />
    <glyph glyph-name="sacute" unicode="&#x15b;" horiz-adv-x="881" 
d="M211 283l21 -102l4 -1q56 -28 203 -28q76 0 121 29.5t45 82.5q0 49 -63 76q-32 13 -59 21q-30 9 -79 20q-80 19 -126 37q-48 19 -93 53q-84 66 -84 214q0 76 29 133t79.5 90t111.5 49t131 16q173 0 314 -49q20 -8 20 -28l-12 -201q-2 -18 -20 -18h-74q-16 0 -19 14
l-24 98l-2 1q-3 0 -22.5 3t-51 5.5t-61.5 2.5q-190 0 -190 -103q0 -26 17.5 -45.5t51 -34t69 -25t86 -26t86.5 -30.5q201 -75 201 -263q0 -64 -20 -115.5t-54 -85t-80.5 -56t-96 -32t-104.5 -9.5q-92 0 -180 13q-89 13 -137 27l-46 13q-15 5 -19 16q-2 6 -2 17l13 213
q1 19 22 19h77q15 0 17 -11zM769 1298l-208 -191q-17 -15 -38 -15h-144q-20 0 -20 16q0 12 7 19l148 189q16 21 28 28t30 7h194q56 0 3 -53z" />
    <glyph glyph-name="Scircumflex" unicode="&#x15c;" horiz-adv-x="1049" 
d="M252 293l30 -105q112 -20 183 -20q124 0 194.5 50t70.5 151q-4 37 -10.5 59t-25.5 40l-12 12t-12.5 11.5t-12 8.5t-19.5 11q-6 3 -13.5 6.5t-12.5 6t-8 3.5q-9 5 -40 16t-40 14q-13 6 -44 15q-18 6 -45.5 15.5t-38.5 12.5q-40 15 -78 31q-71 32 -133 86q-85 78 -89 225
q0 369 435 369q201 0 349 -46q15 -4 22 -14q4 -7 4 -18l-11 -230q-2 -20 -21 -20h-105q-16 0 -21 17l-33 114q-55 9 -118 9q-128 0 -188.5 -40t-60.5 -131q0 -47 40 -83q21 -17 50 -31q28 -13 59 -25q51 -18 75 -26h1l1 -1h1h1l1 -1h1h1l1 -1h1h1l1 -1h2q156 -53 225 -96
q166 -107 168 -309q0 -199 -125 -300q-124 -100 -341 -100q-111 0 -206 13q-104 14 -144 26l-45 13q-12 5 -19 14q-5 8 -5 16l11 230q2 21 22 21h104q19 0 22 -18zM680 1403l-141 126l-141 -126q-20 -15 -36 -15q-4 0 -17 3l-99 21q-21 4 -21 16q0 8 8 19l157 188
q30 36 54 36h189q24 0 54 -36l157 -188q9 -11 9 -18q0 -11 -22 -17l-98 -21q-15 -3 -18 -3q-17 0 -35 15z" />
    <glyph glyph-name="scircumflex" unicode="&#x15d;" horiz-adv-x="881" 
d="M211 283l21 -102l4 -1q56 -28 203 -28q76 0 121 29.5t45 82.5q0 49 -63 76q-32 13 -59 21q-30 9 -79 20q-80 19 -126 37q-48 19 -93 53q-84 66 -84 214q0 76 29 133t79.5 90t111.5 49t131 16q173 0 314 -49q20 -8 20 -28l-12 -201q-2 -18 -20 -18h-74q-16 0 -19 14
l-24 98l-2 1q-3 0 -22.5 3t-51 5.5t-61.5 2.5q-190 0 -190 -103q0 -26 17.5 -45.5t51 -34t69 -25t86 -26t86.5 -30.5q201 -75 201 -263q0 -64 -20 -115.5t-54 -85t-80.5 -56t-96 -32t-104.5 -9.5q-92 0 -180 13q-89 13 -137 27l-46 13q-15 5 -19 16q-2 6 -2 17l13 213
q1 19 22 19h77q15 0 17 -11zM630 1083l-141 126l-141 -126q-20 -15 -36 -15q-4 0 -17 3l-99 21q-21 4 -21 16q0 8 8 19l157 188q30 36 54 36h189q24 0 54 -36l157 -188q9 -11 9 -18q0 -11 -22 -17l-98 -21q-15 -3 -18 -3q-17 0 -35 15z" />
    <glyph glyph-name="Scedilla" unicode="&#x15e;" horiz-adv-x="1049" 
d="M252 293l30 -105q112 -20 183 -20q124 0 194.5 50t70.5 151q-4 37 -10.5 59t-25.5 40l-12 12t-12.5 11.5t-12 8.5t-19.5 11q-6 3 -13.5 6.5t-12.5 6t-8 3.5q-9 5 -40 16t-40 14q-13 6 -44 15q-18 6 -45.5 15.5t-38.5 12.5q-40 15 -78 31q-71 32 -133 86q-85 78 -89 225
q0 369 435 369q202 0 349 -46q17 -6 23 -18q3 -6 3 -14l-11 -230q-2 -20 -21 -20h-104q-16 0 -22 17l-33 114q-55 9 -118 9q-128 0 -188.5 -40t-60.5 -131q0 -47 40 -83q21 -17 50 -31q28 -13 59 -25q51 -18 75 -26h1l1 -1h1h1l1 -1h1h1l1 -1h1h1l1 -1h2q156 -53 225 -96
q166 -107 168 -309q0 -180 -104.5 -281t-293.5 -116l-19 -67q136 -37 136 -142q0 -97 -71 -148q-70 -51 -176 -51q-87 0 -127 13q-11 5 -11 9t1 6l32 96q5 11 13 11q75 -9 77 -9q36 0 59.5 15t23.5 44q0 26 -21.5 42.5t-64.5 16.5q-18 0 -27 -1q-16 0 -16 11q0 2 2 10
l40 143q-94 5 -165 17q-74 11 -114 23l-35 10q-16 6 -21 14q-3 6 -3 14l11 232q2 21 22 21h104q11 0 15 -3.5t7 -14.5z" />
    <glyph glyph-name="scedilla" unicode="&#x15f;" horiz-adv-x="881" 
d="M211 283l21 -102l4 -1q56 -28 203 -28q76 0 121 29.5t45 82.5q0 49 -63 76q-32 13 -59 21q-30 9 -79 20q-80 19 -126 37q-48 19 -93 53q-84 66 -84 214q0 76 29 133t79.5 90t111.5 49t131 16q173 0 314 -49q13 -5 17 -13q3 -6 3 -15l-12 -201q-2 -18 -20 -18h-74
q-16 0 -19 14l-24 98l-2 1q-3 0 -22.5 3t-51 5.5t-61.5 2.5q-190 0 -190 -103q0 -26 17.5 -45.5t51 -34t69 -25t86 -26t86.5 -30.5q201 -75 201 -263q0 -139 -85 -211q-86 -71 -216 -84l-19 -65q136 -37 136 -142q0 -97 -71 -148q-70 -51 -176 -51q-87 0 -127 13
q-10 3 -10 11q0 1 3 13l29 86q3 12 16 12q55 -9 74 -9q36 0 59.5 15t23.5 44q0 26 -21.5 42.5t-64.5 16.5q-18 0 -27 -1q-16 0 -16 11q0 2 2 10l40 143q-68 4 -136 18q-71 13 -99 22l-33 9q-15 5 -19 16q-2 6 -2 17l13 213q1 19 20 19h79q15 0 17 -11z" />
    <glyph glyph-name="Scaron" unicode="&#x160;" horiz-adv-x="1049" 
d="M252 293l30 -105q112 -20 183 -20q124 0 194.5 50t70.5 151q-4 37 -10.5 59t-25.5 40l-12 12t-12.5 11.5t-12 8.5t-19.5 11q-6 3 -13.5 6.5t-12.5 6t-8 3.5q-9 5 -40 16t-40 14q-13 6 -44 15q-18 6 -45.5 15.5t-38.5 12.5q-40 15 -78 31q-71 32 -133 86q-85 78 -89 225
q0 369 435 369q201 0 349 -46q15 -4 22 -14q4 -7 4 -18l-11 -230q-2 -20 -21 -20h-105q-16 0 -21 17l-33 114q-55 9 -118 9q-128 0 -188.5 -40t-60.5 -131q0 -47 40 -83q21 -17 50 -31q28 -13 59 -25q51 -18 75 -26h1l1 -1h1h1l1 -1h1h1l1 -1h1h1l1 -1h2q156 -53 225 -96
q166 -107 168 -309q0 -199 -125 -300q-124 -100 -341 -100q-111 0 -206 13q-104 14 -144 26l-45 13q-12 5 -19 14q-5 8 -5 16l11 230q2 21 22 21h104q19 0 22 -18zM409 1683l145 -130l142 127q17 14 32 14q3 0 18 -3l100 -21q21 -4 21 -16q0 -8 -8 -19l-160 -192
q-29 -32 -51 -32h-189q-25 0 -54 36l-157 188q-8 10 -8 19q0 12 21 16l119 25q17 0 29 -12z" />
    <glyph glyph-name="scaron" unicode="&#x161;" horiz-adv-x="881" 
d="M211 283l21 -102l4 -1q56 -28 203 -28q76 0 121 29.5t45 82.5q0 49 -63 76q-32 13 -59 21q-30 9 -79 20q-80 19 -126 37q-48 19 -93 53q-84 66 -84 214q0 76 29 133t79.5 90t111.5 49t131 16q173 0 314 -49q20 -8 20 -28l-12 -201q-2 -18 -20 -18h-74q-16 0 -19 14
l-24 98l-2 1q-3 0 -22.5 3t-51 5.5t-61.5 2.5q-190 0 -190 -103q0 -26 17.5 -45.5t51 -34t69 -25t86 -26t86.5 -30.5q201 -75 201 -263q0 -64 -20 -115.5t-54 -85t-80.5 -56t-96 -32t-104.5 -9.5q-92 0 -180 13q-89 13 -137 27l-46 13q-15 5 -19 16q-2 6 -2 17l13 213
q1 19 22 19h77q15 0 17 -11zM311 1363l145 -130l142 127q17 14 32 14q3 0 18 -3l100 -21q21 -4 21 -16q0 -8 -8 -19l-160 -192q-29 -32 -51 -32h-189q-25 0 -54 36l-157 188q-8 10 -8 19q0 12 21 16l119 25q17 0 29 -12z" />
    <glyph glyph-name="Tcommaaccent" unicode="&#x162;" horiz-adv-x="1040" 
d="M846 1086h-206v-899l133 -37q20 -6 20 -26v-104q0 -20 -25 -20h-496q-25 0 -25 20v104q0 20 20 26l133 37v899h-205l-31 -115q-5 -17 -22 -17h-104q-22 0 -22 20v287q0 24 29 24h951q28 0 28 -24v-287q0 -20 -21 -20h-104q-17 0 -22 17zM623 -129l-119 -297
q-9 -22 -24 -22h-116q-14 0 -14 13q0 11 4 34l48 282q3 26 30 26h179q19 0 19 -11q0 -10 -7 -25z" />
    <glyph glyph-name="tcommaaccent" unicode="&#x163;" horiz-adv-x="710" 
d="M539 -159l-119 -297q-9 -22 -24 -22h-116q-14 0 -14 13q0 11 4 34l48 282q3 26 30 26h179q19 0 19 -11q0 -10 -7 -25zM614 776h-210v-506q0 -102 123 -102q25 0 64 3.5t43 3.5q26 0 27 -21l11 -143q0 -17 -15 -19q-108 -18 -182 -18q-304 0 -304 296v506h-124
q-31 0 -31 24v126q0 24 31 24h124v183q0 30 24 30h185q24 0 24 -30v-183h210q31 0 31 -24v-126q0 -24 -31 -24z" />
    <glyph glyph-name="Tcaron" unicode="&#x164;" horiz-adv-x="1040" 
d="M846 1086h-206v-899l133 -37q20 -6 20 -26v-104q0 -20 -25 -20h-496q-25 0 -25 20v104q0 20 20 26l133 37v899h-205l-31 -115q-5 -17 -22 -17h-104q-22 0 -22 20v287q0 24 29 24h951q28 0 28 -24v-287q0 -20 -21 -20h-104q-17 0 -22 17zM381 1683l145 -130l142 127
q17 14 32 14q3 0 18 -3l100 -21q21 -4 21 -16q0 -8 -8 -19l-160 -192q-29 -32 -51 -32h-189q-26 0 -54 36l-157 188q-8 10 -8 19q0 12 21 16l119 25q17 0 29 -12z" />
    <glyph glyph-name="tcaron" unicode="&#x165;" horiz-adv-x="707" 
d="M624 776h-210v-506q0 -102 123 -102q25 0 64 3.5t43 3.5q26 0 27 -21l11 -143q0 -17 -15 -19q-108 -18 -182 -18q-304 0 -304 296v506h-124q-31 0 -31 24v126q0 24 31 24h124v183q0 30 24 30h185q24 0 24 -30v-183h210q31 0 31 -24v-126q0 -24 -31 -24zM779 1385
l-119 -297q-9 -22 -24 -22h-116q-14 0 -14 13q0 11 4 34l48 282q3 26 30 26h179q19 0 19 -11q0 -10 -7 -25z" />
    <glyph glyph-name="Tbar" unicode="&#x166;" horiz-adv-x="1040" 
d="M846 1086h-206v-344h141q15 0 19.5 -4t4.5 -14v-132q0 -14 -4.5 -17.5t-17.5 -3.5h-143v-384l133 -37q20 -6 20 -26v-104q0 -20 -25 -20h-496q-25 0 -25 20v104q0 20 20 26l133 37v384h-131q-15 0 -20 4.5t-5 18.5v128q0 20 23 20h133v344h-205l-31 -115q-5 -17 -22 -17
h-104q-22 0 -22 20v287q0 24 29 24h951q28 0 28 -24v-287q0 -20 -21 -20h-104q-17 0 -22 17z" />
    <glyph glyph-name="tbar" unicode="&#x167;" horiz-adv-x="710" 
d="M614 776h-210v-164h148q15 0 19 -3t4 -12v-128q0 -11 -4 -13.5t-17 -2.5h-150v-183q0 -102 123 -102q52 0 107 7q26 0 27 -21l11 -141q0 -18 -16 -21q-108 -18 -181 -18q-304 0 -304 296v183h-85q-15 0 -19.5 3t-4.5 14v125q0 17 22 17h87v164h-124q-31 0 -31 24v126
q0 24 31 24h124v183q0 30 24 30h185q24 0 24 -30v-183h210q31 0 31 -24v-126q0 -24 -31 -24z" />
    <glyph glyph-name="Utilde" unicode="&#x168;" horiz-adv-x="1252" 
d="M399 503q0 -155 64.5 -241.5t180.5 -86.5t184 87q69 87 69 241v752q0 30 24 30h191q24 0 24 -30v-750q0 -246 -134 -388q-134 -141 -360 -141q-225 0 -354 139q-128 140 -128 392v591l-113 37q-20 8 -20 26v104q0 20 25 20h314q33 0 33 -35v-747zM551 1654q47 0 102 -36
q56 -35 84 -35q21 0 49.5 16t51.5 42q6 6 12 6q8 0 15 -7l72 -70q8 -8 8 -16q0 -5 -4 -14q-30 -63 -80.5 -97.5t-113.5 -34.5q-43 0 -102 35q-58 36 -83 36q-21 0 -49.5 -16t-51.5 -42q-6 -6 -12 -6q-8 0 -17 9l-71 69q-8 8 -8 15q0 6 5 14q80 132 193 132z" />
    <glyph glyph-name="utilde" unicode="&#x169;" horiz-adv-x="1099" 
d="M428 1337q32 1 67.5 -17.5t66.5 -36.5t52 -17q21 0 49.5 16t51.5 42q6 6 12 6q8 0 15 -7l72 -70q8 -8 8 -16q0 -5 -4 -14q-30 -63 -80.5 -97.5t-113.5 -34.5q-43 0 -102 35q-58 36 -83 36q-21 0 -49.5 -16t-51.5 -42q-6 -6 -12 -6q-8 0 -17 9l-71 69q-8 8 -8 15q0 6 5 14
q79 132 193 132zM148 254l3 525l-106 25q-18 4 -18 21v92q0 25 27 26l299 20q12 0 21.5 -9.5t9.5 -23.5v-603q0 -171 124 -171q112 0 211 112v651q0 31 24 31h185q24 0 24 -31v-781l93 -22q16 -4 16 -22v-71q0 -22 -25 -23l-257 -13q-6 0 -12 3q-9 6 -12 19l-25 111
q-157 -148 -323 -148q-120 0 -190 79q-69 79 -69 203z" />
    <glyph glyph-name="Umacron" unicode="&#x16a;" horiz-adv-x="1252" 
d="M399 503q0 -155 64.5 -241.5t180.5 -86.5t184 87q69 87 69 241v752q0 30 24 30h191q24 0 24 -30v-750q0 -246 -134 -388q-134 -141 -360 -141q-225 0 -354 139q-128 140 -128 392v591l-113 37q-20 8 -20 26v104q0 20 25 20h314q33 0 33 -35v-747zM436 1445v112
q0 12 8.5 19t19.5 7h376q30 0 30 -24v-116q0 -26 -28 -26h-376q-30 0 -30 28z" />
    <glyph glyph-name="umacron" unicode="&#x16b;" horiz-adv-x="1099" 
d="M148 254l3 525l-106 25q-18 4 -18 21v92q0 25 27 26l299 20q12 0 21.5 -9.5t9.5 -23.5v-603q0 -171 124 -171q112 0 211 112v651q0 31 24 31h185q24 0 24 -31v-781l93 -22q16 -4 16 -22v-71q0 -22 -25 -23l-257 -13q-6 0 -12 3q-9 6 -12 19l-25 111q-157 -148 -323 -148
q-120 0 -190 79q-69 79 -69 203zM337 1120v112q0 12 8.5 19t19.5 7h376q30 0 30 -24v-116q0 -26 -28 -26h-376q-30 0 -30 28z" />
    <glyph glyph-name="Ubreve" unicode="&#x16c;" horiz-adv-x="1252" 
d="M399 503q0 -155 64.5 -241.5t180.5 -86.5t184 87q69 87 69 241v752q0 30 24 30h191q24 0 24 -30v-750q0 -246 -134 -388q-134 -141 -360 -141q-225 0 -354 139q-128 140 -128 392v591l-113 37q-20 8 -20 26v104q0 20 25 20h314q33 0 33 -35v-747zM648 1380
q-117 0 -187 66q-70 65 -85 152q0 10 14 14l114 34q3 1 6 1q10 0 14 -16q11 -32 43 -63t81 -31q48 0 81 30q34 31 44 64q4 15 16 15q5 0 7 -1l111 -33q11 -5 12 -7q1 -1 1 -7q-11 -82 -82 -150q-73 -68 -190 -68z" />
    <glyph glyph-name="ubreve" unicode="&#x16d;" horiz-adv-x="1099" 
d="M148 254l3 525l-106 25q-18 4 -18 21v92q0 25 27 26l299 20q12 0 21.5 -9.5t9.5 -23.5v-603q0 -171 124 -171q112 0 211 112v651q0 31 24 31h185q24 0 24 -31v-781l93 -22q16 -4 16 -22v-71q0 -22 -25 -23l-257 -13q-6 0 -12 3q-9 6 -12 19l-25 111q-157 -148 -323 -148
q-120 0 -190 79q-69 79 -69 203zM555 1080q-117 0 -187 66q-70 65 -85 152q0 10 14 14l114 34q3 1 6 1q10 0 14 -16q11 -32 43 -63t81 -31q48 0 81 30q34 31 44 64q5 15 16 15q5 0 7 -1l111 -33q11 -5 12 -7q1 -1 1 -7q-11 -82 -82 -150q-73 -68 -190 -68z" />
    <glyph glyph-name="Uring" unicode="&#x16e;" horiz-adv-x="1252" 
d="M399 503q0 -155 64.5 -241.5t180.5 -86.5t184 87q69 87 69 241v752q0 30 24 30h191q24 0 24 -30v-750q0 -246 -134 -388q-134 -141 -360 -141q-225 0 -354 139q-128 140 -128 392v591l-113 37q-20 8 -20 26v104q0 20 25 20h314q33 0 33 -35v-747zM650 1639
q-29 0 -45.5 -18t-16.5 -48q0 -26 17 -45t43 -19q29 0 46.5 18.5t17.5 46.5t-17.5 46.5t-44.5 18.5zM459 1572q0 78 53 128t142 50q87 0 138 -48.5t51 -127.5q0 -74 -54 -124q-52 -48 -137 -48q-86 0 -140 48q-53 50 -53 122z" />
    <glyph glyph-name="uring" unicode="&#x16f;" horiz-adv-x="1099" 
d="M148 254l3 525l-106 25q-18 4 -18 21v92q0 25 27 26l299 20q12 0 21.5 -9.5t9.5 -23.5v-603q0 -171 124 -171q112 0 211 112v651q0 31 24 31h185q24 0 24 -31v-781l93 -22q16 -4 16 -22v-71q0 -22 -25 -23l-257 -13q-6 0 -12 3q-9 6 -12 19l-25 111q-157 -148 -323 -148
q-120 0 -190 79q-69 79 -69 203zM552 1313q-29 0 -45.5 -18t-16.5 -48q0 -26 17 -45t43 -19q29 0 46.5 18.5t17.5 46.5t-17.5 46.5t-44.5 18.5zM361 1246q0 78 53 128t142 50q87 0 138 -48.5t51 -127.5q0 -74 -54 -124q-53 -48 -137 -48q-86 0 -140 48q-53 50 -53 122z" />
    <glyph glyph-name="Uhungarumlaut" unicode="&#x170;" horiz-adv-x="1252" 
d="M399 503q0 -155 64.5 -241.5t180.5 -86.5t184 87q69 87 69 241v752q0 30 24 30h191q24 0 24 -30v-750q0 -246 -134 -388q-134 -141 -360 -141q-225 0 -354 139q-128 140 -128 392v591l-113 37q-20 8 -20 26v104q0 20 25 20h314q33 0 33 -35v-747zM749 1629l-189 -203
q-14 -15 -37 -15h-139q-21 0 -21 16q0 6 8 19l127 189q23 35 58 35h179q28 0 28 -14q0 -13 -14 -27zM1099 1629l-189 -203q-14 -15 -37 -15h-139q-21 0 -21 16q0 6 8 19l127 189q23 35 58 35h179q28 0 28 -14q0 -13 -14 -27z" />
    <glyph glyph-name="uhungarumlaut" unicode="&#x171;" horiz-adv-x="1099" 
d="M148 254l3 525l-106 25q-18 4 -18 21v92q0 25 27 26l299 20q12 0 21.5 -9.5t9.5 -23.5v-603q0 -171 124 -171q112 0 211 112v651q0 31 24 31h185q24 0 24 -31v-781l93 -22q16 -4 16 -22v-71q0 -22 -25 -23l-257 -13q-6 0 -12 3q-9 6 -12 19l-25 111q-157 -148 -323 -148
q-120 0 -190 79q-69 79 -69 203zM625 1310l-189 -203q-14 -15 -37 -15h-139q-21 0 -21 16q0 6 8 19l127 189q23 35 58 35h179q28 0 28 -14q0 -13 -14 -27zM975 1310l-189 -203q-14 -15 -37 -15h-139q-21 0 -21 16q0 6 8 19l127 189q23 35 58 35h179q28 0 28 -14
q0 -13 -14 -27z" />
    <glyph glyph-name="Uogonek" unicode="&#x172;" horiz-adv-x="1252" 
d="M984 -366q-110 -62 -227 -62q-88 0 -150 44t-62 130q0 112 114 231q-2 0 -9 -0.5t-8 -0.5q-225 0 -354 139q-128 140 -128 392v591l-113 37q-20 8 -20 26v104q0 20 25 20h314q33 0 33 -35v-747q0 -155 64.5 -241.5t180.5 -86.5t184 87q69 87 69 241v752q0 30 24 30h191
q24 0 24 -30v-750q0 -167 -63.5 -288t-181.5 -184q-139 -133 -139 -236q0 -37 21 -59.5t56 -22.5q23 0 42 7q5 1 13.5 3.5t18 5t12.5 3.5q15 3 16 3q9 0 17 -11l43 -71q2 -6 2 -8q0 -9 -9 -13z" />
    <glyph glyph-name="uogonek" unicode="&#x173;" horiz-adv-x="1099" 
d="M1057 -366q-110 -62 -227 -62q-88 0 -150 44t-62 130q0 68 34 126.5t105 129.5q-2 6 -2 7l-25 111q-157 -148 -323 -148q-121 0 -188 79q-68 80 -68 203v525l-106 25q-18 4 -18 21v92q0 25 27 26l299 20q12 0 21.5 -9.5t9.5 -23.5v-603q0 -171 124 -171q112 0 211 112
v651q0 31 24 31h185q24 0 24 -31v-781l93 -22q16 -4 16 -22v-71q0 -22 -25 -23l-104 -5q-53 -45 -80 -98t-27 -100q0 -37 21 -59.5t56 -22.5q25 0 86 19q12 4 16 4q11 0 17 -10l43 -73q2 -6 2 -7q0 -10 -9 -14z" />
    <glyph glyph-name="Wcircumflex" unicode="&#x174;" horiz-adv-x="1806" 
d="M1068 1406l-141 126l-141 -126q-20 -15 -36 -15q-4 0 -17 3l-99 21q-21 5 -21 16q0 8 8 19l157 188q30 36 54 36h189q24 0 54 -36l157 -188q9 -10 9 -18q0 -13 -22 -17l-98 -21q-15 -3 -18 -3q-17 0 -35 15zM1029 1260l208 -961l11 -72q47 141 90 292q49 174 68 250
q23 86 64 260q43 174 54 220q5 17 19 26.5t29 9.5h191q14 0 23.5 -8.5t9.5 -22.5q0 -2 -2 -12q-84 -328 -196 -675q-107 -334 -207 -535q-7 -13 -21.5 -22.5t-28.5 -9.5h-195q-39 0 -47 35l-148 641q-18 -58 -59 -208q-45 -164 -81 -284q-39 -131 -50 -152q-20 -32 -47 -32
h-199q-16 0 -29.5 11t-17.5 25l-323 1062l-111 37q-21 7 -21 26v104q0 20 26 20h285q15 0 29 -9.5t19 -26.5l225 -914l19 -106q29 86 242 861l-34 160q-2 10 -2 18q0 11 7.5 14t27.5 3h129q36 0 43 -25z" />
    <glyph glyph-name="wcircumflex" unicode="&#x175;" horiz-adv-x="1484" 
d="M913 1083l-141 126l-141 -126q-19 -15 -36 -15q-3 0 -17 3l-99 21q-21 4 -21 16q0 8 8 19l157 188q30 36 54 36h189q24 0 54 -36l157 -188q9 -11 9 -18q0 -11 -22 -17l-98 -21q-15 -3 -18 -3q-18 0 -35 15zM684 786l-32 149q0 15 31 15h172q30 0 34 -25l124 -647
q7 -35 9 -92v-18q168 470 195 751q1 10 2.5 15.5t7 10.5t14.5 5h208q26 0 26 -23q-22 -170 -118 -436q-91 -254 -202 -461q-17 -30 -53 -30h-166q-33 0 -40 25l-118 478l-135 -473q-7 -30 -53 -30h-162q-32 0 -39 25l-240 749l-122 27q-17 5 -17 21v86q0 23 27 26l290 29
q27 0 35 -29q47 -173 155 -656q1 -7 3 -51l4 -59q13 64 25 110z" />
    <glyph glyph-name="Ycircumflex" unicode="&#x176;" horiz-adv-x="1114" 
d="M288 560q-20 48 -40 126q-17 64 -46 201q-21 98 -47 209l-119 39q-20 8 -20 26v104q0 20 25 20h290q29 0 37 -30l8 -47q3 -19 12 -68.5t18 -99.5t17 -94q5 -29 15.5 -82t12.5 -63q13 -68 24 -103q25 -91 111 -91q71 0 115 2q16 77 33 157q8 40 20 95.5t15 71.5
q59 293 66 324q7 28 34 28h196q33 0 33 -24l-1 -6q-135 -579 -277 -1016q-46 -144 -134 -201q-88 -56 -250 -56q-60 0 -119 8q-57 8 -70 13q-13 4 -13 23l24 148q3 15 18 15l4 -1h4q56 -8 109 -8q57 0 94 5q33 6 66 27q32 21 53.5 63t43.5 120l7 25q-36 0 -70 -1t-74 -1
q-91 0 -143 34.5t-82 107.5zM740 1405l-141 126l-141 -126q-20 -15 -36 -15q-4 0 -17 3l-99 21q-21 4 -21 16q0 8 8 19l157 188q30 36 54 36h189q24 0 54 -36l157 -188q9 -11 9 -18q0 -11 -22 -17l-98 -21q-15 -3 -18 -3q-17 0 -35 15z" />
    <glyph glyph-name="ycircumflex" unicode="&#x177;" horiz-adv-x="1091" 
d="M371 921l43 -209q52 -251 127 -479q6 -19 25 -31.5t42 -13.5q44 98 110 324q64 219 99 417q2 12 7.5 16.5t20.5 4.5h208q26 0 26 -22q0 -1 -2 -11q-85 -301 -237 -699q-78 -202 -160 -360q-84 -163 -150 -221q-97 -86 -246 -86q-54 0 -129 8q-21 3 -21 22l13 149
q1 18 21 18h60q70 0 104.5 7.5t57.5 29.5q52 46 132 215q-58 4 -95 31t-67 83q-46 90 -82 210q-45 149 -125 446l-120 27q-18 5 -18 21v88q0 23 27 26l294 29q25 0 35 -40zM742 1083l-141 126l-141 -126q-20 -15 -36 -15q-4 0 -17 3l-99 21q-21 4 -21 16q0 8 8 19l157 188
q30 36 54 36h189q24 0 54 -36l157 -188q9 -11 9 -18q0 -11 -22 -17l-98 -21q-15 -3 -18 -3q-17 0 -35 15z" />
    <glyph glyph-name="Ydieresis" unicode="&#x178;" horiz-adv-x="1114" 
d="M288 560q-20 48 -40 126q-17 64 -46 201q-21 98 -47 209l-119 39q-20 8 -20 26v104q0 20 25 20h290q29 0 37 -30l8 -47q3 -19 12 -68.5t18 -99.5t17 -94q5 -29 15.5 -82t12.5 -63q13 -68 24 -103q25 -91 111 -91q71 0 115 2q16 77 33 157q8 40 20 95.5t15 71.5
q59 293 66 324q7 28 34 28h196q33 0 33 -24l-1 -6q-135 -579 -277 -1016q-46 -144 -134 -201q-88 -56 -250 -56q-60 0 -119 8q-57 8 -70 13q-13 4 -13 23l24 148q3 15 18 15l4 -1h4q56 -8 109 -8q57 0 94 5q33 6 66 27q32 21 53.5 63t43.5 120l7 25q-36 0 -70 -1t-74 -1
q-91 0 -143 34.5t-82 107.5zM294 1509q0 51 29 78t83 27q53 0 82.5 -27.5t29.5 -77.5q0 -49 -30 -77.5t-82 -28.5q-54 0 -83 28t-29 78zM669 1509q0 50 29 77.5t84 27.5q53 0 82 -27.5t29 -77.5q0 -49 -29.5 -77.5t-81.5 -28.5q-54 0 -83.5 28.5t-29.5 77.5z" />
    <glyph glyph-name="Zacute" unicode="&#x179;" horiz-adv-x="1081" 
d="M250 1086l-43 -115q-6 -17 -23 -17h-103q-19 0 -21 20v283q0 12 4 19q6 9 22 9h844q39 0 39 -37v-132q0 -24 -12 -40l-620 -877h361q107 0 114 122q0 6 2 12t8.5 12t16.5 6h161q21 0 21 -27q-5 -188 -71 -256t-217 -68h-620q-50 0 -50 37v125q0 27 13 40l613 884h-439z
M808 1617l-208 -191q-18 -15 -38 -15h-144q-20 0 -20 16q0 12 7 19l148 189q16 21 28 28t30 7h194q56 0 3 -53z" />
    <glyph glyph-name="zacute" unicode="&#x17a;" horiz-adv-x="898" 
d="M769 1298l-208 -191q-17 -15 -38 -15h-144q-20 0 -20 16q0 12 7 19l148 189q16 21 28 28t30 7h194q56 0 3 -53zM871 287q-3 -164 -66 -226q-62 -61 -211 -61h-474q-15 0 -24 8t-9 18v141q0 20 13 41l5 5l451 540h-323l-38 -99q-5 -15 -19 -15h-74q-19 0 -20 19l-11 267
q0 25 25 25h685q29 0 29 -27v-149q0 -20 -10 -30l-3 -5l-453 -548h241q54 0 73.5 22.5t19.5 73.5q0 31 25 31h144q24 0 24 -31z" />
    <glyph glyph-name="Zdotaccent" unicode="&#x17b;" horiz-adv-x="1081" 
d="M250 1086l-43 -115q-6 -17 -23 -17h-103q-19 0 -21 20v283q0 12 4 19q6 9 22 9h844q39 0 39 -37v-132q0 -24 -12 -40l-620 -877h361q107 0 114 122q0 6 2 12t8.5 12t16.5 6h161q21 0 21 -27q-5 -188 -71 -256t-217 -68h-620q-50 0 -50 37v125q0 27 13 40l613 884h-439z
M524 1655q60 0 94 -32.5t34 -89.5t-34 -89.5t-94 -32.5t-93.5 32.5t-33.5 89.5t33.5 89.5t93.5 32.5z" />
    <glyph glyph-name="zdotaccent" unicode="&#x17c;" horiz-adv-x="898" 
d="M871 287q-3 -164 -66 -226q-62 -61 -211 -61h-474q-15 0 -24 8t-9 18v141q0 20 13 41l5 5l451 540h-323l-38 -99q-5 -15 -19 -15h-74q-19 0 -20 19l-11 267q0 25 25 25h685q29 0 29 -27v-149q0 -20 -10 -30l-3 -5l-453 -548h241q54 0 73.5 22.5t19.5 73.5q0 31 25 31h144
q24 0 24 -31zM469 1322q60 0 94 -32.5t34 -89.5t-34 -89.5t-94 -32.5t-93.5 32.5t-33.5 89.5t33.5 89.5t93.5 32.5z" />
    <glyph glyph-name="Zcaron" unicode="&#x17d;" horiz-adv-x="1081" 
d="M250 1086l-43 -115q-6 -17 -23 -17h-103q-19 0 -21 20v283q0 12 4 19q6 9 22 9h844q39 0 39 -37v-132q0 -24 -12 -40l-620 -877h361q107 0 114 122q0 6 2 12t8.5 12t16.5 6h161q21 0 21 -27q-5 -188 -71 -256t-217 -68h-620q-50 0 -50 37v125q0 27 13 40l613 884h-439z
M385 1683l145 -130l142 127q17 14 32 14q3 0 18 -3l100 -21q21 -4 21 -16q0 -8 -8 -19l-160 -192q-29 -32 -51 -32h-189q-25 0 -54 36l-157 188q-8 10 -8 19q0 12 21 16l119 25q17 0 29 -12z" />
    <glyph glyph-name="zcaron" unicode="&#x17e;" horiz-adv-x="898" 
d="M871 287q-3 -164 -66 -226q-62 -61 -211 -61h-474q-15 0 -24 8t-9 18v141q0 20 13 41l5 5l451 540h-323l-38 -99q-5 -15 -19 -15h-74q-19 0 -20 19l-11 267q0 25 25 25h685q29 0 29 -27v-149q0 -20 -10 -30l-3 -5l-453 -548h241q54 0 73.5 22.5t19.5 73.5q0 31 25 31h144
q24 0 24 -31zM324 1363l145 -130l142 127q17 14 32 14q3 0 18 -3l100 -21q21 -4 21 -16q0 -8 -8 -19l-160 -192q-29 -32 -51 -32h-189q-26 0 -54 36l-157 188q-8 10 -8 19q0 12 21 16l119 25q17 0 29 -12z" />
    <glyph glyph-name="longs" unicode="&#x17f;" horiz-adv-x="555" 
d="M161 764l-113 28q-18 4 -18 21v95q0 24 27 26h104v185q0 314 278 314q98 0 194 -31q17 -6 17 -24v-138q0 -17 -15 -17q-83 17 -127 17q-36 0 -56 -10q-29 -12 -43 -43t-14 -97v-1060q0 -30 -25 -30h-184q-25 0 -25 30v734z" />
    <glyph glyph-name="uni018F" unicode="&#x18f;" horiz-adv-x="1208" 
d="M586 178q116 0 190 80q75 81 99 216h-551q1 -43 10.5 -84.5t30.5 -80t50.5 -67.5t73.5 -46.5t97 -17.5zM94 673h794q-5 218 -115.5 328t-321.5 110q-134 0 -304 -53q-9 -3 -13 -3q-10 0 -12 15l-23 142q0 13 17 19q193 77 375 77q301 0 473 -174q173 -173 173 -482
q0 -143 -34 -264t-100 -214t-172 -145.5t-241 -52.5q-256 0 -385.5 171.5t-133.5 504.5q0 21 23 21z" />
    <glyph glyph-name="florin" unicode="&#x192;" horiz-adv-x="782" 
d="M633 639h-211q-10 -436 -65 -691q-22 -108 -57 -193q-34 -85 -61 -125q-28 -42 -64 -81q-9 -9 -22 -9t-23 9l-114 100q-8 8 -8 17q0 6 7.5 21.5t11.5 19.5q62 109 94 245q27 114 42 245q15 130 18 217q4 70 7 225h-123q-10 0 -16.5 7t-6.5 18v130q0 20 30 20h121
q3 92 12 181q32 314 284 314q49 0 98 -6q43 -5 70 -11q25 -5 30 -7q12 -5 12 -19l-16 -144q-2 -17 -15 -17l-4 1q-4 1 -10.5 2t-16 2.5t-20.5 3t-23 2.5t-26 2t-27 1q-56 0 -78.5 -29t-28.5 -100q-7 -87 -9 -176h215q19 0 19 -21v-132q0 -22 -26 -22z" />
    <glyph glyph-name="Aringacute" unicode="&#x1fa;" horiz-adv-x="1130" 
d="M749 1040l342 -1018q1 -2 1 -8q0 -14 -14 -14h-233q-22 0 -26 19l-79 264h-351q-33 -114 -79 -264q-2 -8 -10 -13.5t-15 -5.5h-233q-14 0 -14 17q0 10 312 857l-80 24q-19 7 -19 21l10 115q2 20 26 20h442q15 0 20 -14zM385 1294q0 78 53 128t142 50q87 0 138 -48.5
t51 -127.5q0 -74 -54 -124q-53 -48 -137 -48q-86 0 -140 48q-53 50 -53 122zM551 806q-46 -129 -105 -329h237l-94 329q-3 13 -7.5 30.5t-7 28t-2.5 11.5h-4q-2 -11 -17 -70zM856 1680l-165 -137q-17 -15 -38 -15h-123q-18 0 -18 14q0 9 9 21l118 140q19 22 30.5 28.5
t29.5 6.5h170q28 0 28 -12q0 -9 -7 -16.5t-34 -29.5zM576 1361q-29 0 -45.5 -18t-16.5 -48q0 -26 17 -45t43 -19q29 0 46.5 18.5t17.5 46.5t-17.5 46.5t-44.5 18.5z" />
    <glyph glyph-name="aringacute" unicode="&#x1fb;" horiz-adv-x="962" 
d="M480 1275q-29 0 -45.5 -18t-16.5 -48q0 -26 17 -45t43 -19q29 0 46.5 18.5t17.5 46.5t-17.5 46.5t-44.5 18.5zM288 1208q0 78 53 128t142 50q87 0 138 -48.5t51 -127.5q0 -74 -54 -124q-52 -48 -137 -48q-86 0 -140 48q-53 50 -53 122zM738 1581l-160 -134
q-18 -15 -38 -15h-123q-18 0 -18 14q0 9 9 21l118 140q19 22 30.5 28.5t29.5 6.5h170q28 0 28 -11q0 -16 -46 -50zM589 246v155h-32q-40 0 -53 -1q-18 0 -52 -3q-54 -4 -98 -21q-66 -24 -72 -105q0 -56 35 -86.5t92 -30.5q49 0 99.5 25.5t80.5 66.5zM148 904q164 70 307 70
q247 0 325 -182q33 -75 33 -254v-398l98 -23q13 -3 13 -18v-72q0 -23 -23 -25l-252 -12q-8 0 -14 2q-11 4 -12 18l-15 106q-45 -66 -116.5 -103t-150.5 -37q-116 0 -198 73q-83 74 -83 203q0 116 53 186q44 59 137 90q77 25 181 27q54 2 96 2h62v45q0 95 -45 142t-148 47
q-73 0 -220 -48q-6 -2 -12 -2q-17 0 -19 11l-22 126q0 8 3 12q4 6 22 14z" />
    <glyph glyph-name="AEacute" unicode="&#x1fc;" horiz-adv-x="1621" 
d="M758 1077q-52 -119 -123 -275q-77 -169 -131 -295h304q-11 140 -25 286q-13 138 -25 284zM1537 0h-657q-15 0 -16 16l-33 296h-412l-129 -293q-10 -19 -27 -19h-211q-14 0 -14 15q0 6 1 7l509 1076l-112 37q-21 7 -21 26v104q0 20 26 20h1060q36 0 36 -35v-129
q0 -35 -36 -35h-526l32 -292h426q36 0 36 -35v-130q0 -34 -36 -34h-402l43 -396h463q24 0 24 -31v-138q0 -30 -24 -30zM1159 1618l-208 -191q-17 -15 -38 -15h-144q-20 0 -20 16q0 12 7 19l148 189q16 21 28 28t30 7h194q56 0 3 -53z" />
    <glyph glyph-name="aeacute" unicode="&#x1fd;" horiz-adv-x="1497" 
d="M588 241l1 169h-32q-76 0 -123 -7q-37 -5 -59 -13q-93 -36 -93 -117q0 -56 35.5 -88.5t91.5 -32.5q48 0 98.5 25t80.5 64zM1042 800q-89 0 -140 -64q-52 -64 -59 -149h367v11q0 97 -42 149.5t-126 52.5zM1400 412h-563q8 -122 82 -187t209 -65q96 0 227 45l8 2
q18 0 21 -24l19 -129q0 -16 -16 -25q-137 -55 -305 -55q-117 0 -208 39t-144 113q-54 -62 -134 -100q-76 -37 -128 -45q-51 -9 -98 -9q-128 0 -219 72q-91 73 -91 209q-5 190 150 264q38 21 99 32q54 10 106 13q43 4 112 4h62v47q0 91 -48.5 135t-155.5 44q-56 0 -132 -19
q-6 -2 -61 -17q-11 -3 -21 -6t-16 -5t-7 -2q-10 -2 -11 -2q-13 0 -13 15l7 141q0 12 16 18q141 59 271 59q104 0 179 -31q76 -31 143 -115q107 146 292 146q227 0 314 -135q45 -68 64.5 -163t19.5 -236q0 -28 -30 -28zM1070 1298l-208 -191q-18 -15 -38 -15h-144
q-20 0 -20 16q0 12 7 19l148 189q16 21 28 28t30 7h194q56 0 3 -53z" />
    <glyph glyph-name="Oslashacute" unicode="&#x1fe;" horiz-adv-x="1203" 
d="M1132 648q0 -235 -69 -383q-60 -134 -168 -206q-93 -63 -209 -79q-53 -8 -102 -8q-148 0 -254 58l-79 -135q-9 -14 -29 -14h-109q-15 0 -15 13q0 6 3 10l124 211q-154 170 -154 543q0 293 123 469q131 186 409 186q169 0 285 -70l82 140q15 28 38 28h110q13 0 13 -11
q0 -5 -3 -11l-137 -234q141 -168 141 -507zM322 646q0 -189 38 -301l420 715q-65 59 -181 59q-100 -3 -159.5 -50.5t-85.5 -140.5q-32 -111 -32 -282zM881 652q0 180 -25 273l-416 -709q59 -50 158 -50q283 0 283 486zM879 1618l-208 -191q-17 -15 -38 -15h-144
q-20 0 -20 16q0 12 7 19l148 189q16 21 28 28t30 7h194q56 0 3 -53z" />
    <glyph glyph-name="oslashacute" unicode="&#x1ff;" horiz-adv-x="1058" 
d="M799 1298l-208 -191q-17 -15 -38 -15h-144q-20 0 -20 16q0 12 7 19l148 189q16 21 28 28t30 7h194q56 0 3 -53zM71 473q0 326 193 439q105 62 264 62q122 0 216 -42l63 108q7 12 22 12h110q14 0 14 -14q0 -4 -3 -9l-98 -168q135 -128 135 -392q0 -227 -120 -361
q-119 -132 -348 -132q-90 0 -170 24l-58 -100q-12 -19 -30 -19h-106q-16 0 -16 13q0 7 4 14l90 153q-162 126 -162 412zM312 467q0 -134 37 -208l294 501q-49 34 -122 34q-111 2 -165 -87q-44 -79 -44 -240zM746 463q0 102 -23 177l-277 -474q34 -12 78 -12q109 0 165.5 81
t56.5 228z" />
    <glyph glyph-name="Scommaaccent" unicode="&#x218;" horiz-adv-x="1049" 
d="M252 293l30 -105q112 -20 183 -20q124 0 194.5 50t70.5 151q-4 37 -10.5 59t-25.5 40l-12 12t-12.5 11.5t-12 8.5t-19.5 11q-6 3 -13.5 6.5t-12.5 6t-8 3.5q-9 5 -40 16t-40 14q-13 6 -44 15q-18 6 -45.5 15.5t-38.5 12.5q-40 15 -78 31q-71 32 -133 86q-85 78 -89 225
q0 369 435 369q201 0 349 -46q15 -4 22 -14q4 -7 4 -18l-11 -230q-2 -20 -21 -20h-105q-16 0 -21 17l-33 114q-55 9 -118 9q-128 0 -188.5 -40t-60.5 -131q0 -47 40 -83q21 -17 50 -31q28 -13 59 -25q51 -18 75 -26h1l1 -1h1h1l1 -1h1h1l1 -1h1h1l1 -1h2q156 -53 225 -96
q166 -107 168 -309q0 -199 -125 -300q-124 -100 -341 -100q-111 0 -206 13q-104 14 -144 26l-45 13q-12 5 -19 14q-5 8 -5 16l11 230q2 21 22 21h104q19 0 22 -18zM627 -128l-119 -297q-9 -22 -24 -22h-116q-14 0 -14 13q0 11 4 34l48 282q3 26 30 26h179q19 0 19 -11
q0 -8 -7 -25z" />
    <glyph glyph-name="scommaaccent" unicode="&#x219;" horiz-adv-x="881" 
d="M211 283l21 -102l4 -1q56 -28 203 -28q76 0 121 29.5t45 82.5q0 49 -63 76q-32 13 -59 21q-30 9 -79 20q-80 19 -126 37q-48 19 -93 53q-84 66 -84 214q0 76 29 133t79.5 90t111.5 49t131 16q173 0 314 -49q20 -8 20 -28l-12 -201q-2 -18 -20 -18h-74q-16 0 -19 14
l-24 98l-2 1q-3 0 -22.5 3t-51 5.5t-61.5 2.5q-190 0 -190 -103q0 -26 17.5 -45.5t51 -34t69 -25t86 -26t86.5 -30.5q201 -75 201 -263q0 -64 -20 -115.5t-54 -85t-80.5 -56t-96 -32t-104.5 -9.5q-92 0 -180 13q-89 13 -137 27l-46 13q-15 5 -19 16q-2 6 -2 17l13 213
q1 19 22 19h77q15 0 17 -11zM537 -159l-119 -297q-9 -22 -24 -22h-116q-14 0 -14 13q0 11 4 34l48 282q3 26 30 26h179q19 0 19 -11q0 -10 -7 -25z" />
    <glyph glyph-name="uni021A" unicode="&#x21a;" horiz-adv-x="1040" 
d="M846 1086h-206v-899l133 -37q20 -6 20 -26v-104q0 -20 -25 -20h-496q-25 0 -25 20v104q0 20 20 26l133 37v899h-205l-31 -115q-5 -17 -22 -17h-104q-22 0 -22 20v287q0 24 29 24h951q28 0 28 -24v-287q0 -20 -21 -20h-104q-17 0 -22 17zM623 -129l-119 -297
q-9 -22 -24 -22h-116q-14 0 -14 13q0 11 4 34l48 282q3 26 30 26h179q19 0 19 -11q0 -10 -7 -25z" />
    <glyph glyph-name="uni021B" unicode="&#x21b;" horiz-adv-x="710" 
d="M539 -159l-119 -297q-9 -22 -24 -22h-116q-14 0 -14 13q0 11 4 34l48 282q3 26 30 26h179q19 0 19 -11q0 -10 -7 -25zM614 776h-210v-506q0 -102 123 -102q25 0 64 3.5t43 3.5q26 0 27 -21l11 -143q0 -17 -15 -19q-108 -18 -182 -18q-304 0 -304 296v506h-124
q-31 0 -31 24v126q0 24 31 24h124v183q0 30 24 30h185q24 0 24 -30v-183h210q31 0 31 -24v-126q0 -24 -31 -24z" />
    <glyph glyph-name="uni0259" unicode="&#x259;" horiz-adv-x="960" 
d="M71 494q0 29 29 29h563q-7 136 -78 200t-213 64q-96 0 -226 -45l-8 -2q-19 0 -22 24l-18 132q0 14 15 21q141 56 306 56q225 0 347 -128q123 -127 123 -361q0 -305 -189 -441q-96 -69 -231 -69q-211 0 -305 127q-93 127 -93 393zM458 148q84 0 133 57q49 58 64 143h-362
q6 -96 48.5 -148t116.5 -52z" />
    <glyph glyph-name="uni02BC" unicode="&#x2bc;" horiz-adv-x="481" 
d="M426 1403l-185 -461q-8 -17 -21 -17h-121q-15 0 -15 17l79 461q3 17 21 17h224q20 0 20 -10l-1 -2q-1 -3 -1 -5z" />
    <glyph glyph-name="circumflex" unicode="&#x2c6;" horiz-adv-x="776" 
d="M530 1083l-141 126l-141 -126q-20 -15 -36 -15q-4 0 -17 3l-99 21q-21 4 -21 16q0 8 8 19l157 188q30 36 54 36h189q24 0 54 -36l157 -188q9 -11 9 -18q0 -11 -22 -17l-98 -21q-15 -3 -18 -3q-17 0 -35 15z" />
    <glyph glyph-name="caron" unicode="&#x2c7;" horiz-adv-x="776" 
d="M244 1363l145 -130l142 127q17 14 32 14q3 0 18 -3l100 -21q21 -4 21 -16q0 -8 -8 -19l-160 -192q-29 -32 -51 -32h-189q-26 0 -54 36l-157 188q-8 10 -8 19q0 12 21 16l119 25q17 0 29 -12z" />
    <glyph glyph-name="breve" unicode="&#x2d8;" horiz-adv-x="731" 
d="M365 1080q-117 0 -187 66q-70 65 -85 152q0 10 14 14l114 34q3 1 6 1q10 0 14 -16q11 -32 43 -63t81 -31q48 0 81 30q34 31 44 64q4 15 16 15q5 0 7 -1l111 -33q11 -5 12 -7q1 -1 1 -7q-11 -82 -82 -150q-73 -68 -190 -68z" />
    <glyph glyph-name="dotaccent" unicode="&#x2d9;" horiz-adv-x="397" 
d="M198 1332q60 0 94 -32.5t34 -89.5t-34 -89.5t-94 -32.5t-93.5 32.5t-33.5 89.5t33.5 89.5t93.5 32.5z" />
    <glyph glyph-name="ring" unicode="&#x2da;" horiz-adv-x="563" 
d="M279 1313q-29 0 -45.5 -18t-16.5 -48q0 -26 17 -45t43 -19q29 0 46.5 18.5t17.5 46.5t-17.5 46.5t-44.5 18.5zM88 1246q0 78 53 128t142 50q87 0 138 -48.5t51 -127.5q0 -74 -54 -124q-52 -48 -137 -48q-86 0 -140 48q-53 50 -53 122z" />
    <glyph glyph-name="ogonek" unicode="&#x2db;" horiz-adv-x="589" 
d="M527 -366q-110 -62 -227 -62q-88 0 -150 44t-62 130q0 78 43 142q43 63 126 142h181q-72 -57 -110 -123q-33 -57 -33 -110q0 -37 21 -59.5t56 -22.5q23 0 42 7q5 1 13.5 3.5t18 5t12.5 3.5q15 3 16 3q11 0 17 -11l43 -71q2 -6 2 -8q0 -9 -9 -13z" />
    <glyph glyph-name="tilde" unicode="&#x2dc;" horiz-adv-x="816" 
d="M303 1337q47 0 102 -36q56 -35 84 -35q21 0 49.5 16t51.5 42q6 6 12 6q8 0 15 -7l72 -70q8 -8 8 -16q0 -5 -4 -14q-30 -63 -80.5 -97.5t-113.5 -34.5q-43 0 -102 35q-58 36 -83 36q-21 0 -49.5 -16t-51.5 -42q-6 -6 -12 -6q-8 0 -17 9l-71 69q-8 8 -8 15q0 6 5 14
q80 132 193 132z" />
    <glyph glyph-name="hungarumlaut" unicode="&#x2dd;" horiz-adv-x="845" 
d="M423 1310l-189 -203q-14 -15 -37 -15h-139q-21 0 -21 16q0 6 8 19l127 189q23 35 58 35h179q28 0 28 -14q0 -13 -14 -27zM773 1310l-189 -203q-14 -15 -37 -15h-139q-21 0 -21 16q0 6 8 19l127 189q23 35 58 35h179q28 0 28 -14q0 -13 -14 -27z" />
    <glyph glyph-name="uni037E" unicode="&#x37e;" horiz-adv-x="488" 
d="M395 245l-183 -472q-5 -17 -20 -17h-136q-15 0 -15 13q0 4 1 9l86 469q1 6 7 11t13 5h230q18 0 18 -12q0 -5 -1 -6zM267 622q-67 0 -108.5 40.5t-41.5 106.5q0 65 42 109q44 44 108 44q63 0 106 -45q44 -44 44 -108q0 -66 -42 -106.5t-108 -40.5z" />
    <glyph glyph-name="tonos" unicode="&#x384;" horiz-adv-x="404" 
d="M318 1332l-82 -228q-7 -22 -25 -22h-115q-13 0 -13 16l29 243q3 26 30 26h161q19 0 19 -16q0 -8 -4 -19z" />
    <glyph glyph-name="dieresistonos" unicode="&#x385;" horiz-adv-x="790" 
d="M541 1189q0 48 27 74t79 26q50 0 78 -26t28 -74q0 -46 -28.5 -73t-77.5 -27q-51 0 -78.5 26.5t-27.5 73.5zM37 1189q0 48 27.5 74t78.5 26q50 0 77.5 -26t27.5 -74q0 -46 -27.5 -73t-77.5 -27t-78 27t-28 73zM532 1332l-82 -228q-7 -22 -25 -22h-115q-13 0 -13 16l29 243
q3 26 30 26h161q19 0 19 -16q0 -8 -4 -19z" />
    <glyph glyph-name="Alphatonos" unicode="&#x386;" horiz-adv-x="1248" 
d="M626 1027q-46 -149 -131 -451l-20 -69h330l-8 33l-133 487q-5 17 -15 73l-2 13h-4q-7 -46 -17 -86zM433 1098l-113 37q-20 8 -20 26v104q0 20 25 20h467q16 0 21 -14l383 -1246q2 -8 2 -9q0 -16 -14 -16h-213q-7 0 -15.5 5.5t-10.5 13.5l-86 294h-437l-87 -294
q-2 -8 -10 -13.5t-15 -5.5h-213q-14 0 -14 14q0 5 1 7zM257 1332l-82 -228q-7 -22 -25 -22h-115q-13 0 -13 16l29 243q3 26 30 26h161q19 0 19 -16q0 -8 -4 -19z" />
    <glyph glyph-name="anoteleia" unicode="&#x387;" horiz-adv-x="460" 
d="M232 382q-67 0 -108.5 40.5t-41.5 106.5q0 65 42 109q44 44 108 44q62 0 106 -45q44 -44 44 -108q0 -66 -42 -106.5t-108 -40.5z" />
    <glyph glyph-name="Epsilontonos" unicode="&#x388;" horiz-adv-x="1273" 
d="M1027 595h-364v-396h508q24 0 24 -29v-140q0 -30 -24 -30h-723q-24 0 -24 30v1068l-113 37q-20 8 -20 26v104q0 20 25 20h850q35 0 35 -34v-130q0 -35 -35 -35h-503v-292h364q17 0 26 -9.5t9 -25.5v-130q0 -34 -35 -34zM257 1332l-82 -228q-7 -22 -25 -22h-115
q-13 0 -13 16l29 243q3 26 30 26h161q19 0 19 -16q0 -8 -4 -19z" />
    <glyph glyph-name="Etatonos" unicode="&#x389;" horiz-adv-x="1536" 
d="M425 1098l-113 37q-20 8 -20 26v104q0 20 25 20h312q35 0 35 -35v-527h482v532q0 30 25 30h190q25 0 25 -30v-1225q0 -30 -25 -30h-190q-25 0 -25 30v494h-482v-494q0 -30 -24 -30h-191q-24 0 -24 30v1068zM257 1332l-82 -228q-7 -22 -25 -22h-115q-13 0 -13 16l29 243
q3 26 30 26h161q19 0 19 -16q0 -8 -4 -19z" />
    <glyph glyph-name="Iotatonos" unicode="&#x38a;" horiz-adv-x="908" 
d="M684 187l133 -37q20 -6 20 -26v-104q0 -20 -25 -20h-496q-25 0 -25 20v104q0 20 20 26l133 37v911l-133 37q-20 6 -20 26v104q0 20 25 20h496q25 0 25 -20v-104q0 -20 -20 -26l-133 -37v-911zM257 1332l-82 -228q-7 -22 -25 -22h-115q-13 0 -13 16l29 243q3 26 30 26h161
q19 0 19 -16q0 -8 -4 -19z" />
    <glyph glyph-name="Omicrontonos" unicode="&#x38c;" horiz-adv-x="1296" 
d="M688 -24q-114 0 -216 34q-112 40 -189 138q-130 160 -133 510q0 144 31.5 261t95.5 205.5t168.5 136.5t242.5 48q136 0 241 -47.5t169 -137.5q128 -176 128 -466q0 -682 -538 -682zM401 646q0 -233 60 -348q28 -51 67 -80q38 -28 73.5 -37.5t86.5 -9.5t87 10t74 38
q40 30 66 80q60 115 60 347q0 172 -36 279q-19 60 -51 101q-69 88 -200 88q-191 0 -252 -189q-35 -112 -35 -279zM257 1332l-82 -228q-7 -22 -25 -22h-115q-13 0 -13 16l29 243q3 26 30 26h161q19 0 19 -16q0 -8 -4 -19z" />
    <glyph glyph-name="Upsilontonos" unicode="&#x38e;" horiz-adv-x="1472" 
d="M642 1260q119 -231 269 -603l5 -13l4 13q77 194 86 215q43 103 80 182q45 99 103 206q15 25 35 25h206q34 0 34 -18q0 -7 -7 -22q-276 -529 -422 -852v-363q0 -30 -24 -30h-192q-24 0 -24 30v363q-138 308 -344 703l-133 39q-21 6 -21 28v99q0 23 26 23h283q24 0 36 -25z
M257 1332l-82 -228q-7 -22 -25 -22h-115q-13 0 -13 16l29 243q3 26 30 26h161q19 0 19 -16q0 -8 -4 -19z" />
    <glyph glyph-name="Omegatonos" unicode="&#x38f;" horiz-adv-x="1353" 
d="M716 1309q274 0 411 -167t137 -461q0 -139 -42 -267q-43 -130 -106 -224l159 -40q21 -6 21 -26v-104q0 -20 -26 -20h-413q-25 0 -25 20v104q0 18 12 27q170 159 170 515q0 211 -61 323q-66 125 -237 125q-197 0 -260 -176q-37 -104 -37 -272q0 -356 169 -515
q12 -9 12 -27v-104q0 -20 -25 -20h-413q-25 0 -25 20v104q0 20 20 26l159 40q-63 94 -106 224q-42 128 -42 267q0 294 137 461t411 167zM257 1332l-82 -228q-7 -22 -25 -22h-115q-13 0 -13 16l29 243q3 26 30 26h161q19 0 19 -16q0 -8 -4 -19z" />
    <glyph glyph-name="iotadieresistonos" unicode="&#x390;" horiz-adv-x="770" 
d="M501 1189q0 48 27 74t79 26q50 0 78 -26t28 -74q0 -46 -28.5 -73t-77.5 -27q-51 0 -78.5 26.5t-27.5 73.5zM-3 1189q0 48 27.5 74t78.5 26q50 0 77.5 -26t27.5 -74q0 -46 -27.5 -73t-77.5 -27t-78 27t-28 73zM492 1332l-82 -228q-7 -22 -25 -22h-115q-13 0 -13 16l29 243
q3 26 30 26h161q19 0 19 -16q0 -8 -4 -19zM668 162h30q8 0 13 -6.5t5 -12.5l9 -134q0 -22 -22 -25q-71 -10 -164 -10q-162 0 -221 96q-51 87 -51 232v480l-107 25q-18 5 -18 21v88q0 24 27 26l300 20q14 0 23 -9.5t9 -23.5v-633q3 -57 21.5 -85.5t55.5 -39.5q35 -9 90 -9z
" />
    <glyph glyph-name="Alpha" unicode="&#x391;" horiz-adv-x="1191" 
d="M581 1027q-46 -149 -131 -451l-20 -69h330l-8 33l-133 487q-5 17 -15 73l-2 13h-4q-7 -46 -17 -86zM388 1098l-113 37q-20 8 -20 26v104q0 20 25 20h467q16 0 21 -14l383 -1246q2 -8 2 -9q0 -16 -14 -16h-213q-7 0 -15.5 5.5t-10.5 13.5l-86 294h-437l-87 -294
q-2 -8 -10 -13.5t-15 -5.5h-213q-14 0 -14 14q0 5 1 7z" />
    <glyph glyph-name="Beta" unicode="&#x392;" horiz-adv-x="1147" 
d="M583 1106q-34 0 -68.5 -1.5t-56 -3t-24.5 -1.5h-2v-329h136q90 0 150 48q60 49 60 123q0 88 -48.5 125t-146.5 39zM553 587h-121v-410q27 -6 136 -6q112 0 183.5 53.5t71.5 169.5q0 193 -270 193zM217 0q-24 3 -24 30v1068l-113 37q-20 8 -20 26v104q0 20 25 20
q315 6 453 6q128 0 207 -12q96 -12 168 -57q113 -68 113 -244q0 -200 -220 -284q123 -26 196 -114q74 -89 74 -227q0 -181 -132.5 -277t-382.5 -96q-65 0 -160 5q-59 3 -135 10z" />
    <glyph glyph-name="Gamma" unicode="&#x393;" horiz-adv-x="900" 
d="M302 1285h553q29 0 29 -24v-287q0 -20 -21 -20h-105q-16 0 -21 17l-32 115h-268q-34 0 -47 -8.5t-13 -32.5v-1015q0 -30 -24 -30h-191q-24 0 -24 30v1125q0 70 37.5 100t126.5 30z" />
    <glyph glyph-name="uni0394" unicode="&#x394;" horiz-adv-x="1227" 
d="M41 41l410 1215q11 29 41 29h254q29 0 40 -29l401 -1219q2 -10 2 -13q0 -11 -8 -17.5t-17 -6.5h-1100q-27 0 -27 22q0 8 4 19zM613 1093l-15 -66l-240 -812l-2 -10q0 -10 18 -10h486q22 0 22 10l-2 8l-246 814l-16 66h-5z" />
    <glyph glyph-name="Epsilon" unicode="&#x395;" horiz-adv-x="1041" 
d="M796 595h-364v-396h508q24 0 24 -29v-140q0 -30 -24 -30h-723q-24 0 -24 30v1068l-113 37q-20 8 -20 26v104q0 20 25 20h850q35 0 35 -34v-130q0 -35 -35 -35h-503v-292h364q17 0 26 -9.5t9 -25.5v-130q0 -34 -35 -34z" />
    <glyph glyph-name="Zeta" unicode="&#x396;" horiz-adv-x="1081" 
d="M250 1086l-43 -115q-6 -17 -23 -17h-103q-19 0 -21 20v283q0 12 4 19q6 9 22 9h844q39 0 39 -37v-132q0 -24 -12 -40l-620 -877h361q107 0 114 122q0 6 2 12t8.5 12t16.5 6h161q21 0 21 -27q-5 -188 -71 -256t-217 -68h-620q-50 0 -50 37v125q0 27 13 40l613 884h-439z
" />
    <glyph glyph-name="Eta" unicode="&#x397;" horiz-adv-x="1292" 
d="M193 1098l-113 37q-20 8 -20 26v104q0 20 25 20h312q35 0 35 -35v-527h482v532q0 30 25 30h190q25 0 25 -30v-1225q0 -30 -25 -30h-190q-25 0 -25 30v494h-482v-494q0 -30 -24 -30h-191q-24 0 -24 30v1068z" />
    <glyph glyph-name="Theta" unicode="&#x398;" horiz-adv-x="1218" 
d="M785 560h-349q-14 0 -18 4t-4 17v132q0 18 20 18h348q15 0 19 -3.5t4 -13.5v-135q0 -12 -4 -15.5t-16 -3.5zM609 -24q-114 0 -216 34q-112 40 -189 138q-130 160 -133 510q0 144 31.5 261t95.5 205.5t168.5 136.5t242.5 48q136 0 241 -47.5t169 -137.5q128 -176 128 -466
q0 -682 -538 -682zM322 646q0 -233 60 -348q28 -51 67 -80q38 -28 73.5 -37.5t86.5 -9.5t87 10t74 38q40 30 66 80q60 115 60 347q0 172 -36 279q-19 60 -51 101q-69 88 -200 88q-191 0 -252 -189q-35 -112 -35 -279z" />
    <glyph glyph-name="Iota" unicode="&#x399;" horiz-adv-x="688" 
d="M464 187l133 -37q20 -6 20 -26v-104q0 -20 -25 -20h-496q-25 0 -25 20v104q0 20 20 26l133 37v911l-133 37q-20 6 -20 26v104q0 20 25 20h496q25 0 25 -20v-104q0 -20 -20 -26l-133 -37v-911z" />
    <glyph glyph-name="Kappa" unicode="&#x39a;" horiz-adv-x="1206" 
d="M433 753h35q45 0 71.5 12t45.5 40q22 32 52 107q11 28 50 135q24 64 65 123q43 60 97 86q65 30 230 30q21 0 27 -4.5t6 -19.5v-146q0 -18 -8.5 -23.5t-28.5 -5.5q-57 0 -91 -15q-19 -8 -34.5 -23.5t-31.5 -46t-23 -45.5t-24.5 -61t-20.5 -55q-44 -115 -121 -153
q66 -34 108.5 -104t78.5 -182q14 -42 21 -66q10 -24 27 -56q19 -35 37 -50q50 -43 125 -43q20 0 26 -6.5t6 -24.5v-141q0 -19 -23 -23q-16 -4 -44 -4q-130 0 -225 63q-106 73 -155 253q-30 104 -52 152q-17 38 -34 58q-43 50 -101 50h-91v-534q0 -30 -24 -30h-191
q-24 0 -24 30v1068l-113 37q-20 8 -20 26v104q0 20 25 20h312q35 0 35 -35v-497z" />
    <glyph glyph-name="Lambda" unicode="&#x39b;" horiz-adv-x="1276" 
d="M1224 0h-303q-32 0 -40 36q-53 228 -76 319q-36 143 -86 317q-62 216 -121 382q-7 -54 -21 -106l-251 -912q-9 -36 -48 -36h-208q-22 0 -22 21q0 4 3 16l395 1213q4 15 17 25t30 10h214q34 0 49 -32q142 -297 355 -1067l118 -36q20 -6 20 -26v-104q0 -20 -25 -20z" />
    <glyph glyph-name="Mu" unicode="&#x39c;" horiz-adv-x="1486" 
d="M653 334l-213 515q-48 118 -56 196h-12v-1015q0 -30 -24 -30h-197q-12 0 -19 10q-5 7 -5 20l59 1214q1 16 11 28.5t26 12.5h233q15 0 28 -10t18.5 -18.5t6.5 -12.5l225 -590q7 -22 15 -88l2 -18q0 4 2 21t7.5 42t11.5 43l229 603q13 28 47 28h227q16 0 27 -14t14 -29
q15 -374 43 -1212q0 -30 -25 -30h-190q-25 0 -25 30v1015h-6q-5 -67 -58 -196l-213 -515q-12 -30 -31 -30h-124q-14 0 -20.5 6t-13.5 24z" />
    <glyph glyph-name="Nu" unicode="&#x39d;" horiz-adv-x="1330" 
d="M984 0q-40 0 -62 42l-418 737q-39 69 -67 159h-5v-908q0 -30 -24 -30h-191q-24 0 -24 30v1068l-113 37q-20 8 -20 26v104q0 20 25 20h325q28 0 41 -21l434 -765q40 -66 58 -128l6 -20h4v902q0 32 27 32h188q24 0 24 -30v-1215q0 -40 -41 -40h-167z" />
    <glyph glyph-name="Xi" unicode="&#x39e;" horiz-adv-x="1010" 
d="M106 1285h797q36 0 36 -35v-149q0 -35 -36 -35h-797q-35 0 -35 35v149q0 35 35 35zM198 768h614q35 0 35 -34v-150q0 -16 -9 -25.5t-26 -9.5h-614q-36 0 -36 35v150q0 34 36 34zM106 220h797q36 0 36 -35v-149q0 -35 -36 -35h-797q-35 0 -35 35v149q0 35 35 35z" />
    <glyph glyph-name="Omicron" unicode="&#x39f;" horiz-adv-x="1218" 
d="M609 -24q-114 0 -216 34q-112 40 -189 138q-130 160 -133 510q0 144 31.5 261t95.5 205.5t168.5 136.5t242.5 48q136 0 241 -47.5t169 -137.5q128 -176 128 -466q0 -682 -538 -682zM322 646q0 -233 60 -348q28 -51 67 -80q38 -28 73.5 -37.5t86.5 -9.5t87 10t74 38
q40 30 66 80q60 115 60 347q0 172 -36 279q-19 60 -51 101q-69 88 -200 88q-191 0 -252 -189q-35 -112 -35 -279z" />
    <glyph glyph-name="Pi" unicode="&#x3a0;" horiz-adv-x="1283" 
d="M905 30v900q0 111 -35 138q-22 16 -45 17q-24 3 -66 3h-327v-1058q0 -30 -24 -30h-191q-24 0 -24 30v1068l-113 37q-20 8 -20 26v104q0 20 25 20h828q132 0 181 -76q51 -77 51 -226v-953q0 -30 -25 -30h-190q-25 0 -25 30z" />
    <glyph glyph-name="Rho" unicode="&#x3a1;" horiz-adv-x="1059" 
d="M432 1099v-449h54q289 0 289 233q0 117 -61 168.5t-192 51.5q-21 0 -42 -1t-33.5 -2t-13.5 -1h-1zM432 461v-431q0 -30 -24 -30h-191q-24 0 -24 30v1068l-113 37q-20 8 -20 26v104q0 25 25 25h490q214 0 330 -98.5t116 -288.5q0 -218 -133 -330t-381 -112h-75z" />
    <glyph glyph-name="Sigma" unicode="&#x3a3;" horiz-adv-x="1066" 
d="M966 0h-877q-11 0 -18 9t-7 20v96q0 19 8 29l2 4l347 470q15 21 -1 43l-346 466q-10 14 -10 33v86q0 10 8 19.5t19 9.5h865q28 0 28 -24v-287q0 -20 -21 -20h-104q-17 0 -22 17l-31 115h-426l310 -417q9 -12 9 -22q0 -11 -8 -21l-323 -428h448l31 115q5 17 22 17h104
q22 0 22 -22v-284q0 -24 -29 -24z" />
    <glyph glyph-name="Tau" unicode="&#x3a4;" horiz-adv-x="1040" 
d="M846 1086h-206v-899l133 -37q20 -6 20 -26v-104q0 -20 -25 -20h-496q-25 0 -25 20v104q0 20 20 26l133 37v899h-205l-31 -115q-5 -17 -22 -17h-104q-22 0 -22 20v287q0 24 29 24h951q28 0 28 -24v-287q0 -20 -21 -20h-104q-17 0 -22 17z" />
    <glyph glyph-name="Upsilon" unicode="&#x3a5;" horiz-adv-x="1203" 
d="M372 1260q119 -231 269 -603l5 -13l4 13q77 194 86 215q43 103 80 182q45 99 103 206q15 25 35 25h206q34 0 34 -18q0 -7 -7 -22q-276 -529 -422 -852v-363q0 -30 -24 -30h-192q-24 0 -24 30v363q-138 308 -344 703l-133 39q-21 6 -21 28v99q0 23 26 23h283q24 0 36 -25z
" />
    <glyph glyph-name="Phi" unicode="&#x3a6;" horiz-adv-x="1367" 
d="M566 30v100q-155 11 -244 49q-124 54 -190.5 160t-66.5 253q0 168 80 283t229 162q73 24 192 29v37l-112 37q-21 8 -21 26v104q0 20 26 20h307q36 0 36 -35v-189q94 -3 165 -21q161 -42 248 -159.5t87 -293.5q0 -265 -204 -386q-112 -67 -296 -76v-100q0 -30 -24 -30
h-187q-25 0 -25 30zM305 598q0 -135 64.5 -212t196.5 -85v594q-58 -4 -106 -24q-155 -63 -155 -273zM802 895v-594q131 9 195.5 85.5t64.5 211.5q0 220 -170 279q-45 15 -90 18z" />
    <glyph glyph-name="Chi" unicode="&#x3a7;" horiz-adv-x="1258" 
d="M890 24l-239 406q-6 -9 -49 -85q-31 -56 -60 -103q-28 -43 -58 -82q-66 -83 -143 -125t-199 -42q-28 0 -41 6q-14 5 -14 23l13 155q2 16 24 17q53 5 109 49q53 42 99 104q56 76 119 173l60 95q-36 60 -160 258q-37 59 -83 131.5t-56 88.5q-92 27 -132 42q-20 8 -20 26
v104q0 20 25 20h285q32 0 47 -29l69 -126.5t64 -117.5t38 -70q23 -41 37 -68q27 -47 28 -50l242 434q15 27 50 27h210q29 0 29 -18q0 -13 -10 -26l-388 -604q49 -76 166 -245q119 -170 240 -355q6 -11 6 -17q0 -20 -30 -20h-231q-35 0 -47 24z" />
    <glyph glyph-name="Psi" unicode="&#x3a8;" horiz-adv-x="1500" 
d="M1357 1098l-1 -203q-2 -282 -130 -421q-129 -140 -357 -140v-304q0 -30 -24 -30h-189q-24 0 -24 30v304q-228 0 -359 140q-130 139 -130 421v203l-112 37q-21 7 -21 26v104q0 20 26 20h311q36 0 36 -35v-379q0 -347 249 -347v580q0 31 24 31h189q24 0 24 -31v-580
q249 0 249 347v379q0 35 35 35h312q25 0 25 -20v-104q0 -18 -20 -26z" />
    <glyph glyph-name="uni03A9" unicode="&#x3a9;" horiz-adv-x="1279" 
d="M639 1309q274 0 411 -167t137 -461q0 -139 -42 -267q-43 -130 -106 -224l159 -40q21 -6 21 -26v-104q0 -20 -26 -20h-413q-25 0 -25 20v104q0 18 12 27q170 159 170 515q0 211 -61 323q-66 125 -237 125q-197 0 -260 -176q-37 -104 -37 -272q0 -356 169 -515
q12 -9 12 -27v-104q0 -20 -25 -20h-413q-25 0 -25 20v104q0 20 20 26l159 40q-63 94 -106 224q-42 128 -42 267q0 294 137 461t411 167z" />
    <glyph glyph-name="Iotadieresis" unicode="&#x3aa;" horiz-adv-x="719" 
d="M69 1516q0 51 29 78t83 27q53 0 82.5 -27.5t29.5 -77.5q0 -49 -30 -77.5t-82 -28.5q-54 0 -83 28t-29 78zM444 1516q0 50 29 77.5t84 27.5q53 0 82 -27.5t29 -77.5q0 -49 -29.5 -77.5t-81.5 -28.5q-54 0 -83.5 28.5t-29.5 77.5zM484 187l133 -37q20 -6 20 -26v-104
q0 -20 -25 -20h-496q-25 0 -25 20v104q0 20 20 26l133 37v911l-133 37q-20 6 -20 26v104q0 20 25 20h496q25 0 25 -20v-104q0 -20 -20 -26l-133 -37v-911z" />
    <glyph glyph-name="Upsilondieresis" unicode="&#x3ab;" horiz-adv-x="1203" 
d="M372 1260q119 -231 269 -603l5 -13l4 13q77 194 86 215q43 103 80 182q45 99 103 206q15 25 35 25h206q34 0 34 -18q0 -7 -7 -22q-276 -529 -422 -852v-363q0 -30 -24 -30h-192q-24 0 -24 30v363q-138 308 -344 703l-133 39q-21 6 -21 28v99q0 23 26 23h283q24 0 36 -25z
M346 1516q0 51 29 78t83 27q53 0 82.5 -27.5t29.5 -77.5q0 -49 -30 -77.5t-82 -28.5q-54 0 -83 28t-29 78zM721 1516q0 50 29 77.5t84 27.5q53 0 82 -27.5t29 -77.5q0 -49 -29.5 -77.5t-81.5 -28.5q-54 0 -83.5 28.5t-29.5 77.5z" />
    <glyph glyph-name="alphatonos" unicode="&#x3ac;" horiz-adv-x="1285" 
d="M763 436q-13 56 -24 93q-11 39 -30 87q-20 50 -40 79q-50 73 -121 73q-100 0 -171 -107q-69 -107 -69 -261q0 -78 21 -150q13 -41 42 -65t68 -24q82 0 171 77q88 78 153 198zM1038 963q5 11 15 11l181 -29q13 -1 13 -15q0 -4 -1 -5q-86 -208 -249 -523l70 -264l99 -23
q13 -3 13 -21v-69q0 -20 -23 -22l-256 -16q-20 0 -26 20l-44 172q-88 -114 -191.5 -164.5t-232.5 -50.5q-72 0 -129.5 24t-95.5 64.5t-63 96.5t-36 118t-11 131q0 253 136 414q137 162 341 162q145 0 231 -77q84 -75 137 -222q78 174 122 288zM706 1332l-82 -228
q-7 -22 -25 -22h-115q-13 0 -13 16l29 243q3 26 30 26h161q19 0 19 -16q0 -8 -4 -19z" />
    <glyph glyph-name="epsilontonos" unicode="&#x3ad;" horiz-adv-x="875" 
d="M747 918q38 -11 38 -33l-12 -227q-1 -21 -20 -21h-73q-18 0 -21 15l-28 110q-77 27 -162 27q-136 0 -136 -103q0 -117 170 -117h88q34 0 34 -24v-134q0 -24 -36 -24h-102q-166 0 -166 -97q0 -59 44 -95.5t115 -36.5q68 0 153 30l26 108q3 13 22 13h72q19 0 20 -21
l14 -225q0 -18 -19 -28q-56 -26 -140 -42q-88 -17 -146 -17q-186 0 -292 78t-106 226q0 81 46.5 137.5t125.5 73.5q-149 66 -149 209q0 132 88.5 203t256.5 71q147 0 295 -56zM632 1332l-82 -228q-7 -22 -25 -22h-115q-13 0 -13 16l29 243q3 26 30 26h161q19 0 19 -16
q0 -8 -4 -19z" />
    <glyph glyph-name="etatonos" unicode="&#x3ae;" horiz-adv-x="1119" 
d="M971 8q0 -313 21 -409q0 -21 -21 -21h-196q-16 0 -20 13q-18 51 -18 342v686q0 171 -126 171q-55 0 -112.5 -32t-101.5 -88v-640q0 -30 -25 -30h-184q-25 0 -25 30v750l-107 25q-18 5 -18 21v93q0 25 27 26l274 17q25 0 31 -33l17 -112q158 157 324 157
q123 0 191.5 -73.5t68.5 -203.5v-689zM736 1332l-82 -228q-7 -22 -25 -22h-115q-13 0 -13 16l29 243q3 26 30 26h161q19 0 19 -16q0 -8 -4 -19z" />
    <glyph glyph-name="iotatonos" unicode="&#x3af;" horiz-adv-x="648" 
d="M566 162h30q8 0 13 -6.5t5 -12.5l9 -134q0 -22 -22 -25q-71 -10 -164 -10q-162 0 -221 96q-51 87 -51 232v480l-107 25q-18 5 -18 21v88q0 24 27 26l300 20q14 0 23 -9.5t9 -23.5v-633q3 -57 21.5 -85.5t55.5 -39.5q35 -9 90 -9zM423 1332l-82 -228q-7 -22 -25 -22h-115
q-13 0 -13 16l29 243q3 26 30 26h161q19 0 19 -16q0 -8 -4 -19z" />
    <glyph glyph-name="upsilondieresistonos" unicode="&#x3b0;" horiz-adv-x="1086" 
d="M756 769l-156 33q-18 4 -18 21v88q0 25 27 26l296 20q25 0 36 -36q63 -217 63 -408q2 -286 -147 -433q-113 -108 -315 -108q-173 0 -287 99q-123 109 -123 333v86q1 45 1 136q0 164 -17 298q0 26 25 26h185q23 0 26 -31l5 -79q6 -96 6 -188q0 -62 -1 -116t-1 -132
q0 -109 49.5 -166t131.5 -57q78 0 134 45.5t80 121.5q23 75 23 166q0 131 -23 255zM691 1189q0 48 27 74t79 26q50 0 78 -26t28 -74q0 -46 -28.5 -73t-77.5 -27q-51 0 -78.5 26.5t-27.5 73.5zM187 1189q0 48 27.5 74t78.5 26q50 0 77.5 -26t27.5 -74q0 -46 -27.5 -73
t-77.5 -27t-78 27t-28 73zM682 1332l-82 -228q-7 -22 -25 -22h-115q-13 0 -13 16l29 243q3 26 30 26h161q19 0 19 -16q0 -8 -4 -19z" />
    <glyph glyph-name="alpha" unicode="&#x3b1;" horiz-adv-x="1285" 
d="M763 436q-13 56 -24 93q-11 39 -30 87q-20 50 -40 79q-50 73 -121 73q-100 0 -171 -107q-69 -107 -69 -261q0 -78 21 -150q13 -41 42 -65t68 -24q82 0 171 77q88 78 153 198zM1038 963q5 11 15 11l181 -29q13 -1 13 -15q0 -4 -1 -5q-86 -208 -249 -523l70 -264l99 -23
q13 -3 13 -21v-69q0 -20 -23 -22l-256 -16q-20 0 -26 20l-44 172q-88 -114 -191.5 -164.5t-232.5 -50.5q-72 0 -129.5 24t-95.5 64.5t-63 96.5t-36 118t-11 131q0 253 136 414q137 162 341 162q145 0 231 -77q84 -75 137 -222q78 174 122 288z" />
    <glyph glyph-name="beta" unicode="&#x3b2;" horiz-adv-x="1185" 
d="M456 77l62 165q3 9 12 9q5 0 11 -3q82 -38 172 -38q49 0 86.5 20t55.5 55q36 65 36 140q0 99 -83 167t-213 74q-18 0 -18 19l6 150q0 9 2.5 13.5t6.5 6t13 3.5q74 12 126 73q53 62 53 137q0 71 -50 123q-49 52 -126 52q-225 0 -225 -267v-1107q0 -50 6 -115
q10 -85 14 -109q7 -42 7 -46q0 -21 -25 -21h-181q-24 0 -30 19q-25 74 -25 286v1134q0 104 38 190t103 138q132 107 304 107q163 0 285 -93q60 -46 94.5 -118.5t34.5 -158.5q0 -80 -51 -153t-136 -123q133 -48 212 -154q81 -105 81 -240q0 -182 -109 -300
q-109 -117 -295 -118q-115 0 -240 55q-16 9 -16 18q0 2 2 10z" />
    <glyph glyph-name="gamma" unicode="&#x3b3;" horiz-adv-x="1334" 
d="M667 260l301 674q14 32 38 32l294 -20q26 -2 26 -26v-88q0 -16 -17 -21l-144 -32q-109 -208 -167 -325q-51 -103 -104 -216q-12 -26 -48.5 -106.5t-58.5 -128.5v-396q0 -30 -24 -30h-192q-24 0 -24 30v396q-22 48 -58.5 128.5t-48.5 106.5q-34 74 -105 216
q-74 150 -166 325l-144 32q-17 5 -17 21v88q0 24 26 26l294 20q24 0 38 -32z" />
    <glyph glyph-name="delta" unicode="&#x3b4;" horiz-adv-x="1049" 
d="M512 171q96 0 166 76t70 212q0 150 -137 295q-160 -33 -245.5 -114.5t-85.5 -198.5t66 -194q66 -76 166 -76zM491 1447q214 0 433 -107q12 -7 17 -13q3 -6 3 -16l-12 -200q-2 -18 -20 -18h-74q-16 0 -19 14l-24 98q-157 68 -285 68q-29 0 -45 -17t-16 -36q0 -22 27 -53
q33 -35 123 -119q20 -19 46.5 -44t32.5 -31q15 -15 73 -74q42 -43 71 -81q23 -28 57 -82q51 -78 76 -187q12 -53 12 -107q0 -106 -36.5 -196.5t-100.5 -149.5q-61 -58 -139 -90t-159 -32q-115 0 -205 34.5t-146 96.5q-110 125 -110 318q0 174 99.5 297t282.5 188
q-116 97 -174.5 172t-58.5 140q0 84 55 150q64 77 216 77z" />
    <glyph glyph-name="epsilon" unicode="&#x3b5;" horiz-adv-x="909" 
d="M767 918q38 -11 38 -33l-12 -227q-1 -21 -20 -21h-73q-18 0 -21 15l-28 110q-77 27 -162 27q-136 0 -136 -103q0 -117 170 -117h88q34 0 34 -24v-134q0 -24 -36 -24h-102q-166 0 -166 -97q0 -59 44 -95.5t115 -36.5q68 0 153 30l26 108q3 13 22 13h72q19 0 20 -21
l14 -225q0 -18 -19 -28q-56 -26 -140 -42q-88 -17 -146 -17q-186 0 -292 78t-106 226q0 81 46.5 137.5t125.5 73.5q-149 66 -149 209q0 132 88.5 203t256.5 71q147 0 295 -56z" />
    <glyph glyph-name="zeta" unicode="&#x3b6;" horiz-adv-x="838" 
d="M577 -151q0 45 -48 84q-28 23 -48 35q-21 14 -69 42q-18 11 -43 26t-31 19q-229 145 -229 351q0 183 97 366q49 91 99 164q51 75 120 162h-203l-38 -99q-6 -15 -19 -15h-74q-19 0 -20 19l-11 257q0 11 6 17q6 8 19 8h707q27 0 29 -20l11 -84q0 -5 -1.5 -9.5t-3.5 -7
t-7 -6.5l-7.5 -6t-9.5 -6t-10 -6q-168 -108 -300 -298q-63 -92 -102 -198t-39 -205q0 -41 13.5 -77t29.5 -60t51 -53t56 -42.5t68.5 -42.5t65.5 -40q87 -54 136 -120t49 -165q0 -160 -133 -230q-98 -50 -284 -52q-15 0 -30 1h-31q-20 0 -20 22v154q0 15 18 15q183 0 219 46
q17 20 17 54z" />
    <glyph glyph-name="eta" unicode="&#x3b7;" horiz-adv-x="1119" 
d="M971 8q0 -313 21 -409q0 -21 -21 -21h-196q-16 0 -20 13q-18 51 -18 342v686q0 171 -126 171q-55 0 -112.5 -32t-101.5 -88v-640q0 -30 -25 -30h-184q-25 0 -25 30v750l-107 25q-18 5 -18 21v93q0 25 27 26l274 17q25 0 31 -33l17 -112q158 157 324 157
q123 0 191.5 -73.5t68.5 -203.5v-689z" />
    <glyph glyph-name="theta" unicode="&#x3b8;" horiz-adv-x="1050" 
d="M71 703q0 262 57 426q52 150 139 225q76 69 172 85q43 8 85 8q91 0 171 -38q98 -45 163 -150q77 -117 105 -321q16 -106 16 -241q2 -220 -49.5 -382t-157.5 -253t-257 -91t-251 93t-147 254q-46 159 -46 385zM520 186q102 0 166 127t72 325h-467q11 -273 108 -391
q51 -61 121 -61zM517 1220q-77 0 -138 -79q-69 -90 -86 -332h462q-20 266 -124 361q-51 50 -114 50z" />
    <glyph glyph-name="iota" unicode="&#x3b9;" horiz-adv-x="670" 
d="M586 162h30q8 0 13 -6.5t5 -12.5l9 -134q0 -22 -22 -25q-71 -10 -164 -10q-162 0 -221 96q-51 87 -51 232v480l-107 25q-18 5 -18 21v88q0 24 27 26l300 20q14 0 23 -9.5t9 -23.5v-633q3 -57 21.5 -85.5t55.5 -39.5q35 -9 90 -9z" />
    <glyph glyph-name="kappa" unicode="&#x3ba;" horiz-adv-x="1039" 
d="M397 930v-343h38q29 0 51 22q27 27 42 52q10 16 34 62q3 6 6.5 12.5t5.5 10t3 5.5q21 40 38 66q15 24 42 54q28 31 57 46q72 38 182 38h56q17 0 17 -16v-163q0 -16 -19 -16h-35q-44 0 -69 -15q-33 -20 -47 -37q-14 -16 -18 -22q-1 -2 -3.5 -5.5t-7 -9.5t-7.5 -11l-16 -24
q-1 -2 -12 -18.5t-15 -21.5q-2 -4 -7 -10.5t-11 -14.5l-9 -12q-27 -31 -53 -49q54 -34 87 -78q32 -40 77 -132q28 -57 58 -82q30 -24 92 -33q25 -3 25 -20v-157q0 -12 -10 -16t-43 -4q-118 0 -189 45.5t-113 141.5q-54 121 -92 167q-39 50 -93 50h-42v-362q0 -30 -25 -30
h-184q-25 0 -25 30v753l-107 24q-18 5 -18 21v88q0 24 27 26l300 20q13 0 22.5 -9t9.5 -23z" />
    <glyph glyph-name="lambda" unicode="&#x3bb;" horiz-adv-x="1189" 
d="M136 -31q-2 -1 -9 -1q-9 0 -14 12l-63 164q-1 3 -1 8q0 10 18 16q82 27 100 65l159 363q7 15 37 86q24 57 45 105q30 67 44 95q32 66 107 92q-38 146 -97 202q-58 57 -165 57q-4 0 -11.5 -0.5t-21.5 -1t-25 -0.5q-19 0 -20 18l-13 150q0 19 21 21q57 6 118 6
q175 0 267 -78q82 -70 150 -252q35 -91 105 -331q39 -133 78 -273q44 -157 61 -214q32 -103 41 -130q98 -30 119 -36q13 -3 13 -21v-69q0 -20 -23 -22q-260 -12 -271 -12q-30 0 -36 24l-211 724q-28 -15 -40 -45l-215 -540q-54 -137 -247 -182z" />
    <glyph glyph-name="uni03BC" unicode="&#x3bc;" horiz-adv-x="1222" 
d="M417 929l1 -604q19 -75 65.5 -109.5t129.5 -34.5q64 0 117 41q51 39 71 99v597q0 31 25 31h184q24 0 24 -31v-557q0 -76 36.5 -123t95.5 -56q19 -3 19 -23l-22 -170q-2 -17 -20 -17q-52 0 -101.5 19t-82.5 50q-44 44 -59 93q-95 -158 -287 -158q-117 0 -197 59v-26
q0 -304 21 -409q0 -21 -21 -21h-196q-16 0 -20 13q-16 45 -16 342v844l-106 25q-18 5 -18 21v92q0 24 27 26l299 20q12 0 21.5 -9.5t9.5 -23.5z" />
    <glyph glyph-name="nu" unicode="&#x3bd;" horiz-adv-x="1016" 
d="M751 919q1 10 2.5 15.5t7 10.5t14.5 5h206q26 0 26 -24q-22 -164 -121 -432q-98 -266 -204 -464q-16 -30 -53 -30h-202q-32 0 -39 25l-239 746l-122 27q-17 5 -17 21v88q0 23 27 26l294 29q24 0 32 -32q94 -365 158 -646l24 -116q167 468 206 751z" />
    <glyph glyph-name="xi" unicode="&#x3be;" horiz-adv-x="897" 
d="M615 -151q0 27 -32 56.5t-71.5 51t-109 58t-111.5 62.5q-210 129 -209 289q0 244 246 365q-183 67 -183 260q0 85 39 149t109 101q134 70 318 70q99 0 168 -19q20 -5 20 -25l-12 -220q-2 -20 -21 -20h-72q-18 0 -21 12l-21 78q-36 4 -55 4q-101 0 -159.5 -35.5
t-58.5 -93.5q0 -84 78 -122q80 -36 266 -36q26 0 26 -23v-149q0 -22 -19 -22h-70q-168 0 -251 -70q-84 -69 -84 -169q0 -56 54.5 -102.5t171.5 -102.5q83 -40 125 -67q48 -29 94 -72q89 -80 89 -211q-4 -189 -188 -245q-96 -34 -239 -34q-50 0 -61 1q-20 2 -20 22v153
q0 16 18 16q144 0 195 21q51 20 51 69z" />
    <glyph glyph-name="omicron" unicode="&#x3bf;" horiz-adv-x="1058" 
d="M71 473q0 326 193 439q105 62 264 62q136 0 242 -55q63 -32 110 -87q48 -56 77.5 -150.5t29.5 -212.5q0 -227 -120 -361q-119 -132 -348 -132q-226 0 -337 133q-111 134 -111 364zM746 463q0 229 -104 298q-51 33 -121 33q-111 2 -165 -87q-44 -79 -44 -240
q0 -313 212 -313q109 0 165.5 81t56.5 228z" />
    <glyph glyph-name="pi" unicode="&#x3c0;" horiz-adv-x="1228" 
d="M1151 -5q-89 -19 -168 -19q-85 0 -138 29q-105 56 -105 250v516h-215q-4 -148 -36 -355q-33 -213 -89 -385q-9 -31 -29 -31h-187q-26 0 -26 18q0 2 2 12q54 158 87 363q33 199 41 372q-53 -8 -139 -53q-11 -6 -18 -6q-11 0 -17 14l-52 121q-2 8 -2 11q0 6 8 14
q50 39 116 61q71 23 185 23h744q30 0 30 -24v-131q0 -24 -30 -24h-150v-460q0 -89 21 -118t63 -29q38 0 99 11q27 0 28 -28l5 -131q0 -17 -28 -21z" />
    <glyph glyph-name="rho" unicode="&#x3c1;" horiz-adv-x="1114" 
d="M580 157q110 0 167.5 79.5t57.5 224.5q0 326 -228 326q-67 0 -114 -31q-32 -21 -50 -53q-47 -77 -47 -240v-216q97 -90 214 -90zM362 -45q2 -256 21 -356q0 -21 -21 -21h-196q-17 0 -21 13q-18 49 -18 342v538q0 326 193 439q105 62 264 62q136 0 242 -55q63 -32 110 -87
q48 -56 77.5 -150.5t29.5 -212.5q0 -227 -120 -361q-119 -132 -348 -132q-87 0 -213 55v-74z" />
    <glyph glyph-name="sigma1" unicode="&#x3c2;" horiz-adv-x="885" 
d="M315 490q0 -112 50 -167q51 -53 159 -87q182 -56 218 -68q83 -29 83 -132q0 -74 -32 -179t-64 -147q-12 -15 -26 -15q-6 0 -21 4l-120 29q-15 3 -15 14q0 2 9 38q38 140 38 192q0 37 -44.5 57.5t-131 44t-141.5 52.5q-63 33 -106.5 75.5t-70.5 111.5q-29 76 -29 173
q0 222 124 355q125 135 344 135q128 0 257 -40q10 -3 15 -5.5t9.5 -9t4.5 -16.5l-13 -228q-2 -20 -20 -20h-75q-16 0 -19 13l-26 108h-3q-36 13 -121 13q-112 0 -172.5 -79.5t-60.5 -221.5z" />
    <glyph glyph-name="sigma" unicode="&#x3c3;" horiz-adv-x="1161" 
d="M746 457q0 159 -56 241q-24 34 -56 57q-51 37 -113 37q-98 0 -160 -100q-50 -81 -50 -231q0 -309 213 -309q111 0 166 85q56 86 56 220zM1100 794l-236 23q117 -133 117 -372q0 -211 -119 -342q-118 -129 -344 -129q-225 0 -336 131q-111 132 -111 362q0 119 31 211
t79 146.5t115.5 88.5t133.5 46.5t141 12.5h546q17 0 17 -19l-16 -142q0 -17 -18 -17z" />
    <glyph glyph-name="tau" unicode="&#x3c4;" horiz-adv-x="788" 
d="M720 775h-241v-505q0 -102 123 -102q38 0 109 7q23 0 25 -21l11 -144q0 -16 -15 -18q-108 -18 -182 -18q-304 0 -304 296v505h-199q-31 0 -31 25v126q0 24 31 24h673q30 0 30 -24v-126q0 -25 -30 -25z" />
    <glyph glyph-name="upsilon" unicode="&#x3c5;" horiz-adv-x="1086" 
d="M756 769l-156 33q-18 4 -18 21v88q0 25 27 26l296 20q25 0 36 -36q63 -217 63 -408q2 -286 -147 -433q-113 -108 -315 -108q-173 0 -287 99q-123 109 -123 333v86q1 45 1 136q0 164 -17 298q0 26 25 26h185q23 0 26 -31l5 -79q6 -96 6 -188q0 -62 -1 -116t-1 -132
q0 -109 49.5 -166t131.5 -57q78 0 134 45.5t80 121.5q23 75 23 166q0 131 -23 255z" />
    <glyph glyph-name="phi" unicode="&#x3c6;" horiz-adv-x="1436" 
d="M835 794v-658q140 12 226 99q86 88 86 226q0 140 -87 230q-86 89 -225 103zM388 932q7 4 15 4q9 0 14 -12l55 -141q3 -9 3 -14q0 -9 -9 -14q-178 -88 -178 -294q0 -145 93 -232q94 -86 223 -91v820q0 23 37 27q57 6 92 6q98 0 218 -27q188 -44 300 -175
q114 -132 114 -333q0 -147 -71 -263q-70 -115 -189 -180t-270 -75v-329q0 -30 -24 -30h-185q-24 0 -24 30v331q-152 12 -271 77.5t-190 178.5q-70 115 -70 260q0 156 84 285q83 129 233 191z" />
    <glyph glyph-name="chi" unicode="&#x3c7;" horiz-adv-x="1203" 
d="M190 770l-157 37q-17 5 -17 21v88q0 24 27 26l274 20q17 0 38 -36l275 -461l14 -26q6 8 13 26l255 456q17 29 44 29h193q22 0 22 -17q0 -8 -3 -14l-395 -674l259 -405q40 -63 67 -85q27 -23 58 -30l46 -10q17 -5 17 -28v-145q0 -29 -25 -29q-225 15 -313 154
q-30 47 -59 91q-31 47 -49 76q-5 8 -17.5 27.5t-19.5 30.5q-49 83 -79 136l-10 18q-2 -6 -9 -18l-194 -332q-107 -183 -334 -183q-23 0 -23 22v150q0 10 0.5 15t5.5 10.5t14 7.5q44 9 57 15q51 28 77 64q16 22 19 27q6 8 21 33q16 25 21 33l219 355z" />
    <glyph glyph-name="psi" unicode="&#x3c8;" horiz-adv-x="1505" 
d="M870 1097l-1 -940q112 18 164 105q53 89 53 206v447q0 13 9 22.5t22 9.5l301 -20q27 -1 27 -26v-88q0 -16 -17 -21l-108 -25v-293q0 -221 -129 -367q-127 -145 -322 -145v-353q0 -30 -24 -30h-185q-24 0 -24 30v353q-194 0 -323 145q-128 146 -128 367v293l-108 25
q-17 5 -17 21v88q0 25 27 26l301 20q13 0 21 -9t8 -23v-453q0 -125 61 -208q62 -84 159 -97v942q0 12 9.5 21.5t20.5 9.5h172q13 0 22 -9.5t9 -23.5z" />
    <glyph glyph-name="omega" unicode="&#x3c9;" horiz-adv-x="1479" 
d="M198 962l286 -20q27 -2 27 -24v-90q0 -16 -17 -21l-167 -33q-26 -95 -26 -230q0 -171 46 -276t130 -105q73 0 109 76q37 75 37 183v159q0 30 24 30h185q24 0 24 -30v-144q0 -130 36.5 -202t109.5 -72q84 0 136 108q53 111 53 274q0 142 -31 229l-166 33q-18 5 -18 21v91
q0 21 27 23l286 20q12 0 18.5 -6.5t17.5 -29.5q38 -81 61 -198q22 -111 22 -235q0 -231 -114 -376t-300 -145q-76 0 -142.5 31t-109.5 89q-45 -58 -112.5 -89t-144.5 -31q-185 0 -294 144q-109 143 -109 377q0 83 18 203q17 118 62 230q9 22 16 29t20 7z" />
    <glyph glyph-name="iotadieresis" unicode="&#x3ca;" horiz-adv-x="699" 
d="M617 162h30q8 0 13 -6.5t5 -12.5l9 -134q0 -22 -22 -25q-71 -10 -164 -10q-162 0 -221 96q-51 87 -51 232v480l-107 25q-18 5 -18 21v88q0 24 27 26l300 20q14 0 23 -9.5t9 -23.5v-633q3 -57 21.5 -85.5t55.5 -39.5q35 -9 90 -9zM6 1195q0 51 29 78t83 27
q53 0 82.5 -27.5t29.5 -77.5q0 -49 -30 -77.5t-82 -28.5q-54 0 -83 28t-29 78zM381 1195q0 50 29 77.5t84 27.5q53 0 82 -27.5t29 -77.5q0 -49 -29.5 -77.5t-81.5 -28.5q-54 0 -83.5 28.5t-29.5 77.5z" />
    <glyph glyph-name="upsilondieresis" unicode="&#x3cb;" horiz-adv-x="1086" 
d="M756 769l-156 33q-18 4 -18 21v88q0 25 27 26l296 20q25 0 36 -36q63 -217 63 -408q2 -286 -147 -433q-113 -108 -315 -108q-173 0 -287 99q-123 109 -123 333v86q1 45 1 136q0 164 -17 298q0 26 25 26h185q23 0 26 -31l5 -79q6 -96 6 -188q0 -62 -1 -116t-1 -132
q0 -109 49.5 -166t131.5 -57q78 0 134 45.5t80 121.5q23 75 23 166q0 131 -23 255zM246 1195q0 51 29 78t83 27q53 0 82.5 -27.5t29.5 -77.5q0 -49 -30 -77.5t-82 -28.5q-54 0 -83 28t-29 78zM621 1195q0 50 29 77.5t84 27.5q53 0 82 -27.5t29 -77.5q0 -49 -29.5 -77.5
t-81.5 -28.5q-54 0 -83.5 28.5t-29.5 77.5z" />
    <glyph glyph-name="omicrontonos" unicode="&#x3cc;" horiz-adv-x="1058" 
d="M71 473q0 326 193 439q105 62 264 62q136 0 242 -55q63 -32 110 -87q48 -56 77.5 -150.5t29.5 -212.5q0 -227 -120 -361q-119 -132 -348 -132q-226 0 -337 133q-111 134 -111 364zM746 463q0 229 -104 298q-51 33 -121 33q-111 2 -165 -87q-44 -79 -44 -240
q0 -313 212 -313q109 0 165.5 81t56.5 228zM678 1332l-82 -228q-7 -22 -25 -22h-115q-13 0 -13 16l29 243q3 26 30 26h161q19 0 19 -16q0 -8 -4 -19z" />
    <glyph glyph-name="upsilontonos" unicode="&#x3cd;" horiz-adv-x="1086" 
d="M756 769l-156 33q-18 4 -18 21v88q0 25 27 26l296 20q25 0 36 -36q63 -217 63 -408q2 -286 -147 -433q-113 -108 -315 -108q-173 0 -287 99q-123 109 -123 333v86q1 45 1 136q0 164 -17 298q0 26 25 26h185q23 0 26 -31l5 -79q6 -96 6 -188q0 -62 -1 -116t-1 -132
q0 -109 49.5 -166t131.5 -57q78 0 134 45.5t80 121.5q23 75 23 166q0 131 -23 255zM680 1332l-82 -228q-7 -22 -25 -22h-115q-13 0 -13 16l29 243q3 26 30 26h161q19 0 19 -16q0 -8 -4 -19z" />
    <glyph glyph-name="omegatonos" unicode="&#x3ce;" horiz-adv-x="1479" 
d="M198 962l286 -20q27 -2 27 -24v-90q0 -16 -17 -21l-167 -33q-26 -95 -26 -230q0 -171 46 -276t130 -105q73 0 109 76q37 75 37 183v159q0 30 24 30h185q24 0 24 -30v-144q0 -130 36.5 -202t109.5 -72q84 0 136 108q53 111 53 274q0 142 -31 229l-166 33q-18 5 -18 21v91
q0 21 27 23l286 20q12 0 18.5 -6.5t17.5 -29.5q38 -81 61 -198q22 -111 22 -235q0 -231 -114 -376t-300 -145q-76 0 -142.5 31t-109.5 89q-45 -58 -112.5 -89t-144.5 -31q-185 0 -294 144q-109 143 -109 377q0 83 18 203q17 118 62 230q9 22 16 29t20 7zM894 1332l-82 -228
q-7 -22 -25 -22h-115q-13 0 -13 16l29 243q3 26 30 26h161q19 0 19 -16q0 -8 -4 -19z" />
    <glyph glyph-name="Iocyrillic" unicode="&#x401;" horiz-adv-x="1041" 
d="M796 595h-364v-396h508q24 0 24 -29v-140q0 -30 -24 -30h-723q-24 0 -24 30v1068l-113 37q-20 8 -20 26v104q0 20 25 20h850q35 0 35 -34v-130q0 -35 -35 -35h-503v-292h364q17 0 26 -9.5t9 -25.5v-130q0 -34 -35 -34zM218 1517q0 51 29 78t83 27q53 0 82.5 -27.5
t29.5 -77.5q0 -49 -30 -77.5t-82 -28.5q-54 0 -83 28t-29 78zM593 1517q0 50 29 77.5t84 27.5q53 0 82 -27.5t29 -77.5q0 -49 -29.5 -77.5t-81.5 -28.5q-54 0 -83.5 28.5t-29.5 77.5z" />
    </font>
</defs>
</svg>
